SplineFontDB: 3.0
FontName: thinIconFont
FullName: thinIconFont
FamilyName: thinIconFont
Weight: thinIconFont
Copyright: 
Version: 1.0
ItalicAngle: 0
UnderlinePosition: 10
UnderlineWidth: 0
Ascent: 850
Descent: 150
InvalidEm: 0
sfntRevision: 0x00010000
woffMajor: 1
woffMinor: 0
LayerCount: 2
Layer: 0 1 "+BBcEMAQ0BD0EOAQ5 +BD8EOwQwBD0A" 1
Layer: 1 1 "+BB8ENQRABDUENAQ9BDgEOQAA +BD8EOwQwBD0A" 0
XUID: [1021 968 -1456198372 23441]
StyleMap: 0x0040
FSType: 8
OS2Version: 1
OS2_WeightWidthSlopeOnly: 0
OS2_UseTypoMetrics: 0
CreationTime: 1448456759
ModificationTime: 1524915896
PfmFamily: 17
TTFWeight: 400
TTFWidth: 5
LineGap: 90
VLineGap: 0
Panose: 2 0 5 3 0 0 0 0 0 0
OS2TypoAscent: 850
OS2TypoAOffset: 0
OS2TypoDescent: -150
OS2TypoDOffset: 0
OS2TypoLinegap: 90
OS2WinAscent: 761
OS2WinAOffset: 0
OS2WinDescent: 53
OS2WinDOffset: 0
HheadAscent: 850
HheadAOffset: 0
HheadDescent: -150
HheadDOffset: 0
OS2SubXSize: 634
OS2SubYSize: 700
OS2SubXOff: 0
OS2SubYOff: 140
OS2SupXSize: 634
OS2SupYSize: 700
OS2SupXOff: 0
OS2SupYOff: 480
OS2StrikeYSize: 49
OS2StrikeYPos: 258
OS2Vendor: 'PfEd'
OS2CodePages: 00000001.00000000
OS2UnicodeRanges: 00000000.00000000.00000000.00000000
MarkAttachClasses: 1
DEI: 91125
TtTable: prep
SVTCA[y-axis]
MPPEM
PUSHW_1
 200
GT
IF
PUSHB_2
 1
 1
INSTCTRL
EIF
PUSHB_1
 1
PUSHW_2
 2048
 2048
MUL
WCVTF
PUSHB_2
 0
 5
WS
PUSHB_2
 0
 0
LOOPCALL
PUSHB_2
 0
 5
WS
PUSHB_2
 0
 8
LOOPCALL
PUSHB_2
 0
 5
WS
PUSHB_2
 0
 8
LOOPCALL
PUSHB_2
 0
 5
WS
PUSHW_2
 0
 9
LOOPCALL
PUSHB_2
 0
 5
WS
PUSHW_2
 0
 9
LOOPCALL
PUSHB_2
 3
 0
WCVTP
PUSHB_2
 36
 1
GETINFO
LTEQ
IF
PUSHB_1
 64
GETINFO
IF
PUSHB_2
 3
 100
WCVTP
PUSHB_2
 38
 1
GETINFO
LTEQ
IF
PUSHW_3
 2176
 1
 1088
GETINFO
MUL
EQ
IF
PUSHB_2
 3
 0
WCVTP
EIF
EIF
EIF
EIF
PUSHB_2
 0
 12
LOOPCALL
PUSHW_1
 511
SCANCTRL
PUSHB_1
 4
SCANTYPE
PUSHB_2
 2
 0
WCVTP
EndTTInstrs
TtTable: fpgm
PUSHB_1
 0
FDEF
DUP
PUSHB_1
 0
NEQ
IF
RCVT
EIF
DUP
DUP
MPPEM
PUSHW_1
 14
LTEQ
MPPEM
PUSHB_1
 6
GTEQ
AND
IF
PUSHB_1
 52
ELSE
PUSHB_1
 40
EIF
ADD
FLOOR
DUP
ROLL

StartChar: thin-volume-on
Encoding: 57600 57600 1
Width: 1000
Flags: W
LayerCount: 2
Fore
SplineSet
623 673 m 0,0,1
 609 681 609 681 591 669 c 2,2,-1
 360 511 l 2,3,4
 351 505 351 505 345 497 c 1,5,-1
 182 497 l 2,6,7
 151 496 151 496 130.5 475.5 c 128,-1,8
 110 455 110 455 109 424 c 2,9,-1
 109 277 l 2,10,11
 110 245 110 245 130.5 224.5 c 128,-1,12
 151 204 151 204 182 203 c 2,13,-1
 346 203 l 1,14,15
 352 195 352 195 360 189 c 2,16,-1
 591 31 l 2,17,18
 602 24 602 24 611 24 c 0,19,20
 618 24 618 24 623 27 c 0,21,22
 638 36 638 36 638 56 c 2,23,-1
 638 644 l 2,24,25
 638 665 638 665 623 673 c 0,0,1
609 56 m 2,26,27
 609 55 609 55 609 54 c 1,28,29
 608 55 608 55 608 55 c 1,30,-1
 377 213 l 2,31,32
 369 219 369 219 364 228.5 c 128,-1,33
 359 238 359 238 359 247 c 2,34,-1
 359 350 l 2,35,36
 359 356 359 356 354.5 360.5 c 128,-1,37
 350 365 350 365 344 365 c 128,-1,38
 338 365 338 365 333.5 360.5 c 128,-1,39
 329 356 329 356 329 350 c 2,40,-1
 329 247 l 2,41,42
 329 240 329 240 331 232 c 1,43,-1
 182 232 l 2,44,45
 164 232 164 232 151.5 245 c 128,-1,46
 139 258 139 258 138 277 c 2,47,-1
 138 424 l 2,48,49
 139 443 139 443 151.5 455.5 c 128,-1,50
 164 468 164 468 182 468 c 2,51,-1
 330 468 l 1,52,-1
 329 460 l 1,53,-1
 329 438 l 2,54,55
 329 432 329 432 333.5 428 c 128,-1,56
 338 424 338 424 344 424 c 128,-1,57
 350 424 350 424 354.5 428 c 128,-1,58
 359 432 359 432 359 438 c 2,59,-1
 359 460 l 2,60,61
 359 465 359 465 364 473 c 128,-1,62
 369 481 369 481 377 487 c 2,63,-1
 608 645 l 1,64,65
 608 645 608 645 609 646 c 2,66,-1
 609 56 l 2,26,27
729 453 m 0,67,68
 716 458 716 458 709 447 c 0,69,70
 706 442 706 442 708 436 c 128,-1,71
 710 430 710 430 715 427 c 0,72,73
 719 427 719 427 735 409.5 c 128,-1,74
 751 392 751 392 753 349 c 0,75,76
 751 306 751 306 735 288 c 128,-1,77
 719 270 719 270 716 271 c 0,78,79
 710 268 710 268 708 262 c 128,-1,80
 706 256 706 256 709 251 c 0,81,82
 714 243 714 243 722 243 c 0,83,84
 726 243 726 243 730 244 c 128,-1,85
 734 245 734 245 756.5 268.5 c 128,-1,86
 779 292 779 292 782 349 c 1,87,88
 779 406 779 406 756.5 429.5 c 128,-1,89
 734 453 734 453 729 453 c 0,67,68
796 539 m 0,90,91
 791 542 791 542 785 541 c 128,-1,92
 779 540 779 540 775.5 535 c 128,-1,93
 772 530 772 530 773.5 524 c 128,-1,94
 775 518 775 518 780 514 c 0,95,96
 787 513 787 513 822 471.5 c 128,-1,97
 857 430 857 430 862 349 c 1,98,99
 857 267 857 267 822 226 c 128,-1,100
 787 185 787 185 780 184 c 0,101,102
 775 180 775 180 773.5 174 c 128,-1,103
 772 168 772 168 776 162.5 c 128,-1,104
 780 157 780 157 788 157 c 0,105,106
 793 157 793 157 796 159 c 0,107,108
 805 161 805 161 845 208 c 128,-1,109
 885 255 885 255 891 349 c 1,110,111
 885 443 885 443 845 490 c 128,-1,112
 805 537 805 537 796 539 c 0,90,91
EndSplineSet
EndChar

StartChar: thin-gift
Encoding: 57601 57601 2
Width: 1000
Flags: W
LayerCount: 2
Fore
SplineSet
838 528 m 2,0,-1
 555 528 l 1,1,2
 590 539 590 539 631 558.5 c 128,-1,3
 672 578 672 578 702 606 c 0,4,5
 719 624 719 624 723.5 647.5 c 128,-1,6
 728 671 728 671 718.5 694.5 c 128,-1,7
 709 718 709 718 689.5 731.5 c 128,-1,8
 670 745 670 745 646 745 c 0,9,10
 631 746 631 746 609 737 c 128,-1,11
 587 728 587 728 562 700 c 0,12,13
 540 673 540 673 525 644.5 c 128,-1,14
 510 616 510 616 502 592 c 1,15,16
 488 628 488 628 457 666 c 0,17,18
 437 689 437 689 419.5 696.5 c 128,-1,19
 402 704 402 704 389 703 c 0,20,21
 369 703 369 703 353.5 691.5 c 128,-1,22
 338 680 338 680 329.5 660.5 c 128,-1,23
 321 641 321 641 325 622 c 128,-1,24
 329 603 329 603 343 588 c 0,25,26
 365 567 365 567 394.5 552 c 128,-1,27
 424 537 424 537 451 528 c 1,28,-1
 162 528 l 2,29,30
 143 528 143 528 130.5 515.5 c 128,-1,31
 118 503 118 503 118 484 c 2,32,-1
 118 366 l 2,33,34
 119 353 119 353 132 352 c 2,35,-1
 162 352 l 1,36,-1
 162 -1 l 2,37,38
 163 -20 163 -20 175.5 -32.5 c 128,-1,39
 188 -45 188 -45 206 -45 c 2,40,-1
 809 -45 l 2,41,42
 828 -45 828 -45 840.5 -32.5 c 128,-1,43
 853 -20 853 -20 853 -1 c 2,44,-1
 853 352 l 1,45,-1
 868 352 l 2,46,47
 881 353 881 353 882 366 c 2,48,-1
 882 484 l 2,49,50
 882 503 882 503 869.5 515.5 c 128,-1,51
 857 528 857 528 838 528 c 2,0,-1
364 608 m 0,52,53
 356 616 356 616 354 627.5 c 128,-1,54
 352 639 352 639 356.5 650 c 128,-1,55
 361 661 361 661 369.5 667.5 c 128,-1,56
 378 674 378 674 389 674 c 0,57,58
 412 673 412 673 434.5 647 c 128,-1,59
 457 621 457 621 468.5 594.5 c 128,-1,60
 480 568 480 568 485 549 c 1,61,62
 459 556 459 556 423.5 570.5 c 128,-1,63
 388 585 388 585 364 608 c 0,52,53
485 -16 m 1,64,-1
 206 -16 l 2,65,66
 200 -16 200 -16 195.5 -12 c 128,-1,67
 191 -8 191 -8 191 -1 c 2,68,-1
 191 352 l 1,69,-1
 485 352 l 1,70,-1
 485 -16 l 1,64,-1
485 381 m 1,71,-1
 147 381 l 1,72,-1
 147 484 l 2,73,74
 147 490 147 490 151.5 494.5 c 128,-1,75
 156 499 156 499 162 499 c 2,76,-1
 485 499 l 1,77,-1
 485 381 l 1,71,-1
585 680 m 0,78,79
 616 716 616 716 646 716 c 0,80,81
 661 716 661 716 673 707 c 128,-1,82
 685 698 685 698 691.5 683 c 128,-1,83
 698 668 698 668 695 653 c 128,-1,84
 692 638 692 638 681 627 c 0,85,86
 648 596 648 596 600 576 c 128,-1,87
 552 556 552 556 519 548 c 1,88,89
 525 572 525 572 540 608 c 128,-1,90
 555 644 555 644 585 680 c 0,78,79
824 -1 m 2,91,92
 824 -8 824 -8 819.5 -12 c 128,-1,93
 815 -16 815 -16 809 -16 c 2,94,-1
 515 -16 l 1,95,-1
 515 352 l 1,96,-1
 824 352 l 1,97,-1
 824 -1 l 2,91,92
853 381 m 1,98,-1
 515 381 l 1,99,-1
 515 499 l 1,100,-1
 838 499 l 2,101,102
 844 499 844 499 848.5 494.5 c 128,-1,103
 853 490 853 490 853 484 c 2,104,-1
 853 381 l 1,98,-1
EndSplineSet
EndChar

StartChar: thin-cup
Encoding: 57602 57602 3
Width: 1000
Flags: W
LayerCount: 2
Fore
SplineSet
708 -18 m 2,0,-1
 134 -18 l 2,1,2
 128 -18 128 -18 123.5 -22 c 128,-1,3
 119 -26 119 -26 119 -32.5 c 128,-1,4
 119 -39 119 -39 123.5 -43 c 128,-1,5
 128 -47 128 -47 134 -47 c 2,6,-1
 708 -47 l 2,7,8
 721 -46 721 -46 722 -32 c 0,9,10
 721 -19 721 -19 708 -18 c 2,0,-1
874 416 m 0,11,12
 841 449 841 449 796.5 452.5 c 128,-1,13
 752 456 752 456 737 453 c 1,14,-1
 737 512 l 2,15,16
 737 518 737 518 733 522.5 c 128,-1,17
 729 527 729 527 722 527 c 2,18,-1
 119 527 l 2,19,20
 113 527 113 527 109 522.5 c 128,-1,21
 105 518 105 518 105 512 c 2,22,-1
 105 409 l 2,23,24
 104 282 104 282 109 212.5 c 128,-1,25
 114 143 114 143 138 119 c 0,26,27
 158 96 158 96 161.5 70.5 c 128,-1,28
 165 45 165 45 164 42 c 0,29,30
 163 36 163 36 167.5 31 c 128,-1,31
 172 26 172 26 178 26 c 2,32,-1
 664 26 l 2,33,34
 671 26 671 26 675 31 c 128,-1,35
 679 36 679 36 678 42 c 0,36,37
 677 45 677 45 680.5 70.5 c 128,-1,38
 684 96 684 96 703 119 c 0,39,40
 713 129 713 129 719 144 c 1,41,42
 727 140 727 140 748 139 c 0,43,44
 763 139 763 139 782 146 c 0,45,46
 845 173 845 173 883 287 c 0,47,48
 912 371 912 371 874 416 c 0,11,12
708 409 m 2,49,50
 709 295 709 295 705 227 c 128,-1,51
 701 159 701 159 682.5 139.5 c 128,-1,52
 664 120 664 120 656.5 96.5 c 128,-1,53
 649 73 649 73 649 56 c 1,54,-1
 193 56 l 1,55,56
 192 73 192 73 185 96.5 c 128,-1,57
 178 120 178 120 159.5 139.5 c 128,-1,58
 141 159 141 159 137 227 c 128,-1,59
 133 295 133 295 134 409 c 2,60,-1
 134 497 l 1,61,-1
 708 497 l 1,62,-1
 708 409 l 2,49,50
856 296 m 0,63,64
 835 235 835 235 812.5 207.5 c 128,-1,65
 790 180 790 180 772 173.5 c 128,-1,66
 754 167 754 167 742 169 c 128,-1,67
 730 171 730 171 729 172 c 2,68,-1
 727 172 l 1,69,70
 734 208 734 208 735.5 266.5 c 128,-1,71
 737 325 737 325 737 409 c 2,72,-1
 737 424 l 1,73,-1
 739 424 l 2,74,75
 758 427 758 427 793.5 423.5 c 128,-1,76
 829 420 829 420 852 397 c 0,77,78
 878 365 878 365 856 296 c 0,63,64
281 144 m 2,79,-1
 619 144 l 2,80,81
 626 144 626 144 630 148.5 c 128,-1,82
 634 153 634 153 634 159 c 128,-1,83
 634 165 634 165 630 169.5 c 128,-1,84
 626 174 626 174 619 174 c 2,85,-1
 281 174 l 2,86,87
 275 174 275 174 270.5 169.5 c 128,-1,88
 266 165 266 165 266 159 c 128,-1,89
 266 153 266 153 270.5 148.5 c 128,-1,90
 275 144 275 144 281 144 c 2,79,-1
359 560 m 0,91,92
 364 556 364 556 369.5 556 c 128,-1,93
 375 556 375 556 380 560 c 0,94,95
 389 571 389 571 380 581 c 2,96,-1
 375 587 l 2,97,98
 370 593 370 593 367 603 c 0,99,100
 359 627 359 627 380 649 c 0,101,102
 406 675 406 675 403 703 c 0,103,104
 400 722 400 722 390.5 732.5 c 128,-1,105
 381 743 381 743 378 745 c 0,106,107
 373 748 373 748 367 747 c 128,-1,108
 361 746 361 746 357.5 741 c 128,-1,109
 354 736 354 736 355 730 c 128,-1,110
 356 724 356 724 361 720 c 0,111,112
 362 720 362 720 367.5 714.5 c 128,-1,113
 373 709 373 709 374 700 c 0,114,115
 376 685 376 685 359 669 c 0,116,117
 329 636 329 636 336 605.5 c 128,-1,118
 343 575 343 575 359 560 c 0,91,92
456 585 m 0,119,120
 459 574 459 574 464.5 567.5 c 128,-1,121
 470 561 470 561 471 560 c 0,122,123
 475 556 475 556 481 556 c 128,-1,124
 487 556 487 556 491 560 c 0,125,126
 500 571 500 571 491 581 c 0,127,128
 487 585 487 585 483 596 c 128,-1,129
 479 607 479 607 491 621 c 0,130,131
 511 641 511 641 509 662 c 0,132,133
 507 677 507 677 499 685 c 128,-1,134
 491 693 491 693 489 694 c 0,135,136
 484 698 484 698 478 696.5 c 128,-1,137
 472 695 472 695 468.5 690 c 128,-1,138
 465 685 465 685 466.5 679 c 128,-1,139
 468 673 468 673 473 670 c 2,140,-1
 476 667 l 2,141,142
 479 664 479 664 479.5 659 c 128,-1,143
 480 654 480 654 477 649.5 c 128,-1,144
 474 645 474 645 471 642 c 0,145,146
 446 616 446 616 456 585 c 0,119,120
EndSplineSet
EndChar

StartChar: thin-folder
Encoding: 57603 57603 4
Width: 1000
Flags: W
LayerCount: 2
Fore
SplineSet
824 607 m 2,0,-1
 478 607 l 2,1,2
 468 607 468 607 454.5 619.5 c 128,-1,3
 441 632 441 632 433 650 c 0,4,5
 421 676 421 676 400.5 692.5 c 128,-1,6
 380 709 380 709 360 710 c 2,7,-1
 176 710 l 2,8,9
 145 709 145 709 124.5 688.5 c 128,-1,10
 104 668 104 668 103 637 c 2,11,-1
 103 63 l 2,12,13
 104 32 104 32 124.5 11.5 c 128,-1,14
 145 -9 145 -9 176 -10 c 2,15,-1
 824 -10 l 2,16,17
 855 -9 855 -9 875.5 11.5 c 128,-1,18
 896 32 896 32 897 63 c 2,19,-1
 897 534 l 2,20,21
 896 565 896 565 875.5 585.5 c 128,-1,22
 855 606 855 606 824 607 c 2,0,-1
868 63 m 2,23,24
 868 45 868 45 855.5 32.5 c 128,-1,25
 843 20 843 20 824 19 c 2,26,-1
 176 19 l 2,27,28
 158 20 158 20 145.5 32.5 c 128,-1,29
 133 45 133 45 132 63 c 2,30,-1
 132 475 l 1,31,-1
 868 475 l 1,32,-1
 868 63 l 2,23,24
868 504 m 1,33,-1
 132 504 l 1,34,-1
 132 637 l 2,35,36
 133 656 133 656 145.5 668.5 c 128,-1,37
 158 681 158 681 176 681 c 2,38,-1
 360 681 l 2,39,40
 370 681 370 681 383.5 669 c 128,-1,41
 397 657 397 657 406 638 c 0,42,43
 417 613 417 613 437.5 596 c 128,-1,44
 458 579 458 579 478 578 c 2,45,-1
 824 578 l 2,46,47
 843 578 843 578 855.5 565.5 c 128,-1,48
 868 553 868 553 868 534 c 2,49,-1
 868 504 l 1,33,-1
382 328 m 2,50,-1
 632 328 l 2,51,52
 639 328 639 328 643 332.5 c 128,-1,53
 647 337 647 337 647 343 c 0,54,55
 646 356 646 356 632 357 c 2,56,-1
 382 357 l 2,57,58
 369 356 369 356 368 343 c 0,59,60
 368 337 368 337 372 332.5 c 128,-1,61
 376 328 376 328 382 328 c 2,50,-1
EndSplineSet
EndChar

StartChar: thin-dublicate
Encoding: 57604 57604 5
Width: 1000
Flags: W
LayerCount: 2
Fore
SplineSet
647 571 m 2,0,-1
 176 571 l 2,1,2
 145 570 145 570 124.5 549.5 c 128,-1,3
 104 529 104 529 103 497 c 2,4,-1
 103 26 l 2,5,6
 104 -5 104 -5 124.5 -25.5 c 128,-1,7
 145 -46 145 -46 176 -47 c 2,8,-1
 647 -47 l 2,9,10
 679 -46 679 -46 699.5 -25.5 c 128,-1,11
 720 -5 720 -5 721 26 c 2,12,-1
 721 497 l 2,13,14
 720 529 720 529 699.5 549.5 c 128,-1,15
 679 570 679 570 647 571 c 2,0,-1
691 26 m 2,16,17
 691 8 691 8 678.5 -4.5 c 128,-1,18
 666 -17 666 -17 647 -18 c 2,19,-1
 176 -18 l 2,20,21
 158 -17 158 -17 145.5 -4.5 c 128,-1,22
 133 8 133 8 132 26 c 2,23,-1
 132 497 l 2,24,25
 133 516 133 516 145.5 528.5 c 128,-1,26
 158 541 158 541 176 541 c 2,27,-1
 647 541 l 2,28,29
 666 541 666 541 678.5 528.5 c 128,-1,30
 691 516 691 516 691 497 c 2,31,-1
 691 26 l 2,16,17
294 600 m 256,32,33
 300 600 300 600 304.5 604.5 c 128,-1,34
 309 609 309 609 309 615 c 2,35,-1
 309 659 l 2,36,37
 309 665 309 665 304.5 669.5 c 128,-1,38
 300 674 300 674 294 674 c 128,-1,39
 288 674 288 674 283.5 669.5 c 128,-1,40
 279 665 279 665 279 659 c 2,41,-1
 279 615 l 2,42,43
 279 609 279 609 283.5 604.5 c 128,-1,44
 288 600 288 600 294 600 c 256,32,33
313 702 m 256,45,46
 319 702 319 702 323 706 c 0,47,48
 336 718 336 718 353 718 c 0,49,50
 359 718 359 718 363.5 722 c 128,-1,51
 368 726 368 726 368 732.5 c 128,-1,52
 368 739 368 739 363.5 743 c 128,-1,53
 359 747 359 747 353 747 c 0,54,55
 324 747 324 747 303 728 c 0,56,57
 299 723 299 723 298.5 717.5 c 128,-1,58
 298 712 298 712 302.5 707 c 128,-1,59
 307 702 307 702 313 702 c 256,45,46
797 732 m 0,60,61
 796 746 796 746 783 747 c 2,62,-1
 739 747 l 2,63,64
 725 746 725 746 725 732.5 c 128,-1,65
 725 719 725 719 739 718 c 2,66,-1
 783 718 l 2,67,68
 796 719 796 719 797 732 c 0,60,61
416 718 m 2,69,-1
 461 718 l 2,70,71
 474 719 474 719 475 732 c 0,72,73
 474 746 474 746 461 747 c 2,74,-1
 416 747 l 2,75,76
 403 746 403 746 402 732 c 0,77,78
 403 719 403 719 416 718 c 2,69,-1
524 718 m 2,79,-1
 568 718 l 2,80,81
 574 718 574 718 578.5 722 c 128,-1,82
 583 726 583 726 583 732.5 c 128,-1,83
 583 739 583 739 578.5 743 c 128,-1,84
 574 747 574 747 568 747 c 2,85,-1
 524 747 l 2,86,87
 518 747 518 747 513.5 743 c 128,-1,88
 509 739 509 739 509 732.5 c 128,-1,89
 509 726 509 726 513.5 722 c 128,-1,90
 518 718 518 718 524 718 c 2,79,-1
631 718 m 2,91,-1
 675 718 l 2,92,93
 681 718 681 718 685.5 722 c 128,-1,94
 690 726 690 726 690 732.5 c 128,-1,95
 690 739 690 739 685.5 743 c 128,-1,96
 681 747 681 747 675 747 c 2,97,-1
 631 747 l 2,98,99
 618 746 618 746 617 732 c 0,100,101
 618 719 618 719 631 718 c 2,91,-1
882 544 m 0,102,103
 876 544 876 544 872 539.5 c 128,-1,104
 868 535 868 535 868 529 c 2,105,-1
 868 485 l 2,106,107
 868 479 868 479 872 474.5 c 128,-1,108
 876 470 876 470 882.5 470 c 128,-1,109
 889 470 889 470 893 474.5 c 128,-1,110
 897 479 897 479 897 485 c 2,111,-1
 897 529 l 2,112,113
 897 535 897 535 893 539.5 c 128,-1,114
 889 544 889 544 882 544 c 0,102,103
882 651 m 0,115,116
 876 651 876 651 872 646.5 c 128,-1,117
 868 642 868 642 868 636 c 2,118,-1
 868 592 l 2,119,120
 868 586 868 586 872 581.5 c 128,-1,121
 876 577 876 577 882.5 577 c 128,-1,122
 889 577 889 577 893 581.5 c 128,-1,123
 897 586 897 586 897 592 c 2,124,-1
 897 636 l 2,125,126
 897 642 897 642 893 646.5 c 128,-1,127
 889 651 889 651 882 651 c 0,115,116
882 436 m 0,128,129
 869 435 869 435 868 422 c 2,130,-1
 868 377 l 2,131,132
 869 364 869 364 882 363 c 0,133,134
 896 364 896 364 897 377 c 2,135,-1
 897 422 l 2,136,137
 896 435 896 435 882 436 c 0,128,129
882 222 m 0,138,139
 876 222 876 222 872 217.5 c 128,-1,140
 868 213 868 213 868 207 c 2,141,-1
 868 203 l 2,142,143
 868 188 868 188 858 175 c 0,144,145
 854 170 854 170 854.5 164.5 c 128,-1,146
 855 159 855 159 860 155 c 128,-1,147
 865 151 865 151 869 151 c 0,148,149
 876 151 876 151 881 156 c 0,150,151
 897 177 897 177 897 203 c 2,152,-1
 897 207 l 2,153,154
 897 213 897 213 893 217.5 c 128,-1,155
 889 222 889 222 882 222 c 0,138,139
877 684 m 0,156,157
 880 684 880 684 883 685 c 0,158,159
 888 688 888 688 890.5 694 c 128,-1,160
 893 700 893 700 890 705 c 0,161,162
 877 731 877 731 851 742 c 0,163,164
 845 744 845 744 839.5 741.5 c 128,-1,165
 834 739 834 739 832 734 c 0,166,167
 828 721 828 721 840 715 c 0,168,169
 856 708 856 708 864 692 c 0,170,171
 868 684 868 684 877 684 c 0,156,157
882 329 m 0,172,173
 876 329 876 329 872 324.5 c 128,-1,174
 868 320 868 320 868 314 c 2,175,-1
 868 270 l 2,176,177
 868 264 868 264 872 259.5 c 128,-1,178
 876 255 876 255 882.5 255 c 128,-1,179
 889 255 889 255 893 259.5 c 128,-1,180
 897 264 897 264 897 270 c 2,181,-1
 897 314 l 2,182,183
 897 320 897 320 893 324.5 c 128,-1,184
 889 329 889 329 882 329 c 0,172,173
813 159 m 2,185,-1
 768 159 l 2,186,187
 762 159 762 159 758 154.5 c 128,-1,188
 754 150 754 150 754 144 c 128,-1,189
 754 138 754 138 758 133.5 c 128,-1,190
 762 129 762 129 768 129 c 2,191,-1
 813 129 l 2,192,193
 819 129 819 129 823 133.5 c 128,-1,194
 827 138 827 138 827 144 c 128,-1,195
 827 150 827 150 823 154.5 c 128,-1,196
 819 159 819 159 813 159 c 2,185,-1
EndSplineSet
EndChar

StartChar: thin-tag
Encoding: 57605 57605 6
Width: 1000
Flags: W
LayerCount: 2
Fore
SplineSet
868 712 m 0,0,1
 853 729 853 729 831.5 737 c 128,-1,2
 810 745 810 745 784 743 c 2,3,-1
 566 721 l 2,4,5
 545 719 545 719 524 709.5 c 128,-1,6
 503 700 503 700 490 688 c 2,7,-1
 130 328 l 2,8,9
 109 306 109 306 107 278.5 c 128,-1,10
 105 251 105 251 124 231 c 2,11,-1
 382 -27 l 2,12,13
 399 -43 399 -43 424 -43 c 0,14,15
 454 -42 454 -42 476 -21 c 2,16,-1
 836 339 l 2,17,18
 849 352 849 352 858.5 372 c 128,-1,19
 868 392 868 392 870 409 c 2,20,-1
 893 634 l 2,21,22
 895 657 895 657 888.5 677 c 128,-1,23
 882 697 882 697 868 712 c 0,0,1
455 0 m 2,24,25
 442 -14 442 -14 424 -14 c 0,26,27
 419 -14 419 -14 413.5 -12.5 c 128,-1,28
 408 -11 408 -11 403 -6 c 2,29,-1
 145 252 l 2,30,31
 135 262 135 262 136.5 278 c 128,-1,32
 138 294 138 294 151 307 c 2,33,-1
 210 366 l 1,34,-1
 516 60 l 1,35,-1
 455 0 l 2,24,25
863 637 m 2,36,-1
 841 412 l 2,37,38
 839 399 839 399 832 384.5 c 128,-1,39
 825 370 825 370 816 360 c 2,40,-1
 536 81 l 1,41,-1
 231 387 l 1,42,-1
 511 667 l 2,43,44
 520 676 520 676 536.5 683 c 128,-1,45
 553 690 553 690 568 692 c 2,46,-1
 787 714 l 1,47,-1
 795 714 l 2,48,49
 827 713 827 713 847 693 c 0,50,51
 866 671 866 671 863 637 c 2,36,-1
726 650 m 0,52,53
 695 649 695 649 674.5 628.5 c 128,-1,54
 654 608 654 608 654 576.5 c 128,-1,55
 654 545 654 545 674.5 524.5 c 128,-1,56
 695 504 695 504 726.5 504 c 128,-1,57
 758 504 758 504 778.5 524.5 c 128,-1,58
 799 545 799 545 799 576.5 c 128,-1,59
 799 608 799 608 778.5 628.5 c 128,-1,60
 758 649 758 649 726 650 c 0,52,53
726 532 m 0,61,62
 708 532 708 532 695.5 545 c 128,-1,63
 683 558 683 558 683 577 c 128,-1,64
 683 596 683 596 695.5 608.5 c 128,-1,65
 708 621 708 621 726.5 621 c 128,-1,66
 745 621 745 621 757.5 608.5 c 128,-1,67
 770 596 770 596 770 577 c 128,-1,68
 770 558 770 558 757.5 545 c 128,-1,69
 745 532 745 532 726 532 c 0,61,62
EndSplineSet
EndChar

StartChar: thin-chat
Encoding: 57606 57606 7
Width: 1000
Flags: W
LayerCount: 2
Fore
SplineSet
500 735 m 1,0,1
 332 731 332 731 219.5 637.5 c 128,-1,2
 107 544 107 544 102 403 c 0,3,4
 101 318 101 318 135 254 c 128,-1,5
 169 190 169 190 243 139 c 0,6,7
 245 136 245 136 247 135 c 0,8,9
 251 72 251 72 170 -6 c 2,10,-1
 166 -10 l 2,11,12
 160 -17 160 -17 164 -25.5 c 128,-1,13
 168 -34 168 -34 176 -35 c 2,14,-1
 178 -35 l 1,15,16
 266 -24 266 -24 337 16.5 c 128,-1,17
 408 57 408 57 427 73 c 1,18,-1
 436 74 l 2,19,20
 447 72 447 72 467.5 70 c 128,-1,21
 488 68 488 68 500 68 c 1,22,23
 500 68 500 68 500 68 c 1,24,25
 669 72 669 72 782 166 c 128,-1,26
 895 260 895 260 899 402 c 1,27,28
 895 543 895 543 782 637 c 128,-1,29
 669 731 669 731 500 735 c 1,0,1
499 100 m 0,30,31
 487 100 487 100 467 102 c 2,32,-1
 438 104 l 1,33,-1
 433 104 l 1,34,-1
 419 102 l 1,35,-1
 412 99 l 2,36,37
 409 95 409 95 352 59.5 c 128,-1,38
 295 24 295 24 218 2 c 1,39,40
 283 76 283 76 276 141 c 1,41,-1
 275 145 l 1,42,-1
 272 150 l 2,43,44
 269 154 269 154 262 161 c 2,45,-1
 261 162 l 1,46,47
 192 209 192 209 161 267 c 128,-1,48
 130 325 130 325 131 403 c 0,49,50
 136 532 136 532 240.5 617.5 c 128,-1,51
 345 703 345 703 500 706 c 1,52,53
 657 703 657 703 761 617.5 c 128,-1,54
 865 532 865 532 869 403 c 1,55,56
 865 274 865 274 761 188.5 c 128,-1,57
 657 103 657 103 499 100 c 0,30,31
331 451 m 0,58,59
 306 450 306 450 289.5 433.5 c 128,-1,60
 273 417 273 417 273 392 c 128,-1,61
 273 367 273 367 289.5 350.5 c 128,-1,62
 306 334 306 334 331 334 c 128,-1,63
 356 334 356 334 372.5 350.5 c 128,-1,64
 389 367 389 367 389 392 c 128,-1,65
 389 417 389 417 372.5 433.5 c 128,-1,66
 356 450 356 450 331 451 c 0,58,59
331 362 m 256,67,68
 319 362 319 362 310.5 371 c 128,-1,69
 302 380 302 380 302 392 c 128,-1,70
 302 404 302 404 310.5 412.5 c 128,-1,71
 319 421 319 421 331 421 c 128,-1,72
 343 421 343 421 351.5 412.5 c 128,-1,73
 360 404 360 404 360 392 c 128,-1,74
 360 380 360 380 351.5 371 c 128,-1,75
 343 362 343 362 331 362 c 256,67,68
493 451 m 0,76,77
 468 450 468 450 451.5 433.5 c 128,-1,78
 435 417 435 417 435 392 c 128,-1,79
 435 367 435 367 451.5 350.5 c 128,-1,80
 468 334 468 334 493 334 c 128,-1,81
 518 334 518 334 534.5 350.5 c 128,-1,82
 551 367 551 367 551 392 c 128,-1,83
 551 417 551 417 534.5 433.5 c 128,-1,84
 518 450 518 450 493 451 c 0,76,77
493 362 m 0,85,86
 480 362 480 362 471.5 371 c 128,-1,87
 463 380 463 380 463 392 c 128,-1,88
 463 404 463 404 471.5 412.5 c 128,-1,89
 480 421 480 421 492.5 421 c 128,-1,90
 505 421 505 421 513.5 412.5 c 128,-1,91
 522 404 522 404 522 392 c 128,-1,92
 522 380 522 380 513.5 371 c 128,-1,93
 505 362 505 362 493 362 c 0,85,86
655 451 m 0,94,95
 630 450 630 450 613.5 433.5 c 128,-1,96
 597 417 597 417 597 392 c 128,-1,97
 597 367 597 367 613.5 350.5 c 128,-1,98
 630 334 630 334 655 334 c 128,-1,99
 680 334 680 334 696 350.5 c 128,-1,100
 712 367 712 367 712 392 c 128,-1,101
 712 417 712 417 696 433.5 c 128,-1,102
 680 450 680 450 655 451 c 0,94,95
655 362 m 0,103,104
 642 362 642 362 633.5 371 c 128,-1,105
 625 380 625 380 625 392 c 128,-1,106
 625 404 625 404 633.5 412.5 c 128,-1,107
 642 421 642 421 654.5 421 c 128,-1,108
 667 421 667 421 675.5 412.5 c 128,-1,109
 684 404 684 404 684 392 c 128,-1,110
 684 380 684 380 675.5 371 c 128,-1,111
 667 362 667 362 655 362 c 0,103,104
EndSplineSet
EndChar

StartChar: thin-clock
Encoding: 57607 57607 8
Width: 1000
Flags: W
LayerCount: 2
Fore
SplineSet
515 383 m 1,0,-1
 515 561 l 2,1,2
 514 575 514 575 500.5 575 c 128,-1,3
 487 575 487 575 486 561 c 2,4,-1
 486 383 l 1,5,6
 460 378 460 378 444 358.5 c 128,-1,7
 428 339 428 339 427 311 c 0,8,9
 428 289 428 289 439 271 c 1,10,-1
 343 175 l 2,11,12
 334 165 334 165 343 154 c 0,13,14
 348 150 348 150 353.5 150 c 128,-1,15
 359 150 359 150 364 154 c 2,16,-1
 460 250 l 1,17,18
 478 238 478 238 501 238 c 0,19,20
 532 239 532 239 552.5 259.5 c 128,-1,21
 573 280 573 280 574 311 c 0,22,23
 574 339 574 339 557.5 358.5 c 128,-1,24
 541 378 541 378 515 383 c 1,0,-1
501 267 m 0,25,26
 482 268 482 268 469 280.5 c 128,-1,27
 456 293 456 293 456 311.5 c 128,-1,28
 456 330 456 330 469 343 c 128,-1,29
 482 356 482 356 501 356 c 128,-1,30
 520 356 520 356 532.5 343 c 128,-1,31
 545 330 545 330 545 311.5 c 128,-1,32
 545 293 545 293 532.5 280.5 c 128,-1,33
 520 268 520 268 501 267 c 0,25,26
501 650 m 1,34,35
 357 646 357 646 261.5 550.5 c 128,-1,36
 166 455 166 455 162 311 c 0,37,38
 162 242 162 242 188 181.5 c 128,-1,39
 214 121 214 121 259 75 c 1,40,41
 256 74 256 74 254 71 c 2,42,-1
 180 -18 l 2,43,44
 176 -23 176 -23 176.5 -28.5 c 128,-1,45
 177 -34 177 -34 181.5 -38 c 128,-1,46
 186 -42 186 -42 192 -42 c 128,-1,47
 198 -42 198 -42 203 -36 c 2,48,-1
 277 52 l 1,49,-1
 279 56 l 1,50,51
 324 17 324 17 380.5 -5 c 128,-1,52
 437 -27 437 -27 501 -27 c 0,53,54
 561 -27 561 -27 615 -7.5 c 128,-1,55
 669 12 669 12 713 48 c 1,56,-1
 783 -36 l 2,57,58
 788 -42 788 -42 795 -42 c 0,59,60
 800 -42 800 -42 804.5 -38 c 128,-1,61
 809 -34 809 -34 809.5 -28.5 c 128,-1,62
 810 -23 810 -23 806 -18 c 2,63,-1
 735 68 l 1,64,65
 784 114 784 114 811.5 176.5 c 128,-1,66
 839 239 839 239 839 311 c 0,67,68
 835 455 835 455 739.5 550.5 c 128,-1,69
 644 646 644 646 501 650 c 1,34,35
501 3 m 1,70,71
 369 6 369 6 282 93 c 128,-1,72
 195 180 195 180 192 311 c 1,73,74
 195 443 195 443 282 530 c 128,-1,75
 369 617 369 617 501 620 c 1,76,77
 632 617 632 617 719 530 c 128,-1,78
 806 443 806 443 809 311 c 1,79,80
 806 180 806 180 719 93 c 128,-1,81
 632 6 632 6 501 3 c 1,70,71
809 706 m 0,82,83
 767 740 767 740 715 740 c 0,84,85
 682 739 682 739 661.5 731 c 128,-1,86
 641 723 641 723 640 721 c 0,87,88
 634 717 634 717 633.5 709.5 c 128,-1,89
 633 702 633 702 638 697 c 2,90,-1
 829 536 l 2,91,92
 833 532 833 532 839 532 c 2,93,-1
 842 532 l 2,94,95
 849 534 849 534 852 540 c 0,96,97
 858 544 858 544 864 597 c 128,-1,98
 870 650 870 650 809 706 c 0,82,83
832 572 m 1,99,-1
 675 704 l 1,100,101
 692 711 692 711 715 711 c 0,102,103
 757 711 757 711 791.5 682.5 c 128,-1,104
 826 654 826 654 832 623 c 128,-1,105
 838 592 838 592 832 572 c 1,99,-1
171 535 m 2,106,-1
 377 697 l 2,107,108
 383 702 383 702 383 709.5 c 128,-1,109
 383 717 383 717 376 721 c 0,110,111
 374 723 374 723 352 732 c 128,-1,112
 330 741 330 741 294 742 c 0,113,114
 239 742 239 742 192 707 c 0,115,116
 141 664 141 664 137.5 616 c 128,-1,117
 134 568 134 568 149 540 c 0,118,119
 153 534 153 534 159 532 c 2,120,-1
 162 532 l 2,121,122
 168 532 168 532 171 535 c 2,106,-1
210 683 m 0,123,124
 248 712 248 712 294 712 c 0,125,126
 322 712 322 712 340 705 c 1,127,-1
 169 571 l 1,128,129
 163 592 163 592 168 623 c 128,-1,130
 173 654 173 654 210 683 c 0,123,124
EndSplineSet
EndChar

StartChar: thin-microphone
Encoding: 57608 57608 9
Width: 1000
Flags: W
LayerCount: 2
Fore
SplineSet
500 174 m 0,0,1
 575 176 575 176 625 230 c 128,-1,2
 675 284 675 284 677 365 c 2,3,-1
 677 556 l 2,4,5
 675 637 675 637 625 691 c 128,-1,6
 575 745 575 745 500 747 c 0,7,8
 425 745 425 745 375.5 691 c 128,-1,9
 326 637 326 637 324 556 c 2,10,-1
 324 365 l 2,11,12
 326 284 326 284 375.5 230 c 128,-1,13
 425 176 425 176 500 174 c 0,0,1
353 556 m 2,14,15
 355 625 355 625 396.5 670.5 c 128,-1,16
 438 716 438 716 500 718 c 0,17,18
 562 716 562 716 603.5 670.5 c 128,-1,19
 645 625 645 625 647 556 c 2,20,-1
 647 365 l 2,21,22
 645 296 645 296 603.5 250.5 c 128,-1,23
 562 205 562 205 500 203 c 0,24,25
 438 205 438 205 396.5 250.5 c 128,-1,26
 355 296 355 296 353 365 c 2,27,-1
 353 556 l 2,14,15
780 453 m 2,28,-1
 721 453 l 2,29,30
 715 453 715 453 710.5 448.5 c 128,-1,31
 706 444 706 444 706 438 c 128,-1,32
 706 432 706 432 710.5 428 c 128,-1,33
 715 424 715 424 721 424 c 2,34,-1
 735 424 l 1,35,-1
 735 369 l 2,36,37
 732 263 732 263 665.5 190.5 c 128,-1,38
 599 118 599 118 500 115 c 1,39,40
 401 118 401 118 334.5 190.5 c 128,-1,41
 268 263 268 263 265 369 c 2,42,-1
 265 424 l 1,43,-1
 279 424 l 2,44,45
 293 425 293 425 294 438 c 0,46,47
 294 444 294 444 290 448.5 c 128,-1,48
 286 453 286 453 279 453 c 2,49,-1
 221 453 l 2,50,51
 214 453 214 453 210 448.5 c 128,-1,52
 206 444 206 444 206 438 c 0,53,54
 207 425 207 425 221 424 c 2,55,-1
 235 424 l 1,56,-1
 235 369 l 2,57,58
 238 253 238 253 308 174 c 128,-1,59
 378 95 378 95 485 86 c 1,60,-1
 485 -18 l 1,61,-1
 353 -18 l 2,62,63
 347 -18 347 -18 342.5 -22 c 128,-1,64
 338 -26 338 -26 338 -32.5 c 128,-1,65
 338 -39 338 -39 342.5 -43 c 128,-1,66
 347 -47 347 -47 353 -47 c 2,67,-1
 647 -47 l 2,68,69
 653 -47 653 -47 657.5 -43 c 128,-1,70
 662 -39 662 -39 662 -32.5 c 128,-1,71
 662 -26 662 -26 657.5 -22 c 128,-1,72
 653 -18 653 -18 647 -18 c 2,73,-1
 515 -18 l 1,74,-1
 515 86 l 1,75,76
 622 95 622 95 692 174 c 128,-1,77
 762 253 762 253 765 369 c 2,78,-1
 765 424 l 1,79,-1
 780 424 l 2,80,81
 793 425 793 425 794 438 c 0,82,83
 794 444 794 444 790 448.5 c 128,-1,84
 786 453 786 453 780 453 c 2,28,-1
603 424 m 2,85,86
 609 424 609 424 613.5 428 c 128,-1,87
 618 432 618 432 618 438 c 128,-1,88
 618 444 618 444 613.5 448.5 c 128,-1,89
 609 453 609 453 603 453 c 2,90,-1
 397 453 l 2,91,92
 391 453 391 453 386.5 448.5 c 128,-1,93
 382 444 382 444 382 438 c 128,-1,94
 382 432 382 432 386.5 428 c 128,-1,95
 391 424 391 424 397 424 c 2,96,-1
 603 424 l 2,85,86
EndSplineSet
EndChar

StartChar: thin-map-marker
Encoding: 57609 57609 10
Width: 1000
Flags: W
LayerCount: 2
Fore
SplineSet
489 134 m 0,0,1
 494 129 494 129 500 129 c 128,-1,2
 506 129 506 129 511 134 c 0,3,4
 520 142 520 142 583.5 226.5 c 128,-1,5
 647 311 647 311 702 428 c 0,6,7
 724 475 724 475 724 524 c 0,8,9
 722 619 722 619 658 682 c 128,-1,10
 594 745 594 745 499 747 c 0,11,12
 404 745 404 745 340.5 682 c 128,-1,13
 277 619 277 619 275 524 c 0,14,15
 275 474 275 474 296 429 c 0,16,17
 351 311 351 311 415.5 226.5 c 128,-1,18
 480 142 480 142 489 134 c 0,0,1
499 718 m 0,19,20
 582 716 582 716 637 661 c 128,-1,21
 692 606 692 606 694 524 c 0,22,23
 694 481 694 481 675 441 c 0,24,25
 632 347 632 347 579 272.5 c 128,-1,26
 526 198 526 198 500 167 c 1,27,28
 473 198 473 198 419.5 272.5 c 128,-1,29
 366 347 366 347 323 441 c 0,30,31
 305 480 305 480 304 524 c 0,32,33
 306 606 306 606 361.5 661 c 128,-1,34
 417 716 417 716 499 718 c 0,19,20
499 420 m 0,35,36
 544 421 544 421 574.5 451.5 c 128,-1,37
 605 482 605 482 606 527 c 0,38,39
 605 572 605 572 574.5 602 c 128,-1,40
 544 632 544 632 499 633 c 0,41,42
 454 632 454 632 424 602 c 128,-1,43
 394 572 394 572 393 527 c 0,44,45
 394 482 394 482 424 451.5 c 128,-1,46
 454 421 454 421 499 420 c 0,35,36
499 604 m 0,47,48
 532 603 532 603 553.5 581 c 128,-1,49
 575 559 575 559 575 526.5 c 128,-1,50
 575 494 575 494 553.5 472.5 c 128,-1,51
 532 451 532 451 499.5 451 c 128,-1,52
 467 451 467 451 445 472.5 c 128,-1,53
 423 494 423 494 423 526.5 c 128,-1,54
 423 559 423 559 445 581 c 128,-1,55
 467 603 467 603 499 604 c 0,47,48
882 -29 m 2,56,-1
 794 310 l 2,57,58
 792 317 792 317 785 320 c 2,59,-1
 711 349 l 1,60,-1
 701 322 l 1,61,-1
 767 295 l 1,62,-1
 845 -5 l 1,63,-1
 698 69 l 2,64,65
 692 72 692 72 685 69 c 2,66,-1
 500 -16 l 1,67,-1
 315 69 l 2,68,69
 309 72 309 72 302 69 c 2,70,-1
 155 -5 l 1,71,-1
 233 295 l 1,72,-1
 300 322 l 1,73,-1
 289 349 l 1,74,-1
 215 320 l 2,75,76
 209 317 209 317 206 310 c 2,77,-1
 118 -29 l 2,78,79
 117 -37 117 -37 124 -43 c 128,-1,80
 131 -49 131 -49 139 -46 c 2,81,-1
 309 40 l 1,82,-1
 494 -46 l 2,83,84
 500 -49 500 -49 506 -46 c 2,85,-1
 691 40 l 1,86,-1
 861 -46 l 2,87,88
 865 -47 865 -47 869 -47 c 128,-1,89
 873 -47 873 -47 877 -44 c 0,90,91
 884 -37 884 -37 882 -29 c 2,56,-1
EndSplineSet
EndChar

StartChar: thin-mobile
Encoding: 57610 57610 11
Width: 1000
Flags: W
LayerCount: 2
Fore
SplineSet
691 747 m 2,0,-1
 309 747 l 2,1,2
 277 746 277 746 256.5 725.5 c 128,-1,3
 236 705 236 705 235 674 c 2,4,-1
 235 26 l 2,5,6
 236 -5 236 -5 256.5 -25.5 c 128,-1,7
 277 -46 277 -46 309 -47 c 2,8,-1
 691 -47 l 2,9,10
 723 -46 723 -46 743.5 -25.5 c 128,-1,11
 764 -5 764 -5 765 26 c 2,12,-1
 765 674 l 2,13,14
 764 705 764 705 743.5 725.5 c 128,-1,15
 723 746 723 746 691 747 c 2,0,-1
735 26 m 2,16,17
 735 8 735 8 722.5 -4.5 c 128,-1,18
 710 -17 710 -17 691 -18 c 2,19,-1
 309 -18 l 2,20,21
 291 -17 291 -17 278.5 -4.5 c 128,-1,22
 266 8 266 8 265 26 c 2,23,-1
 265 129 l 1,24,-1
 735 129 l 1,25,-1
 735 26 l 2,16,17
735 159 m 1,26,-1
 265 159 l 1,27,-1
 265 615 l 1,28,-1
 735 615 l 1,29,-1
 735 159 l 1,26,-1
735 644 m 1,30,-1
 265 644 l 1,31,-1
 265 674 l 2,32,33
 266 693 266 693 278.5 705.5 c 128,-1,34
 291 718 291 718 309 718 c 2,35,-1
 691 718 l 2,36,37
 710 718 710 718 722.5 705.5 c 128,-1,38
 735 693 735 693 735 674 c 2,39,-1
 735 644 l 1,30,-1
471 41 m 2,40,-1
 529 41 l 2,41,42
 536 41 536 41 540 45.5 c 128,-1,43
 544 50 544 50 544 56 c 128,-1,44
 544 62 544 62 540 66.5 c 128,-1,45
 536 71 536 71 529 71 c 2,46,-1
 471 71 l 2,47,48
 465 71 465 71 460.5 66.5 c 128,-1,49
 456 62 456 62 456 56 c 128,-1,50
 456 50 456 50 460.5 45.5 c 128,-1,51
 465 41 465 41 471 41 c 2,40,-1
EndSplineSet
EndChar

StartChar: thin-cloud-charge
Encoding: 57611 57611 12
Width: 1000
Flags: W
LayerCount: 2
Fore
SplineSet
754 553 m 1,0,1
 746 628 746 628 693.5 676.5 c 128,-1,2
 641 725 641 725 565 727 c 0,3,4
 505 726 505 726 457.5 693.5 c 128,-1,5
 410 661 410 661 388 605 c 1,6,7
 370 611 370 611 351 610 c 0,8,9
 298 609 298 609 261.5 574.5 c 128,-1,10
 225 540 225 540 220 488 c 1,11,12
 167 473 167 473 135.5 432 c 128,-1,13
 104 391 104 391 103 336 c 0,14,15
 105 269 105 269 149 225 c 128,-1,16
 193 181 193 181 260 179 c 2,17,-1
 339 179 l 2,18,19
 352 180 352 180 353 194 c 0,20,21
 352 207 352 207 339 208 c 2,22,-1
 260 208 l 2,23,24
 205 209 205 209 169 245.5 c 128,-1,25
 133 282 133 282 132 336 c 0,26,27
 133 384 133 384 161.5 418.5 c 128,-1,28
 190 453 190 453 237 462 c 0,29,30
 242 463 242 463 245.5 467.5 c 128,-1,31
 249 472 249 472 249 477 c 2,32,-1
 249 479 l 2,33,34
 250 522 250 522 279 551 c 128,-1,35
 308 580 308 580 351 581 c 0,36,37
 366 581 366 581 379 577 c 1,38,-1
 376 556 l 2,39,40
 375 550 375 550 379 545.5 c 128,-1,41
 383 541 383 541 389 540 c 2,42,-1
 391 540 l 2,43,44
 396 540 396 540 400.5 544 c 128,-1,45
 405 548 405 548 405 554 c 0,46,47
 406 565 406 565 409 575 c 2,48,-1
 409 578 l 2,49,50
 411 580 411 580 411 582 c 0,51,52
 427 634 427 634 469 665.5 c 128,-1,53
 511 697 511 697 565 698 c 0,54,55
 627 697 627 697 671 657.5 c 128,-1,56
 715 618 715 618 724 558 c 1,57,58
 712 558 712 558 701 557 c 0,59,60
 694 556 694 556 690.5 551 c 128,-1,61
 687 546 687 546 688 540 c 0,62,63
 691 527 691 527 704 528 c 0,64,65
 720 530 720 530 736 527 c 1,66,-1
 737 526 l 1,67,68
 795 514 795 514 831 471 c 128,-1,69
 867 428 867 428 868 369 c 0,70,71
 867 306 867 306 827.5 261.5 c 128,-1,72
 788 217 788 217 727 209 c 1,73,-1
 698 208 l 1,74,-1
 647 208 l 2,75,76
 634 207 634 207 633 194 c 0,77,78
 634 180 634 180 647 179 c 2,79,-1
 698 179 l 1,80,-1
 729 180 l 1,81,82
 803 190 803 190 849.5 242.5 c 128,-1,83
 896 295 896 295 898 369 c 0,84,85
 897 436 897 436 857.5 486 c 128,-1,86
 818 536 818 536 754 553 c 1,0,1
603 399 m 2,87,-1
 486 399 l 2,88,89
 475 399 475 399 472 390 c 2,90,-1
 398 184 l 2,91,92
 396 176 396 176 400.5 170 c 128,-1,93
 405 164 405 164 412 164 c 2,94,-1
 467 164 l 1,95,-1
 427 -9 l 2,96,97
 426 -20 426 -20 436 -26 c 0,98,99
 439 -27 439 -27 442 -27 c 0,100,101
 449 -27 449 -27 454 -20 c 2,102,-1
 601 215 l 2,103,104
 606 223 606 223 601.5 230.5 c 128,-1,105
 597 238 597 238 589 238 c 2,106,-1
 540 238 l 1,107,-1
 616 378 l 2,108,109
 621 385 621 385 616.5 392 c 128,-1,110
 612 399 612 399 603 399 c 2,87,-1
502 230 m 2,111,112
 499 223 499 223 502 215 c 0,113,114
 507 209 507 209 515 208 c 2,115,-1
 562 208 l 1,116,-1
 476 70 l 1,117,-1
 500 175 l 2,118,119
 502 182 502 182 497 187.5 c 128,-1,120
 492 193 492 193 486 194 c 2,121,-1
 433 194 l 1,122,-1
 496 370 l 1,123,-1
 579 370 l 1,124,-1
 502 230 l 2,111,112
EndSplineSet
EndChar

StartChar: thin-resize
Encoding: 57612 57612 13
Width: 1000
Flags: W
LayerCount: 2
Fore
SplineSet
118 453 m 0,0,1
 124 453 124 453 128 457.5 c 128,-1,2
 132 462 132 462 132 468 c 2,3,-1
 132 512 l 2,4,5
 132 518 132 518 128 522.5 c 128,-1,6
 124 527 124 527 117.5 527 c 128,-1,7
 111 527 111 527 107 522.5 c 128,-1,8
 103 518 103 518 103 512 c 2,9,-1
 103 468 l 2,10,11
 103 462 103 462 107 457.5 c 128,-1,12
 111 453 111 453 118 453 c 0,0,1
118 659 m 0,13,14
 124 659 124 659 128 663.5 c 128,-1,15
 132 668 132 668 132 674 c 0,16,17
 133 691 133 691 144 704 c 0,18,19
 148 709 148 709 148 714.5 c 128,-1,20
 148 720 148 720 143.5 724.5 c 128,-1,21
 139 729 139 729 133 729 c 128,-1,22
 127 729 127 729 123 724 c 0,23,24
 103 702 103 702 103 674 c 0,25,26
 103 668 103 668 107 663.5 c 128,-1,27
 111 659 111 659 118 659 c 0,13,14
118 556 m 0,28,29
 124 556 124 556 128 560.5 c 128,-1,30
 132 565 132 565 132 571 c 2,31,-1
 132 615 l 2,32,33
 132 621 132 621 128 625.5 c 128,-1,34
 124 630 124 630 117.5 630 c 128,-1,35
 111 630 111 630 107 625.5 c 128,-1,36
 103 621 103 621 103 615 c 2,37,-1
 103 571 l 2,38,39
 103 565 103 565 107 560.5 c 128,-1,40
 111 556 111 556 118 556 c 0,28,29
555 732 m 0,41,42
 555 739 555 739 550.5 743 c 128,-1,43
 546 747 546 747 540 747 c 2,44,-1
 496 747 l 2,45,46
 490 747 490 747 485.5 743 c 128,-1,47
 481 739 481 739 481 732.5 c 128,-1,48
 481 726 481 726 485.5 722 c 128,-1,49
 490 718 490 718 496 718 c 2,50,-1
 540 718 l 2,51,52
 546 718 546 718 550.5 722 c 128,-1,53
 555 726 555 726 555 732 c 0,41,42
542 -18 m 2,54,-1
 515 -18 l 2,55,56
 509 -18 509 -18 504.5 -22 c 128,-1,57
 500 -26 500 -26 500 -32.5 c 128,-1,58
 500 -39 500 -39 504.5 -43 c 128,-1,59
 509 -47 509 -47 515 -47 c 2,60,-1
 542 -47 l 2,61,62
 548 -47 548 -47 552.5 -43 c 128,-1,63
 557 -39 557 -39 557 -32.5 c 128,-1,64
 557 -26 557 -26 552.5 -22 c 128,-1,65
 548 -18 548 -18 542 -18 c 2,54,-1
118 350 m 0,66,67
 124 350 124 350 128 354.5 c 128,-1,68
 132 359 132 359 132 365 c 2,69,-1
 132 409 l 2,70,71
 132 415 132 415 128 419.5 c 128,-1,72
 124 424 124 424 117.5 424 c 128,-1,73
 111 424 111 424 107 419.5 c 128,-1,74
 103 415 103 415 103 409 c 2,75,-1
 103 365 l 2,76,77
 103 359 103 359 107 354.5 c 128,-1,78
 111 350 111 350 118 350 c 0,66,67
599 718 m 2,79,-1
 643 718 l 2,80,81
 649 718 649 718 653.5 722 c 128,-1,82
 658 726 658 726 658 732.5 c 128,-1,83
 658 739 658 739 653.5 743 c 128,-1,84
 649 747 649 747 643 747 c 2,85,-1
 599 747 l 2,86,87
 593 747 593 747 588.5 743 c 128,-1,88
 584 739 584 739 584 732.5 c 128,-1,89
 584 726 584 726 588.5 722 c 128,-1,90
 593 718 593 718 599 718 c 2,79,-1
702 718 m 2,91,-1
 746 718 l 2,92,93
 752 718 752 718 756.5 722 c 128,-1,94
 761 726 761 726 761 732.5 c 128,-1,95
 761 739 761 739 756.5 743 c 128,-1,96
 752 747 752 747 746 747 c 2,97,-1
 702 747 l 2,98,99
 696 747 696 747 691.5 743 c 128,-1,100
 687 739 687 739 687 732.5 c 128,-1,101
 687 726 687 726 691.5 722 c 128,-1,102
 696 718 696 718 702 718 c 2,91,-1
393 718 m 2,103,-1
 437 718 l 2,104,105
 443 718 443 718 447.5 722 c 128,-1,106
 452 726 452 726 452 732.5 c 128,-1,107
 452 739 452 739 447.5 743 c 128,-1,108
 443 747 443 747 437 747 c 2,109,-1
 393 747 l 2,110,111
 387 747 387 747 382.5 743 c 128,-1,112
 378 739 378 739 378 732.5 c 128,-1,113
 378 726 378 726 382.5 722 c 128,-1,114
 387 718 387 718 393 718 c 2,103,-1
187 718 m 2,115,-1
 231 718 l 2,116,117
 237 718 237 718 241.5 722 c 128,-1,118
 246 726 246 726 246 732.5 c 128,-1,119
 246 739 246 739 241.5 743 c 128,-1,120
 237 747 237 747 231 747 c 2,121,-1
 187 747 l 2,122,123
 181 747 181 747 176.5 743 c 128,-1,124
 172 739 172 739 172 732.5 c 128,-1,125
 172 726 172 726 176.5 722 c 128,-1,126
 181 718 181 718 187 718 c 2,115,-1
290 718 m 2,127,-1
 334 718 l 2,128,129
 340 718 340 718 344.5 722 c 128,-1,130
 349 726 349 726 349 732.5 c 128,-1,131
 349 739 349 739 344.5 743 c 128,-1,132
 340 747 340 747 334 747 c 2,133,-1
 290 747 l 2,134,135
 284 747 284 747 279.5 743 c 128,-1,136
 275 739 275 739 275 732.5 c 128,-1,137
 275 726 275 726 279.5 722 c 128,-1,138
 284 718 284 718 290 718 c 2,127,-1
896 684 m 0,139,140
 895 690 895 690 890.5 693.5 c 128,-1,141
 886 697 886 697 880 696 c 128,-1,142
 874 695 874 695 870 690.5 c 128,-1,143
 866 686 866 686 867 680 c 0,144,145
 868 677 868 677 868 674 c 2,146,-1
 868 638 l 2,147,148
 868 632 868 632 872 627.5 c 128,-1,149
 876 623 876 623 882.5 623 c 128,-1,150
 889 623 889 623 893 627.5 c 128,-1,151
 897 632 897 632 897 638 c 2,152,-1
 897 674 l 2,153,154
 897 679 897 679 896 684 c 0,139,140
882 285 m 0,155,156
 876 285 876 285 872 280.5 c 128,-1,157
 868 276 868 276 868 270 c 2,158,-1
 868 226 l 2,159,160
 868 220 868 220 872 215.5 c 128,-1,161
 876 211 876 211 882.5 211 c 128,-1,162
 889 211 889 211 893 215.5 c 128,-1,163
 897 220 897 220 897 226 c 2,164,-1
 897 270 l 2,165,166
 897 276 897 276 893 280.5 c 128,-1,167
 889 285 889 285 882 285 c 0,155,156
882 182 m 0,168,169
 876 182 876 182 872 177.5 c 128,-1,170
 868 173 868 173 868 167 c 2,171,-1
 868 123 l 2,172,173
 868 117 868 117 872 112.5 c 128,-1,174
 876 108 876 108 882.5 108 c 128,-1,175
 889 108 889 108 893 112.5 c 128,-1,176
 897 117 897 117 897 123 c 2,177,-1
 897 167 l 2,178,179
 897 173 897 173 893 177.5 c 128,-1,180
 889 182 889 182 882 182 c 0,168,169
882 388 m 0,181,182
 876 388 876 388 872 383.5 c 128,-1,183
 868 379 868 379 868 373 c 2,184,-1
 868 329 l 2,185,186
 868 323 868 323 872 318.5 c 128,-1,187
 876 314 876 314 882.5 314 c 128,-1,188
 889 314 889 314 893 318.5 c 128,-1,189
 897 323 897 323 897 329 c 2,190,-1
 897 373 l 2,191,192
 897 379 897 379 893 383.5 c 128,-1,193
 889 388 889 388 882 388 c 0,181,182
882 79 m 0,194,195
 876 79 876 79 872 74.5 c 128,-1,196
 868 70 868 70 868 64 c 2,197,-1
 868 22 l 2,198,199
 867 16 867 16 870.5 11 c 128,-1,200
 874 6 874 6 881 5 c 2,201,-1
 882 5 l 2,202,203
 895 6 895 6 897 18 c 2,204,-1
 897 64 l 2,205,206
 897 70 897 70 893 74.5 c 128,-1,207
 889 79 889 79 882 79 c 0,194,195
882 491 m 0,208,209
 876 491 876 491 872 486.5 c 128,-1,210
 868 482 868 482 868 476 c 2,211,-1
 868 432 l 2,212,213
 868 426 868 426 872 421.5 c 128,-1,214
 876 417 876 417 882.5 417 c 128,-1,215
 889 417 889 417 893 421.5 c 128,-1,216
 897 426 897 426 897 432 c 2,217,-1
 897 476 l 2,218,219
 897 482 897 482 893 486.5 c 128,-1,220
 889 491 889 491 882 491 c 0,208,209
805 718 m 2,221,-1
 824 718 l 2,222,223
 833 718 833 718 842 714 c 0,224,225
 845 712 845 712 848 712 c 0,226,227
 857 713 857 713 862 721 c 0,228,229
 864 727 864 727 862 732.5 c 128,-1,230
 860 738 860 738 854 740 c 0,231,232
 840 747 840 747 824 747 c 2,233,-1
 805 747 l 2,234,235
 799 747 799 747 794.5 743 c 128,-1,236
 790 739 790 739 790 732.5 c 128,-1,237
 790 726 790 726 794.5 722 c 128,-1,238
 799 718 799 718 805 718 c 2,221,-1
645 -18 m 2,239,-1
 601 -18 l 2,240,241
 595 -18 595 -18 590.5 -22 c 128,-1,242
 586 -26 586 -26 586 -32.5 c 128,-1,243
 586 -39 586 -39 590.5 -43 c 128,-1,244
 595 -47 595 -47 601 -47 c 2,245,-1
 645 -47 l 2,246,247
 651 -47 651 -47 655.5 -43 c 128,-1,248
 660 -39 660 -39 660 -32.5 c 128,-1,249
 660 -26 660 -26 655.5 -22 c 128,-1,250
 651 -18 651 -18 645 -18 c 2,239,-1
843 -13 m 0,251,252
 834 -18 834 -18 824 -18 c 2,253,-1
 807 -18 l 2,254,255
 801 -18 801 -18 796.5 -22 c 128,-1,256
 792 -26 792 -26 792 -32.5 c 128,-1,257
 792 -39 792 -39 796.5 -43 c 128,-1,258
 801 -47 801 -47 807 -47 c 2,259,-1
 824 -47 l 2,260,261
 841 -47 841 -47 856 -39 c 0,262,263
 862 -36 862 -36 864 -30.5 c 128,-1,264
 866 -25 866 -25 863 -20 c 0,265,266
 856 -8 856 -8 843 -13 c 0,251,252
748 -18 m 2,267,-1
 704 -18 l 2,268,269
 698 -18 698 -18 693.5 -22 c 128,-1,270
 689 -26 689 -26 689 -32.5 c 128,-1,271
 689 -39 689 -39 693.5 -43 c 128,-1,272
 698 -47 698 -47 704 -47 c 2,273,-1
 748 -47 l 2,274,275
 754 -47 754 -47 758.5 -43 c 128,-1,276
 763 -39 763 -39 763 -32.5 c 128,-1,277
 763 -26 763 -26 758.5 -22 c 128,-1,278
 754 -18 754 -18 748 -18 c 2,267,-1
882 594 m 0,279,280
 876 594 876 594 872 589.5 c 128,-1,281
 868 585 868 585 868 579 c 2,282,-1
 868 535 l 2,283,284
 868 529 868 529 872 524.5 c 128,-1,285
 876 520 876 520 882.5 520 c 128,-1,286
 889 520 889 520 893 524.5 c 128,-1,287
 897 529 897 529 897 535 c 2,288,-1
 897 579 l 2,289,290
 897 585 897 585 893 589.5 c 128,-1,291
 889 594 889 594 882 594 c 0,279,280
397 321 m 2,292,-1
 176 321 l 2,293,294
 145 320 145 320 124.5 299.5 c 128,-1,295
 104 279 104 279 103 247 c 2,296,-1
 103 26 l 2,297,298
 104 -5 104 -5 124.5 -25.5 c 128,-1,299
 145 -46 145 -46 176 -47 c 2,300,-1
 397 -47 l 2,301,302
 429 -46 429 -46 449.5 -25.5 c 128,-1,303
 470 -5 470 -5 471 26 c 2,304,-1
 471 247 l 2,305,306
 470 279 470 279 449.5 299.5 c 128,-1,307
 429 320 429 320 397 321 c 2,292,-1
441 26 m 2,308,309
 441 8 441 8 428.5 -4.5 c 128,-1,310
 416 -17 416 -17 397 -18 c 2,311,-1
 176 -18 l 2,312,313
 158 -17 158 -17 145.5 -4.5 c 128,-1,314
 133 8 133 8 132 26 c 2,315,-1
 132 247 l 2,316,317
 133 266 133 266 145.5 278.5 c 128,-1,318
 158 291 158 291 176 291 c 2,319,-1
 397 291 l 2,320,321
 416 291 416 291 428.5 278.5 c 128,-1,322
 441 266 441 266 441 247 c 2,323,-1
 441 26 l 2,308,309
765 630 m 2,324,-1
 603 630 l 2,325,326
 597 630 597 630 592.5 625.5 c 128,-1,327
 588 621 588 621 588 615 c 128,-1,328
 588 609 588 609 592.5 604.5 c 128,-1,329
 597 600 597 600 603 600 c 2,330,-1
 729 600 l 1,331,-1
 512 383 l 2,332,333
 508 378 508 378 508 372 c 128,-1,334
 508 366 508 366 512 361.5 c 128,-1,335
 516 357 516 357 522 357 c 128,-1,336
 528 357 528 357 533 362 c 2,337,-1
 750 579 l 1,338,-1
 750 453 l 2,339,340
 750 447 750 447 754.5 442.5 c 128,-1,341
 759 438 759 438 765 438 c 128,-1,342
 771 438 771 438 775.5 442.5 c 128,-1,343
 780 447 780 447 780 453 c 2,344,-1
 780 615 l 2,345,346
 780 621 780 621 775.5 625.5 c 128,-1,347
 771 630 771 630 765 630 c 2,324,-1
EndSplineSet
EndChar

StartChar: thin-cake
Encoding: 57613 57613 14
Width: 1000
Flags: W
LayerCount: 2
Fore
SplineSet
501 524 m 0,0,1
 503 524 503 524 503 524 c 1,2,3
 537 530 537 530 552.5 545 c 128,-1,4
 568 560 568 560 572 575 c 0,5,6
 583 619 583 619 559.5 666.5 c 128,-1,7
 536 714 536 714 511 739 c 0,8,9
 504 747 504 747 494.5 741.5 c 128,-1,10
 485 736 485 736 487 725 c 0,11,12
 489 711 489 711 481.5 696.5 c 128,-1,13
 474 682 474 682 462 666 c 128,-1,14
 450 650 450 650 440.5 632.5 c 128,-1,15
 431 615 431 615 430 594 c 0,16,17
 432 553 432 553 456 538 c 128,-1,18
 480 523 480 523 501 524 c 0,0,1
486 649 m 0,19,20
 493 659 493 659 500 670 c 128,-1,21
 507 681 507 681 512 692 c 1,22,23
 529 667 529 667 540 637 c 128,-1,24
 551 607 551 607 543.5 583 c 128,-1,25
 536 559 536 559 500 553 c 0,26,27
 492 552 492 552 476.5 559.5 c 128,-1,28
 461 567 461 567 459 594 c 0,29,30
 459 607 459 607 467 621 c 128,-1,31
 475 635 475 635 486 649 c 0,19,20
882 -14 m 2,32,-1
 838 -14 l 1,33,-1
 838 295 l 2,34,35
 837 327 837 327 816.5 347.5 c 128,-1,36
 796 368 796 368 765 369 c 2,37,-1
 544 369 l 1,38,-1
 544 457 l 2,39,40
 544 476 544 476 531.5 488.5 c 128,-1,41
 519 501 519 501 500.5 501 c 128,-1,42
 482 501 482 501 469.5 488.5 c 128,-1,43
 457 476 457 476 456 457 c 2,44,-1
 456 369 l 1,45,-1
 235 369 l 2,46,47
 204 368 204 368 183.5 347.5 c 128,-1,48
 163 327 163 327 162 295 c 2,49,-1
 162 -14 l 1,50,-1
 118 -14 l 2,51,52
 104 -15 104 -15 104 -28.5 c 128,-1,53
 104 -42 104 -42 118 -43 c 2,54,-1
 882 -43 l 2,55,56
 896 -42 896 -42 896 -28.5 c 128,-1,57
 896 -15 896 -15 882 -14 c 2,32,-1
485 457 m 2,58,59
 485 463 485 463 489.5 467.5 c 128,-1,60
 494 472 494 472 500 472 c 128,-1,61
 506 472 506 472 510.5 467.5 c 128,-1,62
 515 463 515 463 515 457 c 2,63,-1
 515 369 l 1,64,-1
 485 369 l 1,65,-1
 485 457 l 2,58,59
809 -14 m 1,66,-1
 191 -14 l 1,67,-1
 191 164 l 1,68,69
 197 163 197 163 202 163 c 0,70,71
 226 164 226 164 240 174.5 c 128,-1,72
 254 185 254 185 263 197 c 128,-1,73
 272 209 272 209 280.5 215.5 c 128,-1,74
 289 222 289 222 301.5 222 c 128,-1,75
 314 222 314 222 322.5 215.5 c 128,-1,76
 331 209 331 209 340 197 c 128,-1,77
 349 185 349 185 363 174.5 c 128,-1,78
 377 164 377 164 400.5 164 c 128,-1,79
 424 164 424 164 438.5 174.5 c 128,-1,80
 453 185 453 185 462 197 c 128,-1,81
 471 209 471 209 479.5 215.5 c 128,-1,82
 488 222 488 222 500 222 c 128,-1,83
 512 222 512 222 520.5 215.5 c 128,-1,84
 529 209 529 209 538 197 c 128,-1,85
 547 185 547 185 561.5 174.5 c 128,-1,86
 576 164 576 164 599.5 164 c 128,-1,87
 623 164 623 164 637 174.5 c 128,-1,88
 651 185 651 185 660 197 c 128,-1,89
 669 209 669 209 677.5 215.5 c 128,-1,90
 686 222 686 222 698.5 222 c 128,-1,91
 711 222 711 222 719.5 215.5 c 128,-1,92
 728 209 728 209 737 197 c 128,-1,93
 746 185 746 185 760 174.5 c 128,-1,94
 774 164 774 164 798 163 c 0,95,96
 804 163 804 163 809 164 c 1,97,-1
 809 -14 l 1,66,-1
809 194 m 1,98,99
 804 192 804 192 798 192 c 0,100,101
 786 192 786 192 777 198.5 c 128,-1,102
 768 205 768 205 759 217 c 128,-1,103
 750 229 750 229 736 239.5 c 128,-1,104
 722 250 722 250 698.5 250 c 128,-1,105
 675 250 675 250 661 239.5 c 128,-1,106
 647 229 647 229 637.5 217 c 128,-1,107
 628 205 628 205 619.5 198.5 c 128,-1,108
 611 192 611 192 599 192 c 128,-1,109
 587 192 587 192 578.5 198.5 c 128,-1,110
 570 205 570 205 561 217 c 128,-1,111
 552 229 552 229 538 239.5 c 128,-1,112
 524 250 524 250 500 250 c 128,-1,113
 476 250 476 250 462 239.5 c 128,-1,114
 448 229 448 229 439 217 c 128,-1,115
 430 205 430 205 421.5 198.5 c 128,-1,116
 413 192 413 192 400.5 192 c 128,-1,117
 388 192 388 192 379.5 198.5 c 128,-1,118
 371 205 371 205 362 217 c 128,-1,119
 353 229 353 229 339 239.5 c 128,-1,120
 325 250 325 250 301.5 250 c 128,-1,121
 278 250 278 250 264 239.5 c 128,-1,122
 250 229 250 229 240.5 217 c 128,-1,123
 231 205 231 205 222.5 198.5 c 128,-1,124
 214 192 214 192 202 192 c 0,125,126
 197 192 197 192 191 194 c 1,127,-1
 191 295 l 2,128,129
 192 314 192 314 204.5 326.5 c 128,-1,130
 217 339 217 339 235 339 c 2,131,-1
 765 339 l 2,132,133
 784 339 784 339 796.5 326.5 c 128,-1,134
 809 314 809 314 809 295 c 2,135,-1
 809 194 l 1,98,99
EndSplineSet
EndChar

StartChar: thin-case
Encoding: 57614 57614 15
Width: 1000
Flags: W
LayerCount: 2
Fore
SplineSet
780 747 m 2,0,-1
 221 747 l 2,1,2
 189 746 189 746 168.5 725.5 c 128,-1,3
 148 705 148 705 147 674 c 2,4,-1
 147 -3 l 2,5,6
 148 -21 148 -21 160.5 -33.5 c 128,-1,7
 173 -46 173 -46 191 -47 c 2,8,-1
 250 -47 l 2,9,10
 269 -46 269 -46 281.5 -34 c 128,-1,11
 294 -22 294 -22 294 -4 c 0,12,13
 293 -3 293 -3 303.5 4 c 128,-1,14
 314 11 314 11 353 12 c 2,15,-1
 647 12 l 2,16,17
 686 11 686 11 696.5 4 c 128,-1,18
 707 -3 707 -3 706 -3 c 1,19,20
 707 -21 707 -21 719.5 -33.5 c 128,-1,21
 732 -46 732 -46 750 -47 c 2,22,-1
 809 -47 l 2,23,24
 828 -46 828 -46 840.5 -33.5 c 128,-1,25
 853 -21 853 -21 853 -3 c 2,26,-1
 853 674 l 2,27,28
 852 705 852 705 831.5 725.5 c 128,-1,29
 811 746 811 746 780 747 c 2,0,-1
824 71 m 1,30,-1
 824 41 l 1,31,-1
 824 -3 l 2,32,33
 824 -9 824 -9 819.5 -13.5 c 128,-1,34
 815 -18 815 -18 809 -18 c 2,35,-1
 750 -18 l 2,36,37
 744 -18 744 -18 739.5 -13.5 c 128,-1,38
 735 -9 735 -9 735 -3 c 0,39,40
 738 3 738 3 723.5 21 c 128,-1,41
 709 39 709 39 647 41 c 2,42,-1
 353 41 l 2,43,44
 291 39 291 39 276.5 21 c 128,-1,45
 262 3 262 3 265 -3 c 0,46,47
 265 -9 265 -9 260.5 -13.5 c 128,-1,48
 256 -18 256 -18 250 -18 c 2,49,-1
 191 -18 l 2,50,51
 185 -18 185 -18 180.5 -13.5 c 128,-1,52
 176 -9 176 -9 176 -3 c 2,53,-1
 176 100 l 1,54,-1
 824 100 l 1,55,-1
 824 71 l 1,30,-1
824 129 m 1,56,-1
 176 129 l 1,57,-1
 176 409 l 1,58,-1
 824 409 l 1,59,-1
 824 129 l 1,56,-1
824 438 m 1,60,-1
 176 438 l 1,61,-1
 176 674 l 2,62,63
 176 693 176 693 189 705.5 c 128,-1,64
 202 718 202 718 221 718 c 2,65,-1
 780 718 l 2,66,67
 799 718 799 718 811.5 705.5 c 128,-1,68
 824 693 824 693 824 674 c 2,69,-1
 824 438 l 1,60,-1
603 615 m 256,70,71
 597 615 597 615 592.5 610.5 c 128,-1,72
 588 606 588 606 588 600 c 2,73,-1
 588 578 l 2,74,75
 588 576 588 576 584.5 573.5 c 128,-1,76
 581 571 581 571 574 571 c 2,77,-1
 427 571 l 2,78,79
 420 571 420 571 416 573.5 c 128,-1,80
 412 576 412 576 412 578 c 2,81,-1
 412 600 l 2,82,83
 412 606 412 606 407.5 610.5 c 128,-1,84
 403 615 403 615 397 615 c 128,-1,85
 391 615 391 615 386.5 610.5 c 128,-1,86
 382 606 382 606 382 600 c 2,87,-1
 382 578 l 2,88,89
 382 563 382 563 395 552 c 128,-1,90
 408 541 408 541 427 541 c 2,91,-1
 574 541 l 2,92,93
 593 541 593 541 605.5 552 c 128,-1,94
 618 563 618 563 618 578 c 2,95,-1
 618 600 l 2,96,97
 618 606 618 606 613.5 610.5 c 128,-1,98
 609 615 609 615 603 615 c 256,70,71
427 232 m 2,99,-1
 574 232 l 2,100,101
 593 232 593 232 605.5 243 c 128,-1,102
 618 254 618 254 618 269 c 2,103,-1
 618 291 l 2,104,105
 618 297 618 297 613.5 301.5 c 128,-1,106
 609 306 609 306 603 306 c 128,-1,107
 597 306 597 306 592.5 301.5 c 128,-1,108
 588 297 588 297 588 291 c 2,109,-1
 588 269 l 2,110,111
 588 267 588 267 584.5 264.5 c 128,-1,112
 581 262 581 262 574 262 c 2,113,-1
 427 262 l 2,114,115
 420 262 420 262 416 264.5 c 128,-1,116
 412 267 412 267 412 269 c 2,117,-1
 412 291 l 2,118,119
 412 297 412 297 407.5 301.5 c 128,-1,120
 403 306 403 306 397 306 c 128,-1,121
 391 306 391 306 386.5 301.5 c 128,-1,122
 382 297 382 297 382 291 c 2,123,-1
 382 269 l 2,124,125
 382 254 382 254 395 243 c 128,-1,126
 408 232 408 232 427 232 c 2,99,-1
EndSplineSet
EndChar

StartChar: thin-address
Encoding: 57615 57615 16
Width: 1000
Flags: W
LayerCount: 2
Fore
SplineSet
897 585 m 2,0,1
 897 604 897 604 884.5 617 c 128,-1,2
 872 630 872 630 853 630 c 2,3,-1
 824 630 l 1,4,-1
 824 674 l 2,5,6
 823 705 823 705 802.5 725.5 c 128,-1,7
 782 746 782 746 750 747 c 2,8,-1
 221 747 l 2,9,10
 189 746 189 746 168.5 725.5 c 128,-1,11
 148 705 148 705 147 674 c 2,12,-1
 147 600 l 1,13,-1
 176 600 l 1,14,-1
 176 674 l 2,15,16
 176 693 176 693 189 705.5 c 128,-1,17
 202 718 202 718 221 718 c 2,18,-1
 750 718 l 2,19,20
 769 718 769 718 781.5 705.5 c 128,-1,21
 794 693 794 693 794 674 c 2,22,-1
 794 26 l 2,23,24
 794 8 794 8 781.5 -4.5 c 128,-1,25
 769 -17 769 -17 750 -18 c 2,26,-1
 221 -18 l 2,27,28
 202 -17 202 -17 189 -4.5 c 128,-1,29
 176 8 176 8 176 26 c 2,30,-1
 176 115 l 1,31,-1
 206 115 l 2,32,33
 212 115 212 115 216.5 119 c 128,-1,34
 221 123 221 123 221 129.5 c 128,-1,35
 221 136 221 136 216.5 140 c 128,-1,36
 212 144 212 144 206 144 c 2,37,-1
 118 144 l 2,38,39
 104 143 104 143 104 129.5 c 128,-1,40
 104 116 104 116 118 115 c 2,41,-1
 147 115 l 1,42,-1
 147 26 l 2,43,44
 148 -5 148 -5 168.5 -25.5 c 128,-1,45
 189 -46 189 -46 221 -47 c 2,46,-1
 750 -47 l 2,47,48
 782 -46 782 -46 802.5 -25.5 c 128,-1,49
 823 -5 823 -5 824 26 c 2,50,-1
 824 71 l 1,51,-1
 853 71 l 2,52,53
 872 71 872 71 884.5 83.5 c 128,-1,54
 897 96 897 96 897 115 c 2,55,-1
 897 232 l 2,56,57
 897 250 897 250 886 262 c 1,58,59
 897 274 897 274 897 291 c 2,60,-1
 897 409 l 2,61,62
 897 426 897 426 886 438 c 1,63,64
 897 450 897 450 897 468 c 2,65,-1
 897 585 l 2,0,1
868 115 m 2,66,67
 868 109 868 109 863.5 104.5 c 128,-1,68
 859 100 859 100 853 100 c 2,69,-1
 824 100 l 1,70,-1
 824 247 l 1,71,-1
 853 247 l 2,72,73
 859 247 859 247 863.5 242.5 c 128,-1,74
 868 238 868 238 868 232 c 2,75,-1
 868 115 l 2,66,67
868 291 m 2,76,77
 868 285 868 285 863.5 281 c 128,-1,78
 859 277 859 277 853 277 c 2,79,-1
 824 277 l 1,80,-1
 824 424 l 1,81,-1
 853 424 l 2,82,83
 859 424 859 424 863.5 419.5 c 128,-1,84
 868 415 868 415 868 409 c 2,85,-1
 868 291 l 2,76,77
868 468 m 2,86,87
 868 462 868 462 863.5 457.5 c 128,-1,88
 859 453 859 453 853 453 c 2,89,-1
 824 453 l 1,90,-1
 824 600 l 1,91,-1
 853 600 l 2,92,93
 859 600 859 600 863.5 596 c 128,-1,94
 868 592 868 592 868 585 c 2,95,-1
 868 468 l 2,86,87
118 541 m 2,96,-1
 147 541 l 1,97,-1
 147 174 l 1,98,-1
 176 174 l 1,99,-1
 176 541 l 1,100,-1
 206 541 l 2,101,102
 212 541 212 541 216.5 545.5 c 128,-1,103
 221 550 221 550 221 556 c 128,-1,104
 221 562 221 562 216.5 566.5 c 128,-1,105
 212 571 212 571 206 571 c 2,106,-1
 118 571 l 2,107,108
 111 571 111 571 107 566.5 c 128,-1,109
 103 562 103 562 103 556 c 128,-1,110
 103 550 103 550 107 545.5 c 128,-1,111
 111 541 111 541 118 541 c 2,96,-1
526 452 m 1,112,113
 505 459 505 459 472 453 c 128,-1,114
 439 447 439 447 415 412 c 0,115,116
 391 370 391 370 403 334 c 0,117,118
 413 305 413 305 440 294 c 0,119,120
 462 285 462 285 483 297 c 0,121,122
 503 308 503 308 516 331 c 1,123,124
 519 325 519 325 524 319 c 0,125,126
 534 306 534 306 550.5 300.5 c 128,-1,127
 567 295 567 295 585 299 c 0,128,129
 598 301 598 301 615 316 c 128,-1,130
 632 331 632 331 642 369 c 0,131,132
 649 401 649 401 642 429.5 c 128,-1,133
 635 458 635 458 615 481 c 0,134,135
 588 510 588 510 548 522.5 c 128,-1,136
 508 535 508 535 463 529 c 0,137,138
 390 518 390 518 351 461 c 0,139,140
 330 430 330 430 324 392 c 128,-1,141
 318 354 318 354 328.5 313 c 128,-1,142
 339 272 339 272 369.5 243.5 c 128,-1,143
 400 215 400 215 445 203 c 0,144,145
 466 198 466 198 488 198 c 0,146,147
 524 198 524 198 556.5 212 c 128,-1,148
 589 226 589 226 613 253 c 0,149,150
 617 258 617 258 616.5 263.5 c 128,-1,151
 616 269 616 269 611.5 273.5 c 128,-1,152
 607 278 607 278 601 277.5 c 128,-1,153
 595 277 595 277 591 272 c 0,154,155
 565 244 565 244 528.5 233.5 c 128,-1,156
 492 223 492 223 452 232 c 0,157,158
 415 241 415 241 390.5 264.5 c 128,-1,159
 366 288 366 288 357 321.5 c 128,-1,160
 348 355 348 355 353 387 c 128,-1,161
 358 419 358 419 375 445 c 0,162,163
 407 491 407 491 466 500 c 0,164,165
 505 505 505 505 538 494.5 c 128,-1,166
 571 484 571 484 593 461 c 0,167,168
 625 426 625 426 613 376 c 0,169,170
 603 335 603 335 578 328 c 0,171,172
 568 326 568 326 559.5 329.5 c 128,-1,173
 551 333 551 333 546 338 c 0,174,175
 532 358 532 358 532 388.5 c 128,-1,176
 532 419 532 419 536 435 c 1,177,-1
 526 452 l 1,112,113
503 380 m 0,178,179
 501 377 501 377 500 373 c 0,180,181
 497 357 497 357 488.5 343 c 128,-1,182
 480 329 480 329 469 323 c 0,183,184
 460 318 460 318 451 321 c 0,185,186
 436 328 436 328 431 343 c 0,187,188
 424 366 424 366 440 397 c 0,189,190
 452 415 452 415 467.5 421 c 128,-1,191
 483 427 483 427 497 427 c 2,192,-1
 505 426 l 1,193,194
 502 408 502 408 503 380 c 0,178,179
EndSplineSet
EndChar

StartChar: thin-phone-support
Encoding: 57616 57616 17
Width: 1000
Flags: W
LayerCount: 2
Fore
SplineSet
724 98 m 2,0,-1
 584 194 l 2,1,2
 568 204 568 204 550.5 201 c 128,-1,3
 533 198 533 198 522 184 c 2,4,-1
 486 132 l 2,5,6
 482 128 482 128 481 122 c 1,7,8
 473 116 473 116 455 115 c 0,9,10
 440 114 440 114 414 126.5 c 128,-1,11
 388 139 388 139 351 175 c 0,12,13
 292 235 292 235 280.5 268 c 128,-1,14
 269 301 269 301 279 321 c 0,15,16
 283 322 283 322 286 325 c 2,17,-1
 337 363 l 2,18,19
 351 375 351 375 353 392.5 c 128,-1,20
 355 410 355 410 345 426 c 2,21,-1
 245 562 l 2,22,23
 213 604 213 604 174 571 c 0,24,25
 161 560 161 560 146 540.5 c 128,-1,26
 131 521 131 521 122 505.5 c 128,-1,27
 113 490 113 490 114 473 c 1,28,29
 88 333 88 333 148.5 230.5 c 128,-1,30
 209 128 209 128 251 93 c 0,31,32
 343 8 343 8 422 -20.5 c 128,-1,33
 501 -49 501 -49 556 -47 c 1,34,35
 556 -47 556 -47 556 -47 c 1,36,37
 588 -47 588 -47 609.5 -43 c 128,-1,38
 631 -39 631 -39 641 -34 c 1,39,40
 657 -35 657 -35 672 -26 c 128,-1,41
 687 -17 687 -17 705.5 -1 c 128,-1,42
 724 15 724 15 735 28 c 0,43,44
 751 48 751 48 748 66 c 128,-1,45
 745 84 745 84 724 98 c 2,0,-1
712 47 m 0,46,47
 703 36 703 36 686 21.5 c 128,-1,48
 669 7 669 7 657 -1 c 0,49,50
 648 -7 648 -7 640 -5 c 0,51,52
 636 -5 636 -5 631 -7.5 c 128,-1,53
 626 -10 626 -10 607 -14.5 c 128,-1,54
 588 -19 588 -19 556 -19 c 1,55,-1
 556 -19 l 1,56,57
 505 -21 505 -21 431 6.5 c 128,-1,58
 357 34 357 34 271 114 c 0,59,60
 232 146 232 146 175.5 242 c 128,-1,61
 119 338 119 338 144 469 c 1,62,-1
 144 474 l 2,63,64
 142 483 142 483 148 492 c 0,65,66
 156 505 156 505 169.5 522.5 c 128,-1,67
 183 540 183 540 193 549 c 0,68,69
 202 556 202 556 206.5 556 c 128,-1,70
 211 556 211 556 214.5 552.5 c 128,-1,71
 218 549 218 549 221 545 c 2,72,-1
 321 408 l 2,73,74
 325 402 325 402 324.5 396 c 128,-1,75
 324 390 324 390 319 387 c 2,76,-1
 268 348 l 1,77,-1
 265 347 l 2,78,79
 258 345 258 345 255 339 c 0,80,81
 237 305 237 305 250.5 263 c 128,-1,82
 264 221 264 221 331 153.5 c 128,-1,83
 398 86 398 86 455 86 c 0,84,85
 474 86 474 86 486 91.5 c 128,-1,86
 498 97 498 97 503 102 c 128,-1,87
 508 107 508 107 508 110.5 c 128,-1,88
 508 114 508 114 510 115 c 2,89,-1
 546 167 l 2,90,91
 549 172 549 172 555.5 172.5 c 128,-1,92
 562 173 562 173 568 170 c 2,93,-1
 707 74 l 2,94,95
 718 67 718 67 718.5 61.5 c 128,-1,96
 719 56 719 56 712 47 c 0,46,47
478 408 m 0,97,98
 458 396 458 396 442 380.5 c 128,-1,99
 426 365 426 365 425 340 c 2,100,-1
 425 321 l 2,101,102
 426 307 426 307 439 306 c 2,103,-1
 542 306 l 2,104,105
 548 306 548 306 552.5 310 c 128,-1,106
 557 314 557 314 557 320.5 c 128,-1,107
 557 327 557 327 552.5 331 c 128,-1,108
 548 335 548 335 542 335 c 2,109,-1
 454 335 l 1,110,-1
 454 340 l 2,111,112
 454 352 454 352 464.5 361.5 c 128,-1,113
 475 371 475 371 494 383 c 0,114,115
 516 395 516 395 536 414.5 c 128,-1,116
 556 434 556 434 557 468 c 0,117,118
 557 494 557 494 539 510 c 0,119,120
 529 520 529 520 514 524 c 128,-1,121
 499 528 499 528 482 526 c 0,122,123
 455 522 455 522 441 507.5 c 128,-1,124
 427 493 427 493 426 490 c 0,125,126
 422 477 422 477 432 470 c 0,127,128
 437 467 437 467 443 468.5 c 128,-1,129
 449 470 449 470 452 475 c 0,130,131
 452 476 452 476 460.5 485 c 128,-1,132
 469 494 469 494 485 497 c 0,133,134
 508 498 508 498 519 489 c 0,135,136
 528 482 528 482 528 468 c 0,137,138
 528 448 528 448 514.5 435 c 128,-1,139
 501 422 501 422 478 408 c 0,97,98
680 511 m 0,140,141
 671 514 671 514 664 507 c 2,142,-1
 575 404 l 2,143,144
 572 400 572 400 572 394 c 2,145,-1
 572 379 l 2,146,147
 573 366 573 366 586 365 c 2,148,-1
 660 365 l 1,149,-1
 660 321 l 2,150,151
 660 314 660 314 664.5 310 c 128,-1,152
 669 306 669 306 675 306 c 0,153,154
 688 307 688 307 689 321 c 2,155,-1
 689 365 l 1,156,-1
 704 365 l 2,157,158
 710 365 710 365 714.5 369 c 128,-1,159
 719 373 719 373 719 379.5 c 128,-1,160
 719 386 719 386 714.5 390 c 128,-1,161
 710 394 710 394 704 394 c 2,162,-1
 689 394 l 1,163,-1
 689 497 l 2,164,165
 689 507 689 507 680 511 c 0,140,141
660 394 m 1,166,-1
 606 394 l 1,167,-1
 660 457 l 1,168,-1
 660 394 l 1,166,-1
876 143 m 2,169,-1
 827 127 l 1,170,171
 860 176 860 176 877.5 233 c 128,-1,172
 895 290 895 290 895 350 c 0,173,174
 891 519 891 519 779 631 c 128,-1,175
 667 743 667 743 498 747 c 0,176,177
 421 747 421 747 351 719 c 128,-1,178
 281 691 281 691 224 638 c 0,179,180
 220 633 220 633 220 627.5 c 128,-1,181
 220 622 220 622 224 617.5 c 128,-1,182
 228 613 228 613 234 612.5 c 128,-1,183
 240 612 240 612 245 616 c 0,184,185
 297 666 297 666 361.5 692 c 128,-1,186
 426 718 426 718 498 718 c 0,187,188
 654 714 654 714 758 610 c 128,-1,189
 862 506 862 506 866 350 c 0,190,191
 866 293 866 293 849 240 c 128,-1,192
 832 187 832 187 800 141 c 1,193,-1
 792 191 l 2,194,195
 791 197 791 197 786 200.5 c 128,-1,196
 781 204 781 204 775 203 c 0,197,198
 762 199 762 199 763 186 c 2,199,-1
 778 98 l 2,200,201
 779 91 779 91 785 87 c 0,202,203
 789 85 789 85 792 85 c 2,204,-1
 797 86 l 1,205,-1
 885 115 l 2,206,207
 898 121 898 121 895 134 c 0,208,209
 889 147 889 147 876 143 c 2,169,-1
EndSplineSet
EndChar

StartChar: thin-fullscreen
Encoding: 57617 57617 18
Width: 1000
Flags: W
LayerCount: 2
Fore
SplineSet
118 136 m 0,0,1
 124 136 124 136 128 140.5 c 128,-1,2
 132 145 132 145 132 151 c 2,3,-1
 132 195 l 2,4,5
 132 201 132 201 128 205.5 c 128,-1,6
 124 210 124 210 117.5 210 c 128,-1,7
 111 210 111 210 107 205.5 c 128,-1,8
 103 201 103 201 103 195 c 2,9,-1
 103 151 l 2,10,11
 103 145 103 145 107 140.5 c 128,-1,12
 111 136 111 136 118 136 c 0,0,1
118 242 m 0,13,14
 124 242 124 242 128 246.5 c 128,-1,15
 132 251 132 251 132 257 c 2,16,-1
 132 301 l 2,17,18
 132 307 132 307 128 311.5 c 128,-1,19
 124 316 124 316 117.5 316 c 128,-1,20
 111 316 111 316 107 311.5 c 128,-1,21
 103 307 103 307 103 301 c 2,22,-1
 103 257 l 2,23,24
 103 251 103 251 107 246.5 c 128,-1,25
 111 242 111 242 118 242 c 0,13,14
118 348 m 0,26,27
 124 348 124 348 128 352.5 c 128,-1,28
 132 357 132 357 132 363 c 2,29,-1
 132 407 l 2,30,31
 132 413 132 413 128 417.5 c 128,-1,32
 124 422 124 422 117.5 422 c 128,-1,33
 111 422 111 422 107 417.5 c 128,-1,34
 103 413 103 413 103 407 c 2,35,-1
 103 363 l 2,36,37
 103 357 103 357 107 352.5 c 128,-1,38
 111 348 111 348 118 348 c 0,26,27
132 45 m 2,39,-1
 132 89 l 2,40,41
 132 95 132 95 128 99.5 c 128,-1,42
 124 104 124 104 117.5 104 c 128,-1,43
 111 104 111 104 107 99.5 c 128,-1,44
 103 95 103 95 103 89 c 2,45,-1
 103 45 l 2,46,47
 103 39 103 39 107 34.5 c 128,-1,48
 111 30 111 30 117.5 30 c 128,-1,49
 124 30 124 30 128 34.5 c 128,-1,50
 132 39 132 39 132 45 c 2,39,-1
173 -18 m 0,51,52
 155 -16 155 -16 144 -3 c 0,53,54
 139 2 139 2 133.5 2 c 128,-1,55
 128 2 128 2 123 -2 c 128,-1,56
 118 -6 118 -6 118 -12 c 128,-1,57
 118 -18 118 -18 122 -23 c 0,58,59
 141 -44 141 -44 170 -47 c 2,60,-1
 171 -47 l 2,61,62
 184 -46 184 -46 186 -34 c 0,63,64
 187 -27 187 -27 183 -22.5 c 128,-1,65
 179 -18 179 -18 173 -18 c 0,51,52
277 -18 m 2,66,-1
 233 -18 l 2,67,68
 227 -18 227 -18 222.5 -22 c 128,-1,69
 218 -26 218 -26 218 -32.5 c 128,-1,70
 218 -39 218 -39 222.5 -43 c 128,-1,71
 227 -47 227 -47 233 -47 c 2,72,-1
 277 -47 l 2,73,74
 283 -47 283 -47 287.5 -43 c 128,-1,75
 292 -39 292 -39 292 -32.5 c 128,-1,76
 292 -26 292 -26 287.5 -22 c 128,-1,77
 283 -18 283 -18 277 -18 c 2,66,-1
249 732 m 0,78,79
 249 739 249 739 244.5 743 c 128,-1,80
 240 747 240 747 234 747 c 2,81,-1
 190 747 l 2,82,83
 184 747 184 747 179.5 743 c 128,-1,84
 175 739 175 739 175 732.5 c 128,-1,85
 175 726 175 726 179.5 722 c 128,-1,86
 184 718 184 718 190 718 c 2,87,-1
 234 718 l 2,88,89
 240 718 240 718 244.5 722 c 128,-1,90
 249 726 249 726 249 732 c 0,78,79
296 718 m 2,91,-1
 340 718 l 2,92,93
 346 718 346 718 350.5 722 c 128,-1,94
 355 726 355 726 355 732.5 c 128,-1,95
 355 739 355 739 350.5 743 c 128,-1,96
 346 747 346 747 340 747 c 2,97,-1
 296 747 l 2,98,99
 290 747 290 747 285.5 743 c 128,-1,100
 281 739 281 739 281 732.5 c 128,-1,101
 281 726 281 726 285.5 722 c 128,-1,102
 290 718 290 718 296 718 c 2,91,-1
118 454 m 0,103,104
 124 454 124 454 128 458.5 c 128,-1,105
 132 463 132 463 132 469 c 2,106,-1
 132 513 l 2,107,108
 132 519 132 519 128 523.5 c 128,-1,109
 124 528 124 528 117.5 528 c 128,-1,110
 111 528 111 528 107 523.5 c 128,-1,111
 103 519 103 519 103 513 c 2,112,-1
 103 469 l 2,113,114
 103 463 103 463 107 458.5 c 128,-1,115
 111 454 111 454 118 454 c 0,103,104
614 718 m 2,116,-1
 658 718 l 2,117,118
 671 719 671 719 672 732 c 0,119,120
 671 746 671 746 658 747 c 2,121,-1
 614 747 l 2,122,123
 600 746 600 746 600 732.5 c 128,-1,124
 600 719 600 719 614 718 c 2,116,-1
719 718 m 2,125,-1
 764 718 l 2,126,127
 777 719 777 719 778 732 c 0,128,129
 777 746 777 746 764 747 c 2,130,-1
 719 747 l 2,131,132
 706 746 706 746 705 732 c 0,133,134
 706 719 706 719 719 718 c 2,125,-1
402 718 m 2,135,-1
 446 718 l 2,136,137
 452 718 452 718 456.5 722 c 128,-1,138
 461 726 461 726 461 732.5 c 128,-1,139
 461 739 461 739 456.5 743 c 128,-1,140
 452 747 452 747 446 747 c 2,141,-1
 402 747 l 2,142,143
 396 747 396 747 391.5 743 c 128,-1,144
 387 739 387 739 387 732.5 c 128,-1,145
 387 726 387 726 391.5 722 c 128,-1,146
 396 718 396 718 402 718 c 2,135,-1
383 -18 m 2,147,-1
 339 -18 l 2,148,149
 333 -18 333 -18 328.5 -22 c 128,-1,150
 324 -26 324 -26 324 -32.5 c 128,-1,151
 324 -39 324 -39 328.5 -43 c 128,-1,152
 333 -47 333 -47 339 -47 c 2,153,-1
 383 -47 l 2,154,155
 389 -47 389 -47 393.5 -43 c 128,-1,156
 398 -39 398 -39 398 -32.5 c 128,-1,157
 398 -26 398 -26 393.5 -22 c 128,-1,158
 389 -18 389 -18 383 -18 c 2,147,-1
118 560 m 0,159,160
 124 560 124 560 128 564.5 c 128,-1,161
 132 569 132 569 132 575 c 2,162,-1
 132 619 l 2,163,164
 132 625 132 625 128 629.5 c 128,-1,165
 124 634 124 634 117.5 634 c 128,-1,166
 111 634 111 634 107 629.5 c 128,-1,167
 103 625 103 625 103 619 c 2,168,-1
 103 575 l 2,169,170
 103 569 103 569 107 564.5 c 128,-1,171
 111 560 111 560 118 560 c 0,159,160
118 659 m 0,172,173
 124 659 124 659 128 663.5 c 128,-1,174
 132 668 132 668 132 674 c 0,175,176
 133 691 133 691 144 704 c 0,177,178
 148 709 148 709 148 714.5 c 128,-1,179
 148 720 148 720 143.5 724.5 c 128,-1,180
 139 729 139 729 133 729 c 128,-1,181
 127 729 127 729 123 724 c 0,182,183
 103 702 103 702 103 674 c 0,184,185
 103 668 103 668 107 663.5 c 128,-1,186
 111 659 111 659 118 659 c 0,172,173
882 461 m 0,187,188
 869 460 869 460 868 447 c 2,189,-1
 868 402 l 2,190,191
 869 389 869 389 882 388 c 0,192,193
 896 389 896 389 897 402 c 2,194,-1
 897 447 l 2,195,196
 896 460 896 460 882 461 c 0,187,188
882 144 m 0,197,198
 876 144 876 144 872 139.5 c 128,-1,199
 868 135 868 135 868 129 c 2,200,-1
 868 85 l 2,201,202
 868 79 868 79 872 74.5 c 128,-1,203
 876 70 876 70 882.5 70 c 128,-1,204
 889 70 889 70 893 74.5 c 128,-1,205
 897 79 897 79 897 85 c 2,206,-1
 897 129 l 2,207,208
 897 135 897 135 893 139.5 c 128,-1,209
 889 144 889 144 882 144 c 0,197,198
883 38 m 0,210,211
 877 38 877 38 872.5 34 c 128,-1,212
 868 30 868 30 868 24 c 0,213,214
 866 7 866 7 854 -6 c 0,215,216
 850 -10 850 -10 850 -15.5 c 128,-1,217
 850 -21 850 -21 854 -26 c 128,-1,218
 858 -31 858 -31 864.5 -31 c 128,-1,219
 871 -31 871 -31 874 -27 c 0,220,221
 895 -6 895 -6 897 22 c 0,222,223
 898 28 898 28 893.5 32.5 c 128,-1,224
 889 37 889 37 883 38 c 0,210,211
882 249 m 0,225,226
 869 248 869 248 868 235 c 2,227,-1
 868 191 l 2,228,229
 868 185 868 185 872 180.5 c 128,-1,230
 876 176 876 176 882.5 176 c 128,-1,231
 889 176 889 176 893 180.5 c 128,-1,232
 897 185 897 185 897 191 c 2,233,-1
 897 235 l 2,234,235
 896 248 896 248 882 249 c 0,225,226
882 567 m 0,236,237
 869 566 869 566 868 553 c 2,238,-1
 868 508 l 2,239,240
 869 495 869 495 882 494 c 0,241,242
 896 495 896 495 897 508 c 2,243,-1
 897 553 l 2,244,245
 896 566 896 566 882 567 c 0,236,237
882 673 m 0,246,247
 869 672 869 672 868 658 c 2,248,-1
 868 614 l 2,249,250
 869 601 869 601 882 600 c 0,251,252
 896 601 896 601 897 614 c 2,253,-1
 897 658 l 2,254,255
 896 672 896 672 882 673 c 0,246,247
865 701 m 0,256,257
 872 701 872 701 875 705 c 0,258,259
 884 716 884 716 875 726 c 0,260,261
 854 746 854 746 826 747 c 0,262,263
 820 747 820 747 815.5 743 c 128,-1,264
 811 739 811 739 810.5 733 c 128,-1,265
 810 727 810 727 814.5 722.5 c 128,-1,266
 819 718 819 718 825 718 c 0,267,268
 842 717 842 717 855 705 c 0,269,270
 859 701 859 701 865 701 c 0,256,257
882 355 m 0,271,272
 869 354 869 354 868 341 c 2,273,-1
 868 297 l 2,274,275
 869 283 869 283 882.5 283 c 128,-1,276
 896 283 896 283 897 297 c 2,277,-1
 897 341 l 2,278,279
 896 354 896 354 882 355 c 0,271,272
567 732 m 0,280,281
 567 739 567 739 562.5 743 c 128,-1,282
 558 747 558 747 552 747 c 2,283,-1
 508 747 l 2,284,285
 502 747 502 747 497.5 743 c 128,-1,286
 493 739 493 739 493 732.5 c 128,-1,287
 493 726 493 726 497.5 722 c 128,-1,288
 502 718 502 718 508 718 c 2,289,-1
 552 718 l 2,290,291
 558 718 558 718 562.5 722 c 128,-1,292
 567 726 567 726 567 732 c 0,280,281
489 -18 m 2,293,-1
 445 -18 l 2,294,295
 439 -18 439 -18 434.5 -22 c 128,-1,296
 430 -26 430 -26 430 -32.5 c 128,-1,297
 430 -39 430 -39 434.5 -43 c 128,-1,298
 439 -47 439 -47 445 -47 c 2,299,-1
 489 -47 l 2,300,301
 495 -47 495 -47 499.5 -43 c 128,-1,302
 504 -39 504 -39 504 -32.5 c 128,-1,303
 504 -26 504 -26 499.5 -22 c 128,-1,304
 495 -18 495 -18 489 -18 c 2,293,-1
595 -18 m 2,305,-1
 551 -18 l 2,306,307
 545 -18 545 -18 540.5 -22 c 128,-1,308
 536 -26 536 -26 536 -32.5 c 128,-1,309
 536 -39 536 -39 540.5 -43 c 128,-1,310
 545 -47 545 -47 551 -47 c 2,311,-1
 595 -47 l 2,312,313
 601 -47 601 -47 605.5 -43 c 128,-1,314
 610 -39 610 -39 610 -32.5 c 128,-1,315
 610 -26 610 -26 605.5 -22 c 128,-1,316
 601 -18 601 -18 595 -18 c 2,305,-1
701 -18 m 2,317,-1
 657 -18 l 2,318,319
 651 -18 651 -18 646.5 -22 c 128,-1,320
 642 -26 642 -26 642 -32.5 c 128,-1,321
 642 -39 642 -39 646.5 -43 c 128,-1,322
 651 -47 651 -47 657 -47 c 2,323,-1
 701 -47 l 2,324,325
 714 -46 714 -46 715 -32 c 0,326,327
 714 -19 714 -19 701 -18 c 2,317,-1
807 -18 m 2,328,-1
 763 -18 l 2,329,330
 749 -19 749 -19 749 -32.5 c 128,-1,331
 749 -46 749 -46 763 -47 c 2,332,-1
 807 -47 l 2,333,334
 820 -46 820 -46 821 -32 c 0,335,336
 820 -19 820 -19 807 -18 c 2,328,-1
401 272 m 2,337,-1
 250 121 l 1,338,-1
 250 247 l 2,339,340
 250 253 250 253 245.5 257.5 c 128,-1,341
 241 262 241 262 235 262 c 128,-1,342
 229 262 229 262 225 257.5 c 128,-1,343
 221 253 221 253 221 247 c 2,344,-1
 221 85 l 2,345,346
 222 72 222 72 235 71 c 2,347,-1
 397 71 l 2,348,349
 403 71 403 71 407.5 75 c 128,-1,350
 412 79 412 79 412 85 c 128,-1,351
 412 91 412 91 407.5 95.5 c 128,-1,352
 403 100 403 100 397 100 c 2,353,-1
 271 100 l 1,354,-1
 422 251 l 2,355,356
 431 262 431 262 421.5 271.5 c 128,-1,357
 412 281 412 281 401 272 c 2,337,-1
729 100 m 1,358,-1
 603 100 l 2,359,360
 597 100 597 100 592.5 95.5 c 128,-1,361
 588 91 588 91 588 85 c 128,-1,362
 588 79 588 79 592.5 75 c 128,-1,363
 597 71 597 71 603 71 c 2,364,-1
 765 71 l 2,365,366
 771 71 771 71 775.5 75 c 128,-1,367
 780 79 780 79 780 85 c 2,368,-1
 780 247 l 2,369,370
 780 253 780 253 775.5 257.5 c 128,-1,371
 771 262 771 262 765 262 c 128,-1,372
 759 262 759 262 754.5 257.5 c 128,-1,373
 750 253 750 253 750 247 c 2,374,-1
 750 121 l 1,375,-1
 599 272 l 2,376,377
 589 281 589 281 579 271.5 c 128,-1,378
 569 262 569 262 578 251 c 2,379,-1
 729 100 l 1,358,-1
271 600 m 1,380,-1
 397 600 l 2,381,382
 403 600 403 600 407.5 604.5 c 128,-1,383
 412 609 412 609 412 615 c 128,-1,384
 412 621 412 621 407.5 625.5 c 128,-1,385
 403 630 403 630 397 630 c 2,386,-1
 235 630 l 2,387,388
 229 630 229 630 225 625.5 c 128,-1,389
 221 621 221 621 221 615 c 2,390,-1
 221 453 l 2,391,392
 221 447 221 447 225 442.5 c 128,-1,393
 229 438 229 438 235 438 c 128,-1,394
 241 438 241 438 245.5 442.5 c 128,-1,395
 250 447 250 447 250 453 c 2,396,-1
 250 579 l 1,397,-1
 401 428 l 2,398,399
 406 424 406 424 412 424 c 128,-1,400
 418 424 418 424 422 428 c 0,401,402
 431 439 431 439 422 449 c 2,403,-1
 271 600 l 1,380,-1
588 424 m 0,404,405
 594 424 594 424 599 428 c 2,406,-1
 750 579 l 1,407,-1
 750 453 l 2,408,409
 750 447 750 447 754.5 442.5 c 128,-1,410
 759 438 759 438 765 438 c 128,-1,411
 771 438 771 438 775.5 442.5 c 128,-1,412
 780 447 780 447 780 453 c 2,413,-1
 780 615 l 2,414,415
 780 621 780 621 775.5 625.5 c 128,-1,416
 771 630 771 630 765 630 c 2,417,-1
 603 630 l 2,418,419
 597 630 597 630 592.5 625.5 c 128,-1,420
 588 621 588 621 588 615 c 128,-1,421
 588 609 588 609 592.5 604.5 c 128,-1,422
 597 600 597 600 603 600 c 2,423,-1
 729 600 l 1,424,-1
 578 449 l 2,425,426
 569 439 569 439 578 428 c 0,427,428
 583 424 583 424 588 424 c 0,404,405
EndSplineSet
EndChar

StartChar: thin-db
Encoding: 57618 57618 19
Width: 1000
Flags: W
LayerCount: 2
Fore
SplineSet
838 624 m 2,0,1
 837 671 837 671 751.5 708.5 c 128,-1,2
 666 746 666 746 501 748 c 0,3,4
 373 748 373 748 271.5 716.5 c 128,-1,5
 170 685 170 685 164 626 c 1,6,-1
 164 623 l 2,7,8
 162 620 162 620 162 615 c 2,9,-1
 162 77 l 1,10,11
 168 18 168 18 269 -14.5 c 128,-1,12
 370 -47 370 -47 500.5 -47.5 c 128,-1,13
 631 -48 631 -48 732 -18 c 128,-1,14
 833 12 833 12 838 71 c 1,15,-1
 838 624 l 2,0,1
809 71 m 2,16,17
 807 38 807 38 723 10.5 c 128,-1,18
 639 -17 639 -17 500 -19 c 0,19,20
 365 -17 365 -17 279.5 12 c 128,-1,21
 194 41 194 41 191 77 c 2,22,-1
 191 200 l 1,23,24
 235 165 235 165 320 146.5 c 128,-1,25
 405 128 405 128 500.5 128 c 128,-1,26
 596 128 596 128 680.5 145.5 c 128,-1,27
 765 163 765 163 809 198 c 1,28,-1
 809 71 l 2,16,17
809 250 m 2,29,30
 807 215 807 215 723 187 c 128,-1,31
 639 159 639 159 501 157 c 0,32,33
 363 159 363 159 279 187 c 128,-1,34
 195 215 195 215 193 250 c 0,35,36
 193 254 193 254 191 257 c 2,37,-1
 191 391 l 1,38,39
 235 356 235 356 320 337.5 c 128,-1,40
 405 319 405 319 500.5 319 c 128,-1,41
 596 319 596 319 680.5 336.5 c 128,-1,42
 765 354 765 354 809 389 c 1,43,-1
 809 250 l 2,29,30
809 441 m 2,44,45
 807 406 807 406 723 378 c 128,-1,46
 639 350 639 350 501 348 c 0,47,48
 363 350 363 350 279 378 c 128,-1,49
 195 406 195 406 193 441 c 0,50,51
 193 445 193 445 191 448 c 2,52,-1
 191 575 l 1,53,54
 235 540 235 540 320 521.5 c 128,-1,55
 405 503 405 503 500.5 503 c 128,-1,56
 596 503 596 503 680.5 520.5 c 128,-1,57
 765 538 765 538 809 573 c 1,58,-1
 809 441 l 2,44,45
501 533 m 0,59,60
 363 535 363 535 279 563 c 128,-1,61
 195 591 195 591 193 626 c 0,62,63
 195 661 195 661 279 689 c 128,-1,64
 363 717 363 717 501 719 c 0,65,66
 636 717 636 717 721 688 c 128,-1,67
 806 659 806 659 809 624 c 1,68,69
 807 590 807 590 723 562.5 c 128,-1,70
 639 535 639 535 501 533 c 0,59,60
673 424 m 0,71,72
 674 424 674 424 674 424 c 2,73,74
 693 426 693 426 713.5 431.5 c 128,-1,75
 734 437 734 437 747 444 c 0,76,77
 752 446 752 446 754 452 c 128,-1,78
 756 458 756 458 753 464 c 0,79,80
 746 475 746 475 733 470 c 0,81,82
 723 465 723 465 705 460.5 c 128,-1,83
 687 456 687 456 671 454 c 0,84,85
 665 453 665 453 661 448 c 128,-1,86
 657 443 657 443 658 437 c 0,87,88
 660 425 660 425 673 424 c 0,71,72
673 240 m 0,89,90
 674 240 674 240 674 240 c 2,91,92
 693 242 693 242 713.5 247.5 c 128,-1,93
 734 253 734 253 746 260 c 128,-1,94
 758 267 758 267 753 280 c 0,95,96
 746 291 746 291 733 286 c 0,97,98
 723 281 723 281 705 276.5 c 128,-1,99
 687 272 687 272 671 270 c 0,100,101
 665 269 665 269 661 264 c 128,-1,102
 657 259 657 259 658 253 c 0,103,104
 660 241 660 241 673 240 c 0,89,90
673 50 m 0,105,106
 674 50 674 50 674 50 c 2,107,108
 693 52 693 52 713.5 57.5 c 128,-1,109
 734 63 734 63 747 69 c 0,110,111
 752 72 752 72 754 78 c 128,-1,112
 756 84 756 84 753 89 c 0,113,114
 746 100 746 100 733 96 c 0,115,116
 723 91 723 91 705 86 c 128,-1,117
 687 81 687 81 671 79 c 0,118,119
 665 78 665 78 661 73.5 c 128,-1,120
 657 69 657 69 658 63 c 0,121,122
 660 51 660 51 673 50 c 0,105,106
EndSplineSet
EndChar

StartChar: thin-music
Encoding: 57619 57619 20
Width: 1000
Flags: W
LayerCount: 2
Fore
SplineSet
852 741 m 0,0,1
 844 741 844 741 835 736 c 0,2,3
 832 733 832 733 775.5 714 c 128,-1,4
 719 695 719 695 632 692 c 0,5,6
 532 691 532 691 478 681.5 c 128,-1,7
 424 672 424 672 421 670 c 0,8,9
 404 665 404 665 393 650.5 c 128,-1,10
 382 636 382 636 382 619 c 2,11,-1
 382 50 l 2,12,13
 381 25 381 25 347.5 7.5 c 128,-1,14
 314 -10 314 -10 265 -10 c 128,-1,15
 216 -10 216 -10 182 7.5 c 128,-1,16
 148 25 148 25 147 50 c 0,17,18
 148 76 148 76 182 93.5 c 128,-1,19
 216 111 216 111 265 112 c 0,20,21
 301 112 301 112 330 101 c 0,22,23
 343 97 343 97 348 110 c 128,-1,24
 353 123 353 123 340 129 c 0,25,26
 306 141 306 141 265 141 c 0,27,28
 201 140 201 140 160 114.5 c 128,-1,29
 119 89 119 89 118 50 c 0,30,31
 119 11 119 11 160 -14.5 c 128,-1,32
 201 -40 201 -40 264.5 -40 c 128,-1,33
 328 -40 328 -40 369.5 -14.5 c 128,-1,34
 411 11 411 11 412 50 c 2,35,-1
 412 481 l 1,36,-1
 414 481 l 2,37,38
 422 481 422 481 430 484 c 0,39,40
 431 487 431 487 483.5 500.5 c 128,-1,41
 536 514 536 514 632 516 c 0,42,43
 760 518 760 518 806 529.5 c 128,-1,44
 852 541 852 541 853 545 c 0,45,46
 853 546 853 546 853 546 c 1,47,-1
 853 139 l 2,48,49
 852 113 852 113 818 96.5 c 128,-1,50
 784 80 784 80 735 80 c 128,-1,51
 686 80 686 80 652.5 98 c 128,-1,52
 619 116 619 116 618 142 c 0,53,54
 619 168 619 168 652.5 187 c 128,-1,55
 686 206 686 206 735 207 c 1,56,57
 735 207 735 207 735 207 c 1,58,59
 752 207 752 207 767 203.5 c 128,-1,60
 782 200 782 200 796 195 c 0,61,62
 802 193 802 193 807 195 c 128,-1,63
 812 197 812 197 814 202.5 c 128,-1,64
 816 208 816 208 813.5 214 c 128,-1,65
 811 220 811 220 805 222 c 0,66,67
 789 227 789 227 771.5 231.5 c 128,-1,68
 754 236 754 236 735 236 c 1,69,70
 735 236 735 236 735 236 c 1,71,72
 672 235 672 235 631 208 c 128,-1,73
 590 181 590 181 588 142 c 0,74,75
 590 103 590 103 631 76 c 128,-1,76
 672 49 672 49 735.5 49 c 128,-1,77
 799 49 799 49 840 74.5 c 128,-1,78
 881 100 881 100 882 139 c 2,79,-1
 882 707 l 2,80,81
 882 722 882 722 874 731.5 c 128,-1,82
 866 741 866 741 852 741 c 0,0,1
836 570 m 1,83,84
 838 568 838 568 795 557 c 128,-1,85
 752 546 752 546 632 545 c 0,86,87
 532 543 532 543 477 529 c 128,-1,88
 422 515 422 515 418.5 513 c 128,-1,89
 415 511 415 511 414 511 c 2,90,-1
 413 512 l 2,91,92
 412 512 412 512 412 516 c 2,93,-1
 412 619 l 2,94,95
 412 626 412 626 417 633 c 128,-1,96
 422 640 422 640 429 642 c 0,97,98
 430 643 430 643 482.5 652.5 c 128,-1,99
 535 662 535 662 632 663 c 0,100,101
 724 666 724 666 783.5 686 c 128,-1,102
 843 706 843 706 848 710 c 0,103,104
 852 711 852 711 852 712 c 2,105,-1
 853 707 l 1,106,-1
 853 604 l 2,107,108
 853 595 853 595 848 585 c 128,-1,109
 843 575 843 575 836 570 c 1,83,84
EndSplineSet
EndChar

StartChar: thin-network
Encoding: 57620 57620 21
Width: 1000
Flags: W
LayerCount: 2
Fore
SplineSet
353 203 m 2,0,-1
 176 203 l 2,1,2
 145 202 145 202 124.5 181.5 c 128,-1,3
 104 161 104 161 103 129 c 2,4,-1
 103 26 l 2,5,6
 104 -5 104 -5 124.5 -25.5 c 128,-1,7
 145 -46 145 -46 176 -47 c 2,8,-1
 353 -47 l 2,9,10
 385 -46 385 -46 405.5 -25.5 c 128,-1,11
 426 -5 426 -5 427 26 c 2,12,-1
 427 129 l 2,13,14
 426 161 426 161 405.5 181.5 c 128,-1,15
 385 202 385 202 353 203 c 2,0,-1
397 26 m 2,16,17
 397 8 397 8 384.5 -4.5 c 128,-1,18
 372 -17 372 -17 353 -18 c 2,19,-1
 176 -18 l 2,20,21
 158 -17 158 -17 145.5 -4.5 c 128,-1,22
 133 8 133 8 132 26 c 2,23,-1
 132 129 l 2,24,25
 133 148 133 148 145.5 161 c 128,-1,26
 158 174 158 174 176 174 c 2,27,-1
 353 174 l 2,28,29
 372 174 372 174 384.5 161 c 128,-1,30
 397 148 397 148 397 129 c 2,31,-1
 397 26 l 2,16,17
824 203 m 2,32,-1
 647 203 l 2,33,34
 616 202 616 202 595.5 181.5 c 128,-1,35
 575 161 575 161 574 129 c 2,36,-1
 574 26 l 2,37,38
 575 -5 575 -5 595.5 -25.5 c 128,-1,39
 616 -46 616 -46 647 -47 c 2,40,-1
 824 -47 l 2,41,42
 855 -46 855 -46 875.5 -25.5 c 128,-1,43
 896 -5 896 -5 897 26 c 2,44,-1
 897 129 l 2,45,46
 896 161 896 161 875.5 181.5 c 128,-1,47
 855 202 855 202 824 203 c 2,32,-1
868 26 m 2,48,49
 868 8 868 8 855.5 -4.5 c 128,-1,50
 843 -17 843 -17 824 -18 c 2,51,-1
 647 -18 l 2,52,53
 629 -17 629 -17 616.5 -4.5 c 128,-1,54
 604 8 604 8 603 26 c 2,55,-1
 603 129 l 2,56,57
 604 148 604 148 616.5 161 c 128,-1,58
 629 174 629 174 647 174 c 2,59,-1
 824 174 l 2,60,61
 843 174 843 174 855.5 161 c 128,-1,62
 868 148 868 148 868 129 c 2,63,-1
 868 26 l 2,48,49
412 497 m 2,64,-1
 588 497 l 2,65,66
 620 498 620 498 640.5 518.5 c 128,-1,67
 661 539 661 539 662 571 c 2,68,-1
 662 674 l 2,69,70
 661 705 661 705 640.5 725.5 c 128,-1,71
 620 746 620 746 588 747 c 2,72,-1
 412 747 l 2,73,74
 380 746 380 746 359.5 725.5 c 128,-1,75
 339 705 339 705 338 674 c 2,76,-1
 338 571 l 2,77,78
 339 539 339 539 359.5 518.5 c 128,-1,79
 380 498 380 498 412 497 c 2,64,-1
368 674 m 2,80,81
 368 693 368 693 380.5 705.5 c 128,-1,82
 393 718 393 718 412 718 c 2,83,-1
 588 718 l 2,84,85
 607 718 607 718 619.5 705.5 c 128,-1,86
 632 693 632 693 632 674 c 2,87,-1
 632 571 l 2,88,89
 632 552 632 552 619.5 539.5 c 128,-1,90
 607 527 607 527 588 527 c 2,91,-1
 412 527 l 2,92,93
 393 527 393 527 380.5 539.5 c 128,-1,94
 368 552 368 552 368 571 c 2,95,-1
 368 674 l 2,80,81
265 232 m 256,96,97
 271 232 271 232 275 236.5 c 128,-1,98
 279 241 279 241 279 247 c 2,99,-1
 279 321 l 2,100,101
 279 327 279 327 283.5 331 c 128,-1,102
 288 335 288 335 294 335 c 2,103,-1
 706 335 l 2,104,105
 712 335 712 335 716.5 331 c 128,-1,106
 721 327 721 327 721 321 c 2,107,-1
 721 247 l 2,108,109
 721 241 721 241 725 236.5 c 128,-1,110
 729 232 729 232 735.5 232 c 128,-1,111
 742 232 742 232 746 236.5 c 128,-1,112
 750 241 750 241 750 247 c 2,113,-1
 750 321 l 2,114,115
 750 340 750 340 737.5 352.5 c 128,-1,116
 725 365 725 365 706 365 c 2,117,-1
 515 365 l 1,118,-1
 515 453 l 2,119,120
 515 459 515 459 510.5 463.5 c 128,-1,121
 506 468 506 468 500 468 c 128,-1,122
 494 468 494 468 489.5 463.5 c 128,-1,123
 485 459 485 459 485 453 c 2,124,-1
 485 365 l 1,125,-1
 294 365 l 2,126,127
 276 365 276 365 263.5 352.5 c 128,-1,128
 251 340 251 340 250 321 c 2,129,-1
 250 247 l 2,130,131
 250 241 250 241 254.5 236.5 c 128,-1,132
 259 232 259 232 265 232 c 256,96,97
EndSplineSet
EndChar

StartChar: thin-db-network
Encoding: 57621 57621 22
Width: 1000
Flags: W
LayerCount: 2
Fore
SplineSet
500 747 m 0,0,1
 400 747 400 747 321 722 c 128,-1,2
 242 697 242 697 237 650 c 0,3,4
 235 647 235 647 235 644 c 2,5,-1
 235 227 l 1,6,7
 239 182 239 182 313 156 c 128,-1,8
 387 130 387 130 485 128 c 1,9,-1
 485 68 l 1,10,11
 466 63 466 63 453.5 47.5 c 128,-1,12
 441 32 441 32 441 11 c 0,13,14
 442 -14 442 -14 458.5 -30 c 128,-1,15
 475 -46 475 -46 500 -46 c 128,-1,16
 525 -46 525 -46 541.5 -30 c 128,-1,17
 558 -14 558 -14 559 11 c 0,18,19
 559 32 559 32 546.5 47.5 c 128,-1,20
 534 63 534 63 515 68 c 1,21,-1
 515 127 l 1,22,23
 613 129 613 129 687 153 c 128,-1,24
 761 177 761 177 765 223 c 1,25,-1
 765 644 l 2,26,27
 765 648 765 648 763 651 c 0,28,29
 756 698 756 698 677.5 722.5 c 128,-1,30
 599 747 599 747 500 747 c 0,0,1
500 718 m 0,31,32
 608 716 608 716 670.5 694 c 128,-1,33
 733 672 733 672 734 649 c 0,34,35
 733 626 733 626 671.5 605 c 128,-1,36
 610 584 610 584 500 582 c 0,37,38
 390 584 390 584 328.5 605.5 c 128,-1,39
 267 627 267 627 267 650 c 128,-1,40
 267 673 267 673 328.5 694.5 c 128,-1,41
 390 716 390 716 500 718 c 0,31,32
529 11 m 0,42,43
 529 -1 529 -1 520.5 -9.5 c 128,-1,44
 512 -18 512 -18 500 -18 c 128,-1,45
 488 -18 488 -18 479.5 -9.5 c 128,-1,46
 471 -1 471 -1 471 11.5 c 128,-1,47
 471 24 471 24 479.5 32.5 c 128,-1,48
 488 41 488 41 500 41 c 128,-1,49
 512 41 512 41 520.5 32.5 c 128,-1,50
 529 24 529 24 529 11 c 0,42,43
735 223 m 2,51,52
 734 201 734 201 672.5 180 c 128,-1,53
 611 159 611 159 500 157 c 0,54,55
 391 159 391 159 328.5 181.5 c 128,-1,56
 266 204 266 204 265 227 c 2,57,-1
 265 315 l 1,58,59
 301 289 301 289 365 276 c 128,-1,60
 429 263 429 263 500 263 c 128,-1,61
 571 263 571 263 635 276 c 128,-1,62
 699 289 699 289 735 315 c 1,63,-1
 735 223 l 2,51,52
735 367 m 2,64,65
 734 364 734 364 734 361 c 0,66,67
 733 338 733 338 671.5 316 c 128,-1,68
 610 294 610 294 500 292 c 0,69,70
 390 294 390 294 328.5 316 c 128,-1,71
 267 338 267 338 266 361 c 0,72,73
 266 364 266 364 265 367 c 2,74,-1
 265 462 l 1,75,76
 301 436 301 436 365 423 c 128,-1,77
 429 410 429 410 500 410 c 128,-1,78
 571 410 571 410 635 423.5 c 128,-1,79
 699 437 699 437 735 463 c 1,80,-1
 735 367 l 2,64,65
735 514 m 2,81,82
 734 511 734 511 734 508 c 0,83,84
 733 485 733 485 671.5 463.5 c 128,-1,85
 610 442 610 442 500 440 c 0,86,87
 390 442 390 442 328.5 463.5 c 128,-1,88
 267 485 267 485 266 508 c 0,89,90
 266 511 266 511 265 514 c 2,91,-1
 265 604 l 1,92,93
 301 578 301 578 365 565 c 128,-1,94
 429 552 429 552 501 552 c 128,-1,95
 573 552 573 552 636.5 565 c 128,-1,96
 700 578 700 578 735 603 c 1,97,-1
 735 514 l 2,81,82
294 26 m 2,98,-1
 250 26 l 2,99,100
 244 26 244 26 239.5 22 c 128,-1,101
 235 18 235 18 235 11.5 c 128,-1,102
 235 5 235 5 239.5 1 c 128,-1,103
 244 -3 244 -3 250 -3 c 2,104,-1
 294 -3 l 2,105,106
 300 -3 300 -3 304.5 1 c 128,-1,107
 309 5 309 5 309 11.5 c 128,-1,108
 309 18 309 18 304.5 22 c 128,-1,109
 300 26 300 26 294 26 c 2,98,-1
191 26 m 2,110,-1
 147 26 l 2,111,112
 141 26 141 26 136.5 22 c 128,-1,113
 132 18 132 18 132 11.5 c 128,-1,114
 132 5 132 5 136.5 1 c 128,-1,115
 141 -3 141 -3 147 -3 c 2,116,-1
 191 -3 l 2,117,118
 197 -3 197 -3 201.5 1 c 128,-1,119
 206 5 206 5 206 11.5 c 128,-1,120
 206 18 206 18 201.5 22 c 128,-1,121
 197 26 197 26 191 26 c 2,110,-1
397 26 m 2,122,-1
 353 26 l 2,123,124
 347 26 347 26 342.5 22 c 128,-1,125
 338 18 338 18 338 11.5 c 128,-1,126
 338 5 338 5 342.5 1 c 128,-1,127
 347 -3 347 -3 353 -3 c 2,128,-1
 397 -3 l 2,129,130
 403 -3 403 -3 407.5 1 c 128,-1,131
 412 5 412 5 412 11.5 c 128,-1,132
 412 18 412 18 407.5 22 c 128,-1,133
 403 26 403 26 397 26 c 2,122,-1
853 26 m 2,134,-1
 809 26 l 2,135,136
 803 26 803 26 798.5 22 c 128,-1,137
 794 18 794 18 794 11.5 c 128,-1,138
 794 5 794 5 798.5 1 c 128,-1,139
 803 -3 803 -3 809 -3 c 2,140,-1
 853 -3 l 2,141,142
 859 -3 859 -3 863.5 1 c 128,-1,143
 868 5 868 5 868 11.5 c 128,-1,144
 868 18 868 18 863.5 22 c 128,-1,145
 859 26 859 26 853 26 c 2,134,-1
750 26 m 2,146,-1
 706 26 l 2,147,148
 700 26 700 26 695.5 22 c 128,-1,149
 691 18 691 18 691 11.5 c 128,-1,150
 691 5 691 5 695.5 1 c 128,-1,151
 700 -3 700 -3 706 -3 c 2,152,-1
 750 -3 l 2,153,154
 756 -3 756 -3 760.5 1 c 128,-1,155
 765 5 765 5 765 11.5 c 128,-1,156
 765 18 765 18 760.5 22 c 128,-1,157
 756 26 756 26 750 26 c 2,146,-1
647 26 m 2,158,-1
 603 26 l 2,159,160
 597 26 597 26 592.5 22 c 128,-1,161
 588 18 588 18 588 11.5 c 128,-1,162
 588 5 588 5 592.5 1 c 128,-1,163
 597 -3 597 -3 603 -3 c 2,164,-1
 647 -3 l 2,165,166
 653 -3 653 -3 657.5 1 c 128,-1,167
 662 5 662 5 662 11.5 c 128,-1,168
 662 18 662 18 657.5 22 c 128,-1,169
 653 26 653 26 647 26 c 2,158,-1
EndSplineSet
EndChar

StartChar: thin-dropbox-upload
Encoding: 57622 57622 23
Width: 1000
Flags: W
LayerCount: 2
Fore
SplineSet
392 619 m 2,0,-1
 485 701 l 1,1,-1
 485 410 l 2,2,3
 485 404 485 404 489.5 399.5 c 128,-1,4
 494 395 494 395 500 395 c 128,-1,5
 506 395 506 395 510.5 399.5 c 128,-1,6
 515 404 515 404 515 410 c 2,7,-1
 515 701 l 1,8,-1
 608 619 l 2,9,10
 612 616 612 616 618 616 c 128,-1,11
 624 616 624 616 628.5 621 c 128,-1,12
 633 626 633 626 632.5 631.5 c 128,-1,13
 632 637 632 637 627 642 c 2,14,-1
 510 745 l 2,15,16
 500 751 500 751 490 745 c 2,17,-1
 373 642 l 2,18,19
 368 637 368 637 367.5 631.5 c 128,-1,20
 367 626 367 626 371.5 621 c 128,-1,21
 376 616 376 616 381.5 615.5 c 128,-1,22
 387 615 387 615 392 619 c 2,0,-1
748 449 m 2,23,-1
 595 526 l 2,24,25
 590 529 590 529 584 527 c 128,-1,26
 578 525 578 525 575.5 519.5 c 128,-1,27
 573 514 573 514 574.5 508.5 c 128,-1,28
 576 503 576 503 582 500 c 2,29,-1
 735 423 l 2,30,31
 746 417 746 417 755 407 c 1,32,-1
 522 317 l 2,33,34
 510 311 510 311 500 300 c 1,35,36
 491 311 491 311 478 317 c 2,37,-1
 245 407 l 1,38,39
 254 417 254 417 265 423 c 2,40,-1
 418 500 l 2,41,42
 424 503 424 503 426 508.5 c 128,-1,43
 428 514 428 514 425 519 c 0,44,45
 418 532 418 532 405 526 c 2,46,-1
 252 449 l 2,47,48
 226 435 226 435 209 407.5 c 128,-1,49
 192 380 192 380 191 351 c 2,50,-1
 191 130 l 2,51,52
 192 101 192 101 209.5 74.5 c 128,-1,53
 227 48 227 48 255 36 c 2,54,-1
 440 -38 l 2,55,56
 466 -48 466 -48 500 -48 c 128,-1,57
 534 -48 534 -48 560 -38 c 2,58,-1
 745 36 l 2,59,60
 773 48 773 48 790.5 74.5 c 128,-1,61
 808 101 808 101 809 130 c 2,62,-1
 809 351 l 2,63,64
 808 380 808 380 791 407.5 c 128,-1,65
 774 435 774 435 748 449 c 2,23,-1
451 -11 m 2,66,-1
 266 63 l 2,67,68
 247 71 247 71 234 90.5 c 128,-1,69
 221 110 221 110 221 130 c 2,70,-1
 221 351 l 2,71,72
 221 367 221 367 228 382 c 0,73,74
 229 382 229 382 230 381 c 2,75,-1
 467 289 l 2,76,77
 475 286 475 286 480 278.5 c 128,-1,78
 485 271 485 271 485 263 c 2,79,-1
 485 -17 l 1,80,-1
 486 -18 l 1,81,82
 466 -17 466 -17 451 -11 c 2,66,-1
780 130 m 2,83,84
 779 110 779 110 766 90.5 c 128,-1,85
 753 71 753 71 734 63 c 2,86,-1
 549 -11 l 2,87,88
 534 -17 534 -17 515 -18 c 1,89,-1
 515 263 l 2,90,91
 515 271 515 271 520 278.5 c 128,-1,92
 525 286 525 286 533 289 c 2,93,-1
 770 381 l 2,94,95
 771 382 771 382 772 382 c 0,96,97
 780 367 780 367 780 351 c 2,98,-1
 780 130 l 2,83,84
EndSplineSet
EndChar

StartChar: thin-phone-call
Encoding: 57623 57623 24
Width: 1000
Flags: W
LayerCount: 2
Fore
SplineSet
894 95 m 0,0,1
 891 116 891 116 866 134 c 2,2,-1
 692 253 l 2,3,4
 678 262 678 262 662 262 c 0,5,6
 635 261 635 261 619 241 c 2,7,-1
 574 177 l 2,8,9
 570 169 570 169 570 160 c 1,10,11
 557 155 557 155 519.5 168.5 c 128,-1,12
 482 182 482 182 420 241 c 0,13,14
 301 360 301 360 308 415 c 0,15,16
 309 415 309 415 310 417 c 0,17,18
 316 418 316 418 321 422 c 2,19,-1
 384 469 l 2,20,21
 401 482 401 482 403.5 502.5 c 128,-1,22
 406 523 406 523 393 542 c 2,23,-1
 268 712 l 2,24,25
 232 761 232 761 186 722 c 0,26,27
 171 708 171 708 152 684.5 c 128,-1,28
 133 661 133 661 122.5 642 c 128,-1,29
 112 623 112 623 113 603 c 1,30,31
 108 588 108 588 105.5 548 c 128,-1,32
 103 508 103 508 115 449 c 0,33,34
 150 288 150 288 298 144 c 1,35,36
 423 28 423 28 523 -7 c 128,-1,37
 623 -42 623 -42 679 -39 c 1,38,39
 679 -39 679 -39 679 -39 c 1,40,41
 711 -39 711 -39 732 -34.5 c 128,-1,42
 753 -30 753 -30 764 -26 c 1,43,44
 783 -26 783 -26 801 -15 c 128,-1,45
 819 -4 819 -4 842.5 16 c 128,-1,46
 866 36 866 36 879 51 c 0,47,48
 897 75 897 75 894 95 c 0,0,1
856 70 m 0,49,50
 844 56 844 56 823 38 c 128,-1,51
 802 20 802 20 786 10 c 0,52,53
 781 7 781 7 778 6 c 0,54,55
 762 13 762 13 741.5 24.5 c 128,-1,56
 721 36 721 36 712 46 c 0,57,58
 708 51 708 51 702.5 51.5 c 128,-1,59
 697 52 697 52 692 48 c 128,-1,60
 687 44 687 44 686 38.5 c 128,-1,61
 685 33 685 33 689 28 c 0,62,63
 697 19 697 19 708.5 11 c 128,-1,64
 720 3 720 3 732 -4 c 1,65,66
 712 -9 712 -9 679 -10 c 1,67,-1
 679 -10 l 1,68,69
 627 -13 627 -13 532 20.5 c 128,-1,70
 437 54 437 54 318 165 c 1,71,72
 159 333 159 333 143.5 455.5 c 128,-1,73
 128 578 128 578 142 598 c 0,74,75
 144 601 144 601 142 604 c 0,76,77
 141 615 141 615 148 628 c 0,78,79
 157 644 157 644 174.5 666 c 128,-1,80
 192 688 192 688 205 700 c 0,81,82
 217 710 217 710 225 710 c 0,83,84
 227 711 227 711 232 708.5 c 128,-1,85
 237 706 237 706 245 694 c 2,86,-1
 369 524 l 2,87,88
 375 516 375 516 374 507 c 128,-1,89
 373 498 373 498 366 492 c 2,90,-1
 304 445 l 1,91,-1
 303 445 l 1,92,-1
 277 467 l 2,93,94
 263 478 263 478 257 487 c 0,95,96
 254 492 254 492 248 493.5 c 128,-1,97
 242 495 242 495 237 491.5 c 128,-1,98
 232 488 232 488 230.5 482 c 128,-1,99
 229 476 229 476 233 471 c 0,100,101
 240 459 240 459 254 447 c 128,-1,102
 268 435 268 435 280 426 c 1,103,104
 271 390 271 390 300 340 c 128,-1,105
 329 290 329 290 399 220 c 0,106,107
 455 165 455 165 495.5 147 c 128,-1,108
 536 129 536 129 561 130 c 0,109,110
 583 131 583 131 591 136 c 0,111,112
 598 139 598 139 598 147 c 0,113,114
 599 150 599 150 599 155 c 2,115,-1
 599 161 l 1,116,-1
 643 224 l 2,117,118
 649 231 649 231 658 232 c 128,-1,119
 667 233 667 233 675 228 c 2,120,-1
 849 109 l 2,121,122
 864 100 864 100 865.5 91.5 c 128,-1,123
 867 83 867 83 856 70 c 0,49,50
483 570 m 0,124,125
 569 543 569 543 631.5 481 c 128,-1,126
 694 419 694 419 721 333 c 0,127,128
 725 322 725 322 735 322 c 2,129,-1
 740 323 l 2,130,131
 753 329 753 329 749 342 c 0,132,133
 720 435 720 435 652.5 502 c 128,-1,134
 585 569 585 569 492 598 c 0,135,136
 479 601 479 601 473 588 c 0,137,138
 472 582 472 582 474.5 577 c 128,-1,139
 477 572 477 572 483 570 c 0,124,125
503 679 m 0,140,141
 633 646 633 646 721.5 553 c 128,-1,142
 810 460 810 460 836 328 c 0,143,144
 839 317 839 317 850 316 c 0,145,146
 852 316 852 316 853 317 c 0,147,148
 859 318 859 318 862.5 323 c 128,-1,149
 866 328 866 328 865 334 c 0,150,151
 838 474 838 474 743 573.5 c 128,-1,152
 648 673 648 673 510 707 c 0,153,154
 504 708 504 708 499 705 c 128,-1,155
 494 702 494 702 493 696 c 128,-1,156
 492 690 492 690 495 685.5 c 128,-1,157
 498 681 498 681 503 679 c 0,140,141
EndSplineSet
EndChar

StartChar: thin-briefcase-2
Encoding: 57624 57624 25
Width: 1000
Flags: W
LayerCount: 2
Fore
SplineSet
824 644 m 2,0,-1
 670 644 l 1,1,-1
 645 688 l 1,2,-1
 643 693 l 2,3,4
 633 712 633 712 618 729 c 128,-1,5
 603 746 603 746 574 747 c 2,6,-1
 427 747 l 2,7,8
 396 746 396 746 380 727 c 128,-1,9
 364 708 364 708 355 688 c 2,10,-1
 330 644 l 1,11,-1
 176 644 l 2,12,13
 145 643 145 643 124.5 622.5 c 128,-1,14
 104 602 104 602 103 571 c 2,15,-1
 103 379 l 2,16,17
 104 354 104 354 118 332 c 1,18,-1
 118 26 l 2,19,20
 119 -5 119 -5 139.5 -25.5 c 128,-1,21
 160 -46 160 -46 191 -47 c 2,22,-1
 809 -47 l 2,23,24
 840 -46 840 -46 860.5 -25.5 c 128,-1,25
 881 -5 881 -5 882 26 c 2,26,-1
 882 332 l 1,27,28
 897 354 897 354 897 379 c 2,29,-1
 897 571 l 2,30,31
 896 602 896 602 875.5 622.5 c 128,-1,32
 855 643 855 643 824 644 c 2,0,-1
381 675 m 2,33,34
 391 695 391 695 401 706.5 c 128,-1,35
 411 718 411 718 427 718 c 2,36,-1
 574 718 l 2,37,38
 589 718 589 718 598 708 c 128,-1,39
 607 698 607 698 617 678 c 2,40,-1
 637 644 l 1,41,-1
 364 644 l 1,42,-1
 381 675 l 2,33,34
853 26 m 2,43,44
 853 8 853 8 840.5 -4.5 c 128,-1,45
 828 -17 828 -17 809 -18 c 2,46,-1
 191 -18 l 2,47,48
 173 -17 173 -17 160.5 -4.5 c 128,-1,49
 148 8 148 8 147 26 c 2,50,-1
 147 303 l 1,51,52
 159 295 159 295 171 292 c 2,53,-1
 408 233 l 1,54,-1
 412 233 l 1,55,-1
 412 218 l 2,56,57
 412 199 412 199 423.5 184 c 128,-1,58
 435 169 435 169 452 164 c 0,59,60
 476 158 476 158 500.5 158 c 128,-1,61
 525 158 525 158 549 164 c 0,62,63
 565 169 565 169 576.5 184 c 128,-1,64
 588 199 588 199 588 218 c 2,65,-1
 588 232 l 1,66,-1
 829 292 l 2,67,68
 843 295 843 295 853 303 c 1,69,-1
 853 26 l 2,43,44
441 218 m 2,70,-1
 441 291 l 2,71,72
 441 297 441 297 445.5 301.5 c 128,-1,73
 450 306 450 306 456 306 c 2,74,-1
 544 306 l 2,75,76
 550 306 550 306 554.5 301.5 c 128,-1,77
 559 297 559 297 559 291 c 2,78,-1
 559 218 l 2,79,80
 559 210 559 210 553.5 202.5 c 128,-1,81
 548 195 548 195 541 193 c 0,82,83
 500 183 500 183 459 193 c 0,84,85
 452 195 452 195 446.5 202.5 c 128,-1,86
 441 210 441 210 441 218 c 2,70,-1
868 379 m 2,87,88
 867 360 867 360 854 343 c 128,-1,89
 841 326 841 326 822 321 c 2,90,-1
 588 262 l 1,91,-1
 588 291 l 2,92,93
 588 310 588 310 575.5 322.5 c 128,-1,94
 563 335 563 335 544 335 c 2,95,-1
 456 335 l 2,96,97
 437 335 437 335 424.5 322.5 c 128,-1,98
 412 310 412 310 412 291 c 2,99,-1
 412 262 l 1,100,-1
 178 321 l 2,101,102
 159 326 159 326 146 343 c 128,-1,103
 133 360 133 360 132 379 c 2,104,-1
 132 571 l 2,105,106
 133 590 133 590 145.5 602.5 c 128,-1,107
 158 615 158 615 176 615 c 2,108,-1
 824 615 l 2,109,110
 843 615 843 615 855.5 602.5 c 128,-1,111
 868 590 868 590 868 571 c 2,112,-1
 868 379 l 2,87,88
EndSplineSet
EndChar

StartChar: thin-card
Encoding: 57625 57625 26
Width: 1000
Flags: W
LayerCount: 2
Fore
SplineSet
824 659 m 2,0,-1
 176 659 l 2,1,2
 145 658 145 658 124.5 637.5 c 128,-1,3
 104 617 104 617 103 585 c 2,4,-1
 103 115 l 2,5,6
 104 83 104 83 124.5 62.5 c 128,-1,7
 145 42 145 42 176 41 c 2,8,-1
 824 41 l 2,9,10
 855 42 855 42 875.5 62.5 c 128,-1,11
 896 83 896 83 897 115 c 2,12,-1
 897 585 l 2,13,14
 896 617 896 617 875.5 637.5 c 128,-1,15
 855 658 855 658 824 659 c 2,0,-1
868 115 m 2,16,17
 868 96 868 96 855.5 83.5 c 128,-1,18
 843 71 843 71 824 71 c 2,19,-1
 176 71 l 2,20,21
 158 71 158 71 145.5 83.5 c 128,-1,22
 133 96 133 96 132 115 c 2,23,-1
 132 585 l 2,24,25
 133 604 133 604 145.5 617 c 128,-1,26
 158 630 158 630 176 630 c 2,27,-1
 824 630 l 2,28,29
 843 630 843 630 855.5 617 c 128,-1,30
 868 604 868 604 868 585 c 2,31,-1
 868 115 l 2,16,17
765 556 m 2,32,-1
 588 556 l 2,33,34
 582 556 582 556 578 551.5 c 128,-1,35
 574 547 574 547 574 541 c 2,36,-1
 574 350 l 2,37,38
 574 344 574 344 578 339.5 c 128,-1,39
 582 335 582 335 588 335 c 2,40,-1
 765 335 l 2,41,42
 771 335 771 335 775.5 339.5 c 128,-1,43
 780 344 780 344 780 350 c 2,44,-1
 780 541 l 2,45,46
 780 547 780 547 775.5 551.5 c 128,-1,47
 771 556 771 556 765 556 c 2,32,-1
750 365 m 1,48,-1
 603 365 l 1,49,-1
 603 527 l 1,50,-1
 750 527 l 1,51,-1
 750 365 l 1,48,-1
471 379 m 2,52,-1
 235 379 l 2,53,54
 222 378 222 378 221 365 c 0,55,56
 221 359 221 359 225 354.5 c 128,-1,57
 229 350 229 350 235 350 c 2,58,-1
 471 350 l 2,59,60
 477 350 477 350 481 354.5 c 128,-1,61
 485 359 485 359 485 365 c 0,62,63
 484 378 484 378 471 379 c 2,52,-1
471 277 m 2,64,-1
 235 277 l 2,65,66
 229 277 229 277 225 272.5 c 128,-1,67
 221 268 221 268 221 262 c 128,-1,68
 221 256 221 256 225 251.5 c 128,-1,69
 229 247 229 247 235 247 c 2,70,-1
 471 247 l 2,71,72
 477 247 477 247 481 251.5 c 128,-1,73
 485 256 485 256 485 262 c 128,-1,74
 485 268 485 268 481 272.5 c 128,-1,75
 477 277 477 277 471 277 c 2,64,-1
338 174 m 2,76,-1
 235 174 l 2,77,78
 229 174 229 174 225 169.5 c 128,-1,79
 221 165 221 165 221 159 c 128,-1,80
 221 153 221 153 225 148.5 c 128,-1,81
 229 144 229 144 235 144 c 2,82,-1
 338 144 l 2,83,84
 344 144 344 144 348.5 148.5 c 128,-1,85
 353 153 353 153 353 159 c 128,-1,86
 353 165 353 165 348.5 169.5 c 128,-1,87
 344 174 344 174 338 174 c 2,76,-1
EndSplineSet
EndChar

StartChar: thin-support
Encoding: 57626 57626 27
Width: 1000
Flags: W
LayerCount: 2
Fore
SplineSet
851 58 m 0,0,1
 842 81 842 81 810 102 c 128,-1,2
 778 123 778 123 738 142 c 2,3,-1
 701 161 l 2,4,5
 696 164 696 164 690 162.5 c 128,-1,6
 684 161 684 161 681 156 c 128,-1,7
 678 151 678 151 680 145 c 128,-1,8
 682 139 682 139 687 136 c 0,9,10
 704 126 704 126 725 116 c 0,11,12
 756 101 756 101 786.5 82.5 c 128,-1,13
 817 64 817 64 823 49 c 0,14,15
 832 20 832 20 834 9 c 128,-1,16
 836 -2 836 -2 836 -10 c 0,17,18
 836 -15 836 -15 835 -16 c 0,19,20
 832 -18 832 -18 824 -18 c 2,21,-1
 808 -18 l 1,22,-1
 794 -17 l 1,23,-1
 206 -17 l 1,24,-1
 195 -18 l 1,25,-1
 178 -18 l 2,26,27
 169 -17 169 -17 166.5 -15 c 128,-1,28
 164 -13 164 -13 164 -9 c 0,29,30
 166 -1 166 -1 179 50 c 0,31,32
 189 88 189 88 372 160 c 0,33,34
 375 161 375 161 390 168 c 128,-1,35
 405 175 405 175 417 190 c 0,36,37
 421 195 421 195 420 201 c 128,-1,38
 419 207 419 207 414 210 c 0,39,40
 402 218 402 218 393 207 c 0,41,42
 386 199 386 199 377 194.5 c 128,-1,43
 368 190 368 190 362 188 c 0,44,45
 286 159 286 159 224 125.5 c 128,-1,46
 162 92 162 92 150 57 c 2,47,-1
 135 -5 l 1,48,-1
 135 -8 l 2,49,50
 135 -25 135 -25 145 -36 c 0,51,52
 155 -45 155 -45 168 -46 c 128,-1,53
 181 -47 181 -47 196 -47 c 2,54,-1
 820 -47 l 2,55,56
 830 -47 830 -47 839 -45.5 c 128,-1,57
 848 -44 848 -44 855 -37 c 0,58,59
 865 -26 865 -26 865 -10 c 0,60,61
 865 1 865 1 862.5 14 c 128,-1,62
 860 27 860 27 851 58 c 0,0,1
265 306 m 2,63,-1
 309 306 l 2,64,65
 321 306 321 306 328 313.5 c 128,-1,66
 335 321 335 321 336.5 330 c 128,-1,67
 338 339 338 339 338 348 c 2,68,-1
 338 350 l 1,69,70
 342 347 342 347 346 346 c 0,71,72
 352 331 352 331 359 320 c 2,73,-1
 380 284 l 2,74,75
 397 256 397 256 416 243 c 0,76,77
 418 240 418 240 442 226.5 c 128,-1,78
 466 213 466 213 499 210 c 2,79,-1
 507 210 l 2,80,81
 519 209 519 209 540 215.5 c 128,-1,82
 561 222 561 222 588 244 c 0,83,84
 604 257 604 257 620 283 c 2,85,-1
 629 297 l 2,86,87
 643 317 643 317 656 346 c 1,88,-1
 662 349 l 1,89,-1
 662 348 l 2,90,91
 662 339 662 339 663.5 330 c 128,-1,92
 665 321 665 321 671 314 c 0,93,94
 673 311 673 311 676 310 c 0,95,96
 676 281 676 281 667 244.5 c 128,-1,97
 658 208 658 208 634 196 c 1,98,99
 624 204 624 204 609 204 c 0,100,101
 604 204 604 204 599 203 c 2,102,-1
 528 186 l 2,103,104
 510 182 510 182 500.5 167 c 128,-1,105
 491 152 491 152 495 133 c 0,106,107
 499 118 499 118 510.5 108.5 c 128,-1,108
 522 99 522 99 538 99 c 2,109,-1
 548 100 l 1,110,-1
 620 117 l 2,111,112
 638 122 638 122 647 137 c 128,-1,113
 656 152 656 152 652 170 c 1,114,-1
 652 172 l 1,115,116
 685 192 685 192 695.5 234.5 c 128,-1,117
 706 277 706 277 706 306 c 1,118,-1
 735 306 l 2,119,120
 751 306 751 306 768.5 316 c 128,-1,121
 786 326 786 326 795 342 c 0,122,123
 809 375 809 375 809 409 c 128,-1,124
 809 443 809 443 794 476 c 0,125,126
 786 493 786 493 768.5 502.5 c 128,-1,127
 751 512 751 512 735 512 c 1,128,-1
 735 512 l 1,129,130
 730 613 730 613 664 679 c 128,-1,131
 598 745 598 745 500 747 c 0,132,133
 402 745 402 745 336 679 c 128,-1,134
 270 613 270 613 265 512 c 1,135,-1
 265 512 l 1,136,137
 249 512 249 512 231.5 502.5 c 128,-1,138
 214 493 214 493 206 476 c 0,139,140
 191 444 191 444 191 409.5 c 128,-1,141
 191 375 191 375 206 342 c 0,142,143
 214 326 214 326 231.5 316 c 128,-1,144
 249 306 249 306 265 306 c 2,63,-1
613 146 m 2,145,-1
 541 129 l 2,146,147
 535 128 535 128 530 131 c 128,-1,148
 525 134 525 134 524 140 c 128,-1,149
 523 146 523 146 526 151 c 128,-1,150
 529 156 529 156 534 158 c 2,151,-1
 606 175 l 1,152,-1
 609 175 l 2,153,154
 620 174 620 174 624 164 c 0,155,156
 625 158 625 158 622 153 c 128,-1,157
 619 148 619 148 613 146 c 2,145,-1
662 386 m 1,158,159
 654 386 654 386 650 379.5 c 128,-1,160
 646 373 646 373 643 373 c 0,161,162
 634 371 634 371 631 363 c 0,163,164
 625 348 625 348 618.5 336 c 128,-1,165
 612 324 612 324 604 313 c 2,166,-1
 595 298 l 2,167,168
 582 277 582 277 569 267 c 0,169,170
 540 244 540 244 522 241 c 128,-1,171
 504 238 504 238 503.5 239 c 128,-1,172
 503 240 503 240 501 240 c 0,173,174
 475 242 475 242 455.5 253.5 c 128,-1,175
 436 265 436 265 434 267 c 0,176,177
 420 276 420 276 405 299 c 0,178,179
 402 306 402 306 397 312 c 0,180,181
 390 324 390 324 383 336 c 128,-1,182
 376 348 376 348 370 363 c 0,183,184
 367 372 367 372 357 373 c 0,185,186
 354 373 354 373 350 379.5 c 128,-1,187
 346 386 346 386 338 386 c 1,188,-1
 338 439 l 1,189,190
 338 439 338 439 338 439 c 1,191,192
 351 439 351 439 353 451 c 0,193,194
 352 453 352 453 356 480 c 128,-1,195
 360 507 360 507 374 543 c 0,196,197
 412 634 412 634 503 634 c 1,198,199
 609 623 609 623 632 546.5 c 128,-1,200
 655 470 655 470 650 454 c 0,201,202
 651 448 651 448 656 444 c 128,-1,203
 661 440 661 440 662 440 c 2,204,-1
 662 386 l 1,158,159
735 483 m 2,205,206
 744 483 744 483 754 477.5 c 128,-1,207
 764 472 764 472 768 464 c 0,208,209
 779 437 779 437 779 409 c 128,-1,210
 779 381 779 381 768 355 c 0,211,212
 764 347 764 347 754 341.5 c 128,-1,213
 744 336 744 336 735 336 c 2,214,-1
 692 336 l 1,215,216
 691 341 691 341 691 348 c 2,217,-1
 691 470 l 2,218,219
 691 477 691 477 692 483 c 1,220,-1
 735 483 l 2,205,206
500 718 m 0,221,222
 585 716 585 716 643 658 c 128,-1,223
 701 600 701 600 706 512 c 1,224,-1
 691 512 l 2,225,226
 681 512 681 512 674 507 c 1,227,228
 667 558 667 558 630 609 c 128,-1,229
 593 660 593 660 505 664 c 1,230,231
 417 660 417 660 378.5 607 c 128,-1,232
 340 554 340 554 331 503 c 1,233,-1
 329 504 l 1,234,235
 321 513 321 513 309 512 c 2,236,-1
 294 512 l 1,237,238
 299 600 299 600 357 658 c 128,-1,239
 415 716 415 716 500 718 c 0,221,222
232 463 m 0,240,241
 236 471 236 471 246 477 c 128,-1,242
 256 483 256 483 265 483 c 2,243,-1
 308 483 l 1,244,245
 309 477 309 477 309 470 c 2,246,-1
 309 348 l 2,247,248
 309 341 309 341 308 336 c 1,249,-1
 265 336 l 2,250,251
 256 336 256 336 246 341.5 c 128,-1,252
 236 347 236 347 232 355 c 0,253,254
 221 381 221 381 221 409 c 128,-1,255
 221 437 221 437 232 463 c 0,240,241
EndSplineSet
EndChar

StartChar: thin-pull
Encoding: 57627 57627 28
Width: 1000
Flags: W
LayerCount: 2
Fore
SplineSet
622 360 m 2,0,-1
 515 253 l 1,1,-1
 515 718 l 2,2,3
 515 724 515 724 510.5 728 c 128,-1,4
 506 732 506 732 500 732 c 128,-1,5
 494 732 494 732 489.5 728 c 128,-1,6
 485 724 485 724 485 718 c 2,7,-1
 485 253 l 1,8,-1
 378 360 l 2,9,10
 368 369 368 369 357 360 c 0,11,12
 353 356 353 356 353 350 c 128,-1,13
 353 344 353 344 357 340 c 2,14,-1
 490 207 l 2,15,16
 494 203 494 203 500.5 203 c 128,-1,17
 507 203 507 203 510 207 c 2,18,-1
 643 340 l 2,19,20
 648 344 648 344 648 350 c 128,-1,21
 648 356 648 356 643 360 c 0,22,23
 633 369 633 369 622 360 c 2,0,-1
319 -3 m 2,24,-1
 275 -3 l 2,25,26
 269 -3 269 -3 265 -7.5 c 128,-1,27
 261 -12 261 -12 261 -18 c 0,28,29
 262 -31 262 -31 275 -32 c 2,30,-1
 319 -32 l 2,31,32
 333 -31 333 -31 334 -18 c 0,33,34
 334 -12 334 -12 330 -7.5 c 128,-1,35
 326 -3 326 -3 319 -3 c 2,24,-1
221 12 m 2,36,-1
 221 29 l 2,37,38
 221 35 221 35 216.5 39 c 128,-1,39
 212 43 212 43 206 43 c 128,-1,40
 200 43 200 43 195.5 39 c 128,-1,41
 191 35 191 35 191 29 c 2,42,-1
 191 12 l 2,43,44
 192 -10 192 -10 209 -24 c 0,45,46
 214 -27 214 -27 218 -27 c 0,47,48
 225 -27 225 -27 229 -21.5 c 128,-1,49
 233 -16 233 -16 232.5 -10 c 128,-1,50
 232 -4 232 -4 226.5 0.5 c 128,-1,51
 221 5 221 5 221 12 c 2,36,-1
294 482 m 0,52,53
 293 496 293 496 279 497 c 2,54,-1
 235 497 l 2,55,56
 222 496 222 496 221 482 c 0,57,58
 222 469 222 469 235 468 c 2,59,-1
 279 468 l 2,60,61
 293 469 293 469 294 482 c 0,52,53
422 -3 m 2,62,-1
 378 -3 l 2,63,64
 372 -3 372 -3 368 -7.5 c 128,-1,65
 364 -12 364 -12 364 -18 c 0,66,67
 365 -31 365 -31 378 -32 c 2,68,-1
 422 -32 l 2,69,70
 428 -32 428 -32 432.5 -28 c 128,-1,71
 437 -24 437 -24 437 -18 c 128,-1,72
 437 -12 437 -12 432.5 -7.5 c 128,-1,73
 428 -3 428 -3 422 -3 c 2,62,-1
397 482 m 0,74,75
 397 489 397 489 392.5 493 c 128,-1,76
 388 497 388 497 382 497 c 2,77,-1
 338 497 l 2,78,79
 325 496 325 496 324 482 c 0,80,81
 325 469 325 469 338 468 c 2,82,-1
 382 468 l 2,83,84
 388 468 388 468 392.5 472 c 128,-1,85
 397 476 397 476 397 482 c 0,74,75
206 382 m 256,86,87
 212 382 212 382 216.5 386 c 128,-1,88
 221 390 221 390 221 396 c 2,89,-1
 221 440 l 2,90,91
 221 447 221 447 216.5 451 c 128,-1,92
 212 455 212 455 206 455 c 128,-1,93
 200 455 200 455 195.5 451 c 128,-1,94
 191 447 191 447 191 440 c 2,95,-1
 191 396 l 2,96,97
 191 390 191 390 195.5 386 c 128,-1,98
 200 382 200 382 206 382 c 256,86,87
206 73 m 256,99,100
 212 73 212 73 216.5 77 c 128,-1,101
 221 81 221 81 221 87 c 2,102,-1
 221 131 l 2,103,104
 221 138 221 138 216.5 142 c 128,-1,105
 212 146 212 146 206 146 c 128,-1,106
 200 146 200 146 195.5 142 c 128,-1,107
 191 138 191 138 191 131 c 2,108,-1
 191 87 l 2,109,110
 191 81 191 81 195.5 77 c 128,-1,111
 200 73 200 73 206 73 c 256,99,100
206 279 m 256,112,113
 212 279 212 279 216.5 283 c 128,-1,114
 221 287 221 287 221 293 c 2,115,-1
 221 337 l 2,116,117
 221 344 221 344 216.5 348 c 128,-1,118
 212 352 212 352 206 352 c 128,-1,119
 200 352 200 352 195.5 348 c 128,-1,120
 191 344 191 344 191 337 c 2,121,-1
 191 293 l 2,122,123
 191 287 191 287 195.5 283 c 128,-1,124
 200 279 200 279 206 279 c 256,112,113
206 176 m 256,125,126
 212 176 212 176 216.5 180 c 128,-1,127
 221 184 221 184 221 190 c 2,128,-1
 221 234 l 2,129,130
 221 241 221 241 216.5 245 c 128,-1,131
 212 249 212 249 206 249 c 128,-1,132
 200 249 200 249 195.5 245 c 128,-1,133
 191 241 191 241 191 234 c 2,134,-1
 191 190 l 2,135,136
 191 184 191 184 195.5 180 c 128,-1,137
 200 176 200 176 206 176 c 256,125,126
794 256 m 256,138,139
 788 256 788 256 784 251.5 c 128,-1,140
 780 247 780 247 780 241 c 2,141,-1
 780 197 l 2,142,143
 780 191 780 191 784 186.5 c 128,-1,144
 788 182 788 182 794 182 c 128,-1,145
 800 182 800 182 804.5 186.5 c 128,-1,146
 809 191 809 191 809 197 c 2,147,-1
 809 241 l 2,148,149
 809 247 809 247 804.5 251.5 c 128,-1,150
 800 256 800 256 794 256 c 256,138,139
794 153 m 256,151,152
 788 153 788 153 784 148.5 c 128,-1,153
 780 144 780 144 780 138 c 2,154,-1
 780 94 l 2,155,156
 780 88 780 88 784 83.5 c 128,-1,157
 788 79 788 79 794 79 c 128,-1,158
 800 79 800 79 804.5 83.5 c 128,-1,159
 809 88 809 88 809 94 c 2,160,-1
 809 138 l 2,161,162
 809 144 809 144 804.5 148.5 c 128,-1,163
 800 153 800 153 794 153 c 256,151,152
794 50 m 256,164,165
 788 50 788 50 784 45.5 c 128,-1,166
 780 41 780 41 780 35 c 2,167,-1
 780 12 l 2,168,169
 780 6 780 6 776 1.5 c 128,-1,170
 772 -3 772 -3 772.5 -8.5 c 128,-1,171
 773 -14 773 -14 777.5 -18 c 128,-1,172
 782 -22 782 -22 787.5 -22 c 128,-1,173
 793 -22 793 -22 798 -17 c 0,174,175
 809 -5 809 -5 809 12 c 2,176,-1
 809 35 l 2,177,178
 809 41 809 41 804.5 45.5 c 128,-1,179
 800 50 800 50 794 50 c 256,164,165
525 -3 m 2,180,-1
 481 -3 l 2,181,182
 475 -3 475 -3 470.5 -7.5 c 128,-1,183
 466 -12 466 -12 466 -18 c 128,-1,184
 466 -24 466 -24 470.5 -28 c 128,-1,185
 475 -32 475 -32 481 -32 c 2,186,-1
 525 -32 l 2,187,188
 531 -32 531 -32 535.5 -28 c 128,-1,189
 540 -24 540 -24 540 -18 c 128,-1,190
 540 -12 540 -12 535.5 -7.5 c 128,-1,191
 531 -3 531 -3 525 -3 c 2,180,-1
758 497 m 2,192,-1
 714 497 l 2,193,194
 701 496 701 496 700 482 c 0,195,196
 701 469 701 469 714 468 c 2,197,-1
 758 468 l 2,198,199
 764 468 764 468 768.5 472 c 128,-1,200
 773 476 773 476 773 482.5 c 128,-1,201
 773 489 773 489 768.5 493 c 128,-1,202
 764 497 764 497 758 497 c 2,192,-1
794 359 m 256,203,204
 788 359 788 359 784 354.5 c 128,-1,205
 780 350 780 350 780 344 c 2,206,-1
 780 300 l 2,207,208
 780 294 780 294 784 289.5 c 128,-1,209
 788 285 788 285 794 285 c 128,-1,210
 800 285 800 285 804.5 289.5 c 128,-1,211
 809 294 809 294 809 300 c 2,212,-1
 809 344 l 2,213,214
 809 350 809 350 804.5 354.5 c 128,-1,215
 800 359 800 359 794 359 c 256,203,204
794 462 m 256,216,217
 788 462 788 462 784 457.5 c 128,-1,218
 780 453 780 453 780 447 c 2,219,-1
 780 403 l 2,220,221
 780 397 780 397 784 392.5 c 128,-1,222
 788 388 788 388 794 388 c 128,-1,223
 800 388 800 388 804.5 392.5 c 128,-1,224
 809 397 809 397 809 403 c 2,225,-1
 809 447 l 2,226,227
 809 453 809 453 804.5 457.5 c 128,-1,228
 800 462 800 462 794 462 c 256,216,217
731 -3 m 2,229,-1
 687 -3 l 2,230,231
 681 -3 681 -3 676.5 -7.5 c 128,-1,232
 672 -12 672 -12 672 -18 c 128,-1,233
 672 -24 672 -24 676.5 -28 c 128,-1,234
 681 -32 681 -32 687 -32 c 2,235,-1
 731 -32 l 2,236,237
 737 -32 737 -32 741.5 -28 c 128,-1,238
 746 -24 746 -24 746 -18 c 128,-1,239
 746 -12 746 -12 741.5 -7.5 c 128,-1,240
 737 -3 737 -3 731 -3 c 2,229,-1
628 -3 m 2,241,-1
 584 -3 l 2,242,243
 578 -3 578 -3 573.5 -7.5 c 128,-1,244
 569 -12 569 -12 569 -18 c 128,-1,245
 569 -24 569 -24 573.5 -28 c 128,-1,246
 578 -32 578 -32 584 -32 c 2,247,-1
 628 -32 l 2,248,249
 634 -32 634 -32 638.5 -28 c 128,-1,250
 643 -24 643 -24 643 -18 c 128,-1,251
 643 -12 643 -12 638.5 -7.5 c 128,-1,252
 634 -3 634 -3 628 -3 c 2,241,-1
655 497 m 2,253,-1
 618 497 l 2,254,255
 612 497 612 497 607.5 493 c 128,-1,256
 603 489 603 489 603 482.5 c 128,-1,257
 603 476 603 476 607.5 472 c 128,-1,258
 612 468 612 468 618 468 c 2,259,-1
 655 468 l 2,260,261
 669 469 669 469 669 482.5 c 128,-1,262
 669 496 669 496 655 497 c 2,253,-1
EndSplineSet
EndChar

StartChar: thin-desktop
Encoding: 57628 57628 29
Width: 1000
Flags: W
LayerCount: 2
Fore
SplineSet
824 747 m 2,0,-1
 176 747 l 2,1,2
 145 746 145 746 124.5 725.5 c 128,-1,3
 104 705 104 705 103 674 c 2,4,-1
 103 188 l 2,5,6
 104 157 104 157 124.5 136.5 c 128,-1,7
 145 116 145 116 176 115 c 2,8,-1
 824 115 l 2,9,10
 855 116 855 116 875.5 136.5 c 128,-1,11
 896 157 896 157 897 188 c 2,12,-1
 897 674 l 2,13,14
 896 705 896 705 875.5 725.5 c 128,-1,15
 855 746 855 746 824 747 c 2,0,-1
868 188 m 2,16,17
 868 170 868 170 855.5 157.5 c 128,-1,18
 843 145 843 145 824 144 c 2,19,-1
 176 144 l 2,20,21
 158 145 158 145 145.5 157.5 c 128,-1,22
 133 170 133 170 132 188 c 2,23,-1
 132 262 l 1,24,-1
 868 262 l 1,25,-1
 868 188 l 2,16,17
868 291 m 1,26,-1
 132 291 l 1,27,-1
 132 674 l 2,28,29
 133 693 133 693 145.5 705.5 c 128,-1,30
 158 718 158 718 176 718 c 2,31,-1
 824 718 l 2,32,33
 843 718 843 718 855.5 705.5 c 128,-1,34
 868 693 868 693 868 674 c 2,35,-1
 868 291 l 1,26,-1
618 46 m 1,36,-1
 618 85 l 1,37,-1
 588 85 l 1,38,-1
 588 41 l 2,39,40
 588 37 588 37 592 32 c 2,41,-1
 631 -18 l 1,42,-1
 369 -18 l 1,43,-1
 409 32 l 2,44,45
 412 37 412 37 412 41 c 2,46,-1
 412 85 l 1,47,-1
 382 85 l 1,48,-1
 382 46 l 1,49,-1
 345 0 l 2,50,51
 332 -17 332 -17 339.5 -32 c 128,-1,52
 347 -47 347 -47 368 -47 c 2,53,-1
 632 -47 l 2,54,55
 653 -47 653 -47 660.5 -32 c 128,-1,56
 668 -17 668 -17 655 0 c 2,57,-1
 618 46 l 1,36,-1
EndSplineSet
EndChar

StartChar: thin-pass
Encoding: 57629 57629 30
Width: 1000
Flags: W
LayerCount: 2
Fore
SplineSet
765 747 m 2,0,-1
 235 747 l 2,1,2
 204 746 204 746 183.5 725.5 c 128,-1,3
 163 705 163 705 162 674 c 2,4,-1
 162 26 l 2,5,6
 163 -5 163 -5 183.5 -25.5 c 128,-1,7
 204 -46 204 -46 235 -47 c 2,8,-1
 765 -47 l 2,9,10
 796 -46 796 -46 816.5 -25.5 c 128,-1,11
 837 -5 837 -5 838 26 c 2,12,-1
 838 674 l 2,13,14
 837 705 837 705 816.5 725.5 c 128,-1,15
 796 746 796 746 765 747 c 2,0,-1
809 26 m 2,16,17
 809 8 809 8 796.5 -4.5 c 128,-1,18
 784 -17 784 -17 765 -18 c 2,19,-1
 235 -18 l 2,20,21
 217 -17 217 -17 204.5 -4.5 c 128,-1,22
 192 8 192 8 191 26 c 2,23,-1
 191 674 l 2,24,25
 192 693 192 693 204.5 705.5 c 128,-1,26
 217 718 217 718 235 718 c 2,27,-1
 765 718 l 2,28,29
 784 718 784 718 796.5 705.5 c 128,-1,30
 809 693 809 693 809 674 c 2,31,-1
 809 26 l 2,16,17
501 631 m 0,32,33
 426 629 426 629 375 578.5 c 128,-1,34
 324 528 324 528 322 453 c 0,35,36
 324 378 324 378 375 327.5 c 128,-1,37
 426 277 426 277 501 275 c 0,38,39
 576 277 576 277 626.5 327.5 c 128,-1,40
 677 378 677 378 679 453 c 0,41,42
 677 528 677 528 626.5 578.5 c 128,-1,43
 576 629 576 629 501 631 c 0,32,33
626 534 m 1,44,45
 600 523 600 523 573 518 c 1,46,47
 566 563 566 563 549 594 c 1,48,49
 598 577 598 577 626 534 c 1,44,45
501 600 m 256,50,51
 513 600 513 600 525.5 577 c 128,-1,52
 538 554 538 554 545 513 c 1,53,54
 497 508 497 508 457 513 c 1,55,56
 464 554 464 554 476.5 577 c 128,-1,57
 489 600 489 600 501 600 c 256,50,51
453 594 m 1,58,59
 436 563 436 563 428 517 c 1,60,61
 410 520 410 520 396 523.5 c 128,-1,62
 382 527 382 527 374 530 c 1,63,64
 388 553 388 553 408 569.5 c 128,-1,65
 428 586 428 586 453 594 c 1,58,59
362 399 m 1,66,67
 353 425 353 425 352.5 452.5 c 128,-1,68
 352 480 352 480 361 503 c 1,69,70
 369 500 369 500 385.5 495.5 c 128,-1,71
 402 491 402 491 425 487 c 1,72,73
 423 470 423 470 423 452.5 c 128,-1,74
 423 435 423 435 425 418 c 1,75,76
 381 408 381 408 362 399 c 1,66,67
375 373 m 1,77,78
 392 380 392 380 429 388 c 1,79,80
 436 343 436 343 453 312 c 1,81,82
 404 330 404 330 375 373 c 1,77,78
501 306 m 256,83,84
 489 306 489 306 476.5 329 c 128,-1,85
 464 352 464 352 457 393 c 1,86,87
 497 399 497 399 545 394 c 1,88,89
 538 352 538 352 525.5 329 c 128,-1,90
 513 306 513 306 501 306 c 256,83,84
454 423 m 1,91,92
 453 437 453 437 453 453.5 c 128,-1,93
 453 470 453 470 454 483 c 1,94,95
 476 481 476 481 501 481 c 0,96,97
 524 481 524 481 548 483 c 1,98,99
 549 470 549 470 549 454 c 128,-1,100
 549 438 549 438 548 424 c 1,101,102
 497 428 497 428 454 423 c 1,91,92
549 312 m 1,103,104
 557 327 557 327 563.5 347 c 128,-1,105
 570 367 570 367 574 390 c 1,106,107
 600 384 600 384 627 374 c 1,108,109
 613 352 613 352 593 336 c 128,-1,110
 573 320 573 320 549 312 c 1,103,104
577 419 m 1,111,112
 579 436 579 436 579 453.5 c 128,-1,113
 579 471 579 471 577 488 c 1,114,115
 609 494 609 494 639 508 c 1,116,117
 650 482 650 482 650 453.5 c 128,-1,118
 650 425 650 425 640 400 c 1,119,120
 609 413 609 413 577 419 c 1,111,112
332 181 m 2,121,-1
 301 181 l 2,122,123
 287 181 287 181 287 168 c 2,124,-1
 287 69 l 2,125,126
 288 55 288 55 300.5 55 c 128,-1,127
 313 55 313 55 314 69 c 2,128,-1
 314 97 l 1,129,-1
 333 97 l 2,130,131
 352 97 352 97 364.5 108.5 c 128,-1,132
 377 120 377 120 377 139.5 c 128,-1,133
 377 159 377 159 364.5 170 c 128,-1,134
 352 181 352 181 332 181 c 2,121,-1
332 121 m 2,135,-1
 314 121 l 1,136,-1
 314 158 l 1,137,-1
 332 158 l 2,138,139
 349 157 349 157 350 139 c 0,140,141
 350 131 350 131 345 126 c 128,-1,142
 340 121 340 121 332 121 c 2,135,-1
466 169 m 2,143,144
 464 175 464 175 459 179.5 c 128,-1,145
 454 184 454 184 447 184 c 128,-1,146
 440 184 440 184 435 179.5 c 128,-1,147
 430 175 430 175 428 169 c 2,148,-1
 393 73 l 2,149,150
 391 72 391 72 391 67 c 0,151,152
 392 56 392 56 403.5 56 c 128,-1,153
 415 56 415 56 417 64 c 2,154,-1
 422 81 l 1,155,-1
 471 81 l 1,156,-1
 477 64 l 2,157,158
 478 56 478 56 490 55 c 0,159,160
 495 55 495 55 498.5 58 c 128,-1,161
 502 61 502 61 502 65 c 128,-1,162
 502 69 502 69 500 73 c 2,163,-1
 466 169 l 2,143,144
430 105 m 1,164,-1
 447 156 l 1,165,-1
 463 105 l 1,166,-1
 430 105 l 1,164,-1
549 147 m 0,167,168
 549 152 549 152 553.5 155 c 128,-1,169
 558 158 558 158 563 158 c 0,170,171
 571 158 571 158 576 155.5 c 128,-1,172
 581 153 581 153 587 153 c 0,173,174
 598 154 598 154 597.5 165 c 128,-1,175
 597 176 597 176 585 180 c 128,-1,176
 573 184 573 184 564 184 c 0,177,178
 546 184 546 184 533.5 173 c 128,-1,179
 521 162 521 162 520 144 c 0,180,181
 524 116 524 116 549.5 111.5 c 128,-1,182
 575 107 575 107 579 94 c 0,183,184
 579 81 579 81 561 79 c 0,185,186
 553 79 553 79 545.5 82.5 c 128,-1,187
 538 86 538 86 532 86 c 128,-1,188
 526 86 526 86 523 82.5 c 128,-1,189
 520 79 520 79 520 74 c 0,190,191
 521 62 521 62 536 58 c 128,-1,192
 551 54 551 54 562 54 c 0,193,194
 581 54 581 54 594 64.5 c 128,-1,195
 607 75 607 75 608 95 c 0,196,197
 604 126 604 126 578.5 131 c 128,-1,198
 553 136 553 136 549 147 c 0,167,168
658 147 m 0,199,200
 658 152 658 152 662.5 155 c 128,-1,201
 667 158 667 158 672 158 c 0,202,203
 680 158 680 158 685 155.5 c 128,-1,204
 690 153 690 153 696 153 c 0,205,206
 707 154 707 154 706.5 165 c 128,-1,207
 706 176 706 176 694 180 c 128,-1,208
 682 184 682 184 673 184 c 0,209,210
 655 184 655 184 642.5 173 c 128,-1,211
 630 162 630 162 629 144 c 0,212,213
 633 116 633 116 658.5 111.5 c 128,-1,214
 684 107 684 107 688 94 c 0,215,216
 688 81 688 81 670 79 c 0,217,218
 662 79 662 79 654.5 82.5 c 128,-1,219
 647 86 647 86 641 86 c 128,-1,220
 635 86 635 86 632 82.5 c 128,-1,221
 629 79 629 79 629 74 c 0,222,223
 630 62 630 62 645 58 c 128,-1,224
 660 54 660 54 671 54 c 0,225,226
 690 54 690 54 703 64.5 c 128,-1,227
 716 75 716 75 717 95 c 0,228,229
 713 126 713 126 687.5 131 c 128,-1,230
 662 136 662 136 658 147 c 0,199,200
EndSplineSet
EndChar

StartChar: thin-picture
Encoding: 57630 57630 31
Width: 1000
Flags: W
LayerCount: 2
Fore
SplineSet
824 747 m 2,0,-1
 294 747 l 2,1,2
 263 746 263 746 242.5 725.5 c 128,-1,3
 222 705 222 705 221 674 c 2,4,-1
 221 600 l 1,5,-1
 176 600 l 2,6,7
 145 599 145 599 124.5 578.5 c 128,-1,8
 104 558 104 558 103 527 c 2,9,-1
 103 26 l 2,10,11
 104 -5 104 -5 124.5 -25.5 c 128,-1,12
 145 -46 145 -46 176 -47 c 2,13,-1
 706 -47 l 2,14,15
 738 -46 738 -46 758.5 -25.5 c 128,-1,16
 779 -5 779 -5 780 26 c 2,17,-1
 780 115 l 1,18,-1
 824 115 l 2,19,20
 855 116 855 116 875.5 136.5 c 128,-1,21
 896 157 896 157 897 188 c 2,22,-1
 897 674 l 2,23,24
 896 705 896 705 875.5 725.5 c 128,-1,25
 855 746 855 746 824 747 c 2,0,-1
750 26 m 2,26,27
 750 8 750 8 737.5 -4.5 c 128,-1,28
 725 -17 725 -17 706 -18 c 2,29,-1
 176 -18 l 2,30,31
 158 -17 158 -17 145.5 -4.5 c 128,-1,32
 133 8 133 8 132 26 c 2,33,-1
 132 527 l 2,34,35
 133 546 133 546 145.5 558.5 c 128,-1,36
 158 571 158 571 176 571 c 2,37,-1
 706 571 l 2,38,39
 725 571 725 571 737.5 558.5 c 128,-1,40
 750 546 750 546 750 527 c 2,41,-1
 750 26 l 2,26,27
868 188 m 2,42,43
 868 170 868 170 855.5 157.5 c 128,-1,44
 843 145 843 145 824 144 c 2,45,-1
 780 144 l 1,46,-1
 780 527 l 2,47,48
 779 558 779 558 758.5 578.5 c 128,-1,49
 738 599 738 599 706 600 c 2,50,-1
 250 600 l 1,51,-1
 250 674 l 2,52,53
 251 693 251 693 263.5 705.5 c 128,-1,54
 276 718 276 718 294 718 c 2,55,-1
 824 718 l 2,56,57
 843 718 843 718 855.5 705.5 c 128,-1,58
 868 693 868 693 868 674 c 2,59,-1
 868 188 l 2,42,43
574 350 m 0,60,61
 605 351 605 351 625.5 371.5 c 128,-1,62
 646 392 646 392 646 423.5 c 128,-1,63
 646 455 646 455 625.5 475.5 c 128,-1,64
 605 496 605 496 573.5 496 c 128,-1,65
 542 496 542 496 521.5 475.5 c 128,-1,66
 501 455 501 455 501 423.5 c 128,-1,67
 501 392 501 392 521.5 371.5 c 128,-1,68
 542 351 542 351 574 350 c 0,60,61
574 468 m 256,69,70
 593 468 593 468 605.5 455.5 c 128,-1,71
 618 443 618 443 618 424 c 128,-1,72
 618 405 618 405 605.5 392 c 128,-1,73
 593 379 593 379 574 379 c 128,-1,74
 555 379 555 379 542 392 c 128,-1,75
 529 405 529 405 529 424 c 128,-1,76
 529 443 529 443 542 455.5 c 128,-1,77
 555 468 555 468 574 468 c 256,69,70
591 225 m 2,78,79
 577 236 577 236 559 236 c 128,-1,80
 541 236 541 236 527 225 c 2,81,-1
 472 179 l 1,82,-1
 369 281 l 2,83,84
 356 294 356 294 338.5 294 c 128,-1,85
 321 294 321 294 307 282 c 2,86,-1
 167 155 l 2,87,88
 162 151 162 151 162 145 c 128,-1,89
 162 139 162 139 166 134.5 c 128,-1,90
 170 130 170 130 175.5 129.5 c 128,-1,91
 181 129 181 129 186 133 c 2,92,-1
 326 261 l 2,93,94
 331 265 331 265 337.5 264.5 c 128,-1,95
 344 264 344 264 349 260 c 2,96,-1
 549 60 l 2,97,98
 553 56 553 56 559 56 c 128,-1,99
 565 56 565 56 569 60 c 0,100,101
 578 71 578 71 569 81 c 2,102,-1
 492 158 l 1,103,-1
 546 202 l 2,104,105
 552 206 552 206 559.5 206.5 c 128,-1,106
 567 207 567 207 573 203 c 2,107,-1
 697 103 l 2,108,109
 702 100 702 100 706 100 c 0,110,111
 713 100 713 100 717 105.5 c 128,-1,112
 721 111 721 111 720.5 116.5 c 128,-1,113
 720 122 720 122 715 126 c 2,114,-1
 591 225 l 2,78,79
EndSplineSet
EndChar

StartChar: thin-email
Encoding: 57631 57631 32
Width: 1000
Flags: W
LayerCount: 2
Fore
SplineSet
824 659 m 2,0,-1
 176 659 l 2,1,2
 145 658 145 658 124.5 637.5 c 128,-1,3
 104 617 104 617 103 585 c 2,4,-1
 103 115 l 2,5,6
 104 83 104 83 124.5 62.5 c 128,-1,7
 145 42 145 42 176 41 c 2,8,-1
 824 41 l 2,9,10
 855 42 855 42 875.5 62.5 c 128,-1,11
 896 83 896 83 897 115 c 2,12,-1
 897 585 l 2,13,14
 896 617 896 617 875.5 637.5 c 128,-1,15
 855 658 855 658 824 659 c 2,0,-1
868 115 m 2,16,17
 868 96 868 96 855.5 83.5 c 128,-1,18
 843 71 843 71 824 71 c 2,19,-1
 176 71 l 2,20,21
 158 71 158 71 145.5 83.5 c 128,-1,22
 133 96 133 96 132 115 c 2,23,-1
 132 585 l 2,24,25
 133 604 133 604 145.5 617 c 128,-1,26
 158 630 158 630 176 630 c 2,27,-1
 824 630 l 2,28,29
 843 630 843 630 855.5 617 c 128,-1,30
 868 604 868 604 868 585 c 2,31,-1
 868 115 l 2,16,17
814 597 m 2,32,-1
 535 356 l 2,33,34
 520 343 520 343 500 343 c 128,-1,35
 480 343 480 343 465 356 c 2,36,-1
 186 597 l 2,37,38
 181 601 181 601 175.5 600.5 c 128,-1,39
 170 600 170 600 165.5 595 c 128,-1,40
 161 590 161 590 161.5 584.5 c 128,-1,41
 162 579 162 579 167 574 c 2,42,-1
 446 333 l 2,43,44
 469 314 469 314 500 314 c 128,-1,45
 531 314 531 314 554 333 c 2,46,-1
 833 574 l 2,47,48
 838 579 838 579 838.5 584.5 c 128,-1,49
 839 590 839 590 834.5 595 c 128,-1,50
 830 600 830 600 824.5 600.5 c 128,-1,51
 819 601 819 601 814 597 c 2,32,-1
EndSplineSet
EndChar

StartChar: thin-push
Encoding: 57632 57632 33
Width: 1000
Flags: W
LayerCount: 2
Fore
SplineSet
378 590 m 2,0,-1
 485 697 l 1,1,-1
 485 262 l 2,2,3
 485 256 485 256 489.5 251.5 c 128,-1,4
 494 247 494 247 500 247 c 128,-1,5
 506 247 506 247 510.5 251.5 c 128,-1,6
 515 256 515 256 515 262 c 2,7,-1
 515 697 l 1,8,-1
 622 590 l 2,9,10
 627 585 627 585 632.5 585 c 128,-1,11
 638 585 638 585 643 589.5 c 128,-1,12
 648 594 648 594 648 600 c 128,-1,13
 648 606 648 606 643 611 c 2,14,-1
 510 743 l 2,15,16
 506 748 506 748 500 748 c 128,-1,17
 494 748 494 748 490 743 c 2,18,-1
 357 611 l 2,19,20
 353 606 353 606 353 600 c 128,-1,21
 353 594 353 594 357 590 c 0,22,23
 368 581 368 581 378 590 c 2,0,-1
294 468 m 0,24,25
 293 481 293 481 279 482 c 2,26,-1
 235 482 l 2,27,28
 222 481 222 481 221 468 c 0,29,30
 221 462 221 462 225 457.5 c 128,-1,31
 229 453 229 453 235 453 c 2,32,-1
 279 453 l 2,33,34
 286 453 286 453 290 457.5 c 128,-1,35
 294 462 294 462 294 468 c 0,24,25
397 468 m 0,36,37
 396 481 396 481 382 482 c 2,38,-1
 338 482 l 2,39,40
 325 481 325 481 324 468 c 0,41,42
 324 462 324 462 328 457.5 c 128,-1,43
 332 453 332 453 338 453 c 2,44,-1
 382 453 l 2,45,46
 389 453 389 453 393 457.5 c 128,-1,47
 397 462 397 462 397 468 c 0,36,37
221 -3 m 2,48,-1
 221 14 l 2,49,50
 221 20 221 20 216.5 24.5 c 128,-1,51
 212 29 212 29 206 29 c 128,-1,52
 200 29 200 29 195.5 24.5 c 128,-1,53
 191 20 191 20 191 14 c 2,54,-1
 191 -3 l 2,55,56
 192 -25 192 -25 209 -38 c 0,57,58
 214 -41 214 -41 218 -41 c 0,59,60
 225 -41 225 -41 230 -35 c 0,61,62
 233 -30 233 -30 232.5 -24.5 c 128,-1,63
 232 -19 232 -19 226.5 -14.5 c 128,-1,64
 221 -10 221 -10 221 -3 c 2,48,-1
422 -18 m 2,65,-1
 378 -18 l 2,66,67
 365 -19 365 -19 364 -32 c 0,68,69
 365 -46 365 -46 378 -47 c 2,70,-1
 422 -47 l 2,71,72
 436 -46 436 -46 437 -32 c 0,73,74
 437 -26 437 -26 432.5 -22 c 128,-1,75
 428 -18 428 -18 422 -18 c 2,65,-1
206 367 m 256,76,77
 212 367 212 367 216.5 371 c 128,-1,78
 221 375 221 375 221 382 c 2,79,-1
 221 426 l 2,80,81
 221 432 221 432 216.5 436 c 128,-1,82
 212 440 212 440 206 440 c 128,-1,83
 200 440 200 440 195.5 436 c 128,-1,84
 191 432 191 432 191 426 c 2,85,-1
 191 382 l 2,86,87
 191 375 191 375 195.5 371 c 128,-1,88
 200 367 200 367 206 367 c 256,76,77
206 58 m 256,89,90
 212 58 212 58 216.5 62.5 c 128,-1,91
 221 67 221 67 221 73 c 2,92,-1
 221 117 l 2,93,94
 221 123 221 123 216.5 127 c 128,-1,95
 212 131 212 131 206 131 c 128,-1,96
 200 131 200 131 195.5 127 c 128,-1,97
 191 123 191 123 191 117 c 2,98,-1
 191 73 l 2,99,100
 191 67 191 67 195.5 62.5 c 128,-1,101
 200 58 200 58 206 58 c 256,89,90
206 264 m 256,102,103
 212 264 212 264 216.5 268 c 128,-1,104
 221 272 221 272 221 279 c 2,105,-1
 221 323 l 2,106,107
 221 329 221 329 216.5 333 c 128,-1,108
 212 337 212 337 206 337 c 128,-1,109
 200 337 200 337 195.5 333 c 128,-1,110
 191 329 191 329 191 323 c 2,111,-1
 191 279 l 2,112,113
 191 272 191 272 195.5 268 c 128,-1,114
 200 264 200 264 206 264 c 256,102,103
206 161 m 256,115,116
 212 161 212 161 216.5 165 c 128,-1,117
 221 169 221 169 221 176 c 2,118,-1
 221 220 l 2,119,120
 221 226 221 226 216.5 230 c 128,-1,121
 212 234 212 234 206 234 c 128,-1,122
 200 234 200 234 195.5 230 c 128,-1,123
 191 226 191 226 191 220 c 2,124,-1
 191 176 l 2,125,126
 191 169 191 169 195.5 165 c 128,-1,127
 200 161 200 161 206 161 c 256,115,116
319 -18 m 2,128,-1
 275 -18 l 2,129,130
 262 -19 262 -19 261 -32 c 0,131,132
 262 -46 262 -46 275 -47 c 2,133,-1
 319 -47 l 2,134,135
 333 -46 333 -46 333 -32.5 c 128,-1,136
 333 -19 333 -19 319 -18 c 2,128,-1
794 241 m 256,137,138
 788 241 788 241 784 236.5 c 128,-1,139
 780 232 780 232 780 226 c 2,140,-1
 780 182 l 2,141,142
 780 176 780 176 784 171.5 c 128,-1,143
 788 167 788 167 794 167 c 128,-1,144
 800 167 800 167 804.5 171.5 c 128,-1,145
 809 176 809 176 809 182 c 2,146,-1
 809 226 l 2,147,148
 809 232 809 232 804.5 236.5 c 128,-1,149
 800 241 800 241 794 241 c 256,137,138
525 -18 m 2,150,-1
 481 -18 l 2,151,152
 475 -18 475 -18 470.5 -22 c 128,-1,153
 466 -26 466 -26 466 -32.5 c 128,-1,154
 466 -39 466 -39 470.5 -43 c 128,-1,155
 475 -47 475 -47 481 -47 c 2,156,-1
 525 -47 l 2,157,158
 531 -47 531 -47 535.5 -43 c 128,-1,159
 540 -39 540 -39 540 -32.5 c 128,-1,160
 540 -26 540 -26 535.5 -22 c 128,-1,161
 531 -18 531 -18 525 -18 c 2,150,-1
794 447 m 256,162,163
 788 447 788 447 784 442.5 c 128,-1,164
 780 438 780 438 780 432 c 2,165,-1
 780 388 l 2,166,167
 780 382 780 382 784 377.5 c 128,-1,168
 788 373 788 373 794 373 c 128,-1,169
 800 373 800 373 804.5 377.5 c 128,-1,170
 809 382 809 382 809 388 c 2,171,-1
 809 432 l 2,172,173
 809 438 809 438 804.5 442.5 c 128,-1,174
 800 447 800 447 794 447 c 256,162,163
794 344 m 256,175,176
 788 344 788 344 784 339.5 c 128,-1,177
 780 335 780 335 780 329 c 2,178,-1
 780 285 l 2,179,180
 780 279 780 279 784 274.5 c 128,-1,181
 788 270 788 270 794 270 c 128,-1,182
 800 270 800 270 804.5 274.5 c 128,-1,183
 809 279 809 279 809 285 c 2,184,-1
 809 329 l 2,185,186
 809 335 809 335 804.5 339.5 c 128,-1,187
 800 344 800 344 794 344 c 256,175,176
794 35 m 256,188,189
 788 35 788 35 784 30.5 c 128,-1,190
 780 26 780 26 780 20 c 2,191,-1
 780 -3 l 2,192,193
 780 -9 780 -9 776 -13.5 c 128,-1,194
 772 -18 772 -18 772.5 -23.5 c 128,-1,195
 773 -29 773 -29 777.5 -33 c 128,-1,196
 782 -37 782 -37 787.5 -37 c 128,-1,197
 793 -37 793 -37 798 -32 c 0,198,199
 809 -20 809 -20 809 -3 c 2,200,-1
 809 20 l 2,201,202
 809 26 809 26 804.5 30.5 c 128,-1,203
 800 35 800 35 794 35 c 256,188,189
794 138 m 256,204,205
 788 138 788 138 784 133.5 c 128,-1,206
 780 129 780 129 780 123 c 2,207,-1
 780 79 l 2,208,209
 780 73 780 73 784 68.5 c 128,-1,210
 788 64 788 64 794 64 c 128,-1,211
 800 64 800 64 804.5 68.5 c 128,-1,212
 809 73 809 73 809 79 c 2,213,-1
 809 123 l 2,214,215
 809 129 809 129 804.5 133.5 c 128,-1,216
 800 138 800 138 794 138 c 256,204,205
655 482 m 2,217,-1
 618 482 l 2,218,219
 612 482 612 482 607.5 478 c 128,-1,220
 603 474 603 474 603 468 c 128,-1,221
 603 462 603 462 607.5 457.5 c 128,-1,222
 612 453 612 453 618 453 c 2,223,-1
 655 453 l 2,224,225
 662 453 662 453 666 457.5 c 128,-1,226
 670 462 670 462 670 468 c 0,227,228
 669 481 669 481 655 482 c 2,217,-1
628 -18 m 2,229,-1
 584 -18 l 2,230,231
 578 -18 578 -18 573.5 -22 c 128,-1,232
 569 -26 569 -26 569 -32.5 c 128,-1,233
 569 -39 569 -39 573.5 -43 c 128,-1,234
 578 -47 578 -47 584 -47 c 2,235,-1
 628 -47 l 2,236,237
 634 -47 634 -47 638.5 -43 c 128,-1,238
 643 -39 643 -39 643 -32.5 c 128,-1,239
 643 -26 643 -26 638.5 -22 c 128,-1,240
 634 -18 634 -18 628 -18 c 2,229,-1
758 482 m 2,241,-1
 714 482 l 2,242,243
 701 481 701 481 700 468 c 0,244,245
 700 462 700 462 704 457.5 c 128,-1,246
 708 453 708 453 714 453 c 2,247,-1
 758 453 l 2,248,249
 765 453 765 453 769 457.5 c 128,-1,250
 773 462 773 462 773 468 c 0,251,252
 772 481 772 481 758 482 c 2,241,-1
731 -18 m 2,253,-1
 687 -18 l 2,254,255
 681 -18 681 -18 676.5 -22 c 128,-1,256
 672 -26 672 -26 672 -32.5 c 128,-1,257
 672 -39 672 -39 676.5 -43 c 128,-1,258
 681 -47 681 -47 687 -47 c 2,259,-1
 731 -47 l 2,260,261
 737 -47 737 -47 741.5 -43 c 128,-1,262
 746 -39 746 -39 746 -32.5 c 128,-1,263
 746 -26 746 -26 741.5 -22 c 128,-1,264
 737 -18 737 -18 731 -18 c 2,253,-1
EndSplineSet
EndChar

StartChar: thin-house
Encoding: 57633 57633 34
Width: 1000
Flags: W
LayerCount: 2
Fore
SplineSet
897 644 m 2,0,1
 896 688 896 688 867 717 c 128,-1,2
 838 746 838 746 794 747 c 2,3,-1
 206 747 l 2,4,5
 162 746 162 746 133 717 c 128,-1,6
 104 688 104 688 103 644 c 2,7,-1
 103 512 l 2,8,9
 103 490 103 490 111.5 471 c 128,-1,10
 120 452 120 452 134 438 c 1,11,12
 132 432 132 432 132 424 c 2,13,-1
 132 26 l 2,14,15
 133 -5 133 -5 153.5 -25.5 c 128,-1,16
 174 -46 174 -46 206 -47 c 2,17,-1
 794 -47 l 2,18,19
 826 -46 826 -46 846.5 -25.5 c 128,-1,20
 867 -5 867 -5 868 26 c 2,21,-1
 868 424 l 2,22,23
 868 432 868 432 866 438 c 1,24,25
 880 452 880 452 888.5 471 c 128,-1,26
 897 490 897 490 897 512 c 2,27,-1
 897 644 l 2,0,1
515 718 m 1,28,-1
 677 718 l 1,29,-1
 677 512 l 2,30,31
 676 480 676 480 655.5 459.5 c 128,-1,32
 635 439 635 439 603 438 c 2,33,-1
 588 438 l 2,34,35
 557 439 557 439 536.5 459.5 c 128,-1,36
 516 480 516 480 515 512 c 2,37,-1
 515 718 l 1,28,-1
324 615 m 1,38,-1
 324 718 l 1,39,-1
 485 718 l 1,40,-1
 485 512 l 2,41,42
 484 480 484 480 463.5 459.5 c 128,-1,43
 443 439 443 439 412 438 c 2,44,-1
 397 438 l 2,45,46
 366 439 366 439 345.5 459.5 c 128,-1,47
 325 480 325 480 324 512 c 2,48,-1
 324 615 l 1,38,-1
132 512 m 2,49,-1
 132 644 l 2,50,51
 133 676 133 676 153.5 696.5 c 128,-1,52
 174 717 174 717 206 718 c 2,53,-1
 294 718 l 1,54,-1
 294 512 l 2,55,56
 293 480 293 480 272.5 459.5 c 128,-1,57
 252 439 252 439 221 438 c 2,58,-1
 206 438 l 2,59,60
 174 439 174 439 153.5 459.5 c 128,-1,61
 133 480 133 480 132 512 c 2,49,-1
412 -18 m 1,62,-1
 250 -18 l 1,63,-1
 250 306 l 1,64,-1
 412 306 l 1,65,-1
 412 -18 l 1,62,-1
838 26 m 2,66,67
 838 8 838 8 825.5 -4.5 c 128,-1,68
 813 -17 813 -17 794 -18 c 2,69,-1
 441 -18 l 1,70,-1
 441 321 l 2,71,72
 440 334 440 334 427 335 c 2,73,-1
 235 335 l 2,74,75
 222 334 222 334 221 321 c 2,76,-1
 221 -18 l 1,77,-1
 206 -18 l 2,78,79
 188 -17 188 -17 175.5 -4.5 c 128,-1,80
 163 8 163 8 162 26 c 2,81,-1
 162 419 l 1,82,83
 182 410 182 410 206 409 c 2,84,-1
 221 409 l 2,85,86
 249 409 249 409 272 422.5 c 128,-1,87
 295 436 295 436 309 459 c 1,88,89
 323 436 323 436 346 422.5 c 128,-1,90
 369 409 369 409 397 409 c 2,91,-1
 412 409 l 2,92,93
 440 409 440 409 463 422.5 c 128,-1,94
 486 436 486 436 500 459 c 1,95,96
 514 436 514 436 537 422.5 c 128,-1,97
 560 409 560 409 588 409 c 2,98,-1
 603 409 l 2,99,100
 631 409 631 409 654 422.5 c 128,-1,101
 677 436 677 436 691 459 c 1,102,103
 705 436 705 436 728 422.5 c 128,-1,104
 751 409 751 409 780 409 c 2,105,-1
 794 409 l 2,106,107
 818 410 818 410 838 419 c 1,108,-1
 838 26 l 2,66,67
868 512 m 2,109,110
 867 480 867 480 846.5 459.5 c 128,-1,111
 826 439 826 439 794 438 c 2,112,-1
 780 438 l 2,113,114
 748 439 748 439 727.5 459.5 c 128,-1,115
 707 480 707 480 706 512 c 2,116,-1
 706 718 l 1,117,-1
 794 718 l 2,118,119
 826 717 826 717 846.5 696.5 c 128,-1,120
 867 676 867 676 868 644 c 2,121,-1
 868 512 l 2,109,110
765 335 m 2,122,-1
 529 335 l 2,123,124
 516 334 516 334 515 321 c 2,125,-1
 515 100 l 2,126,127
 515 94 515 94 519 89.5 c 128,-1,128
 523 85 523 85 529 85 c 2,129,-1
 765 85 l 2,130,131
 771 85 771 85 775.5 89.5 c 128,-1,132
 780 94 780 94 780 100 c 2,133,-1
 780 321 l 2,134,135
 780 327 780 327 775.5 331 c 128,-1,136
 771 335 771 335 765 335 c 2,122,-1
750 115 m 1,137,-1
 544 115 l 1,138,-1
 544 306 l 1,139,-1
 750 306 l 1,140,-1
 750 115 l 1,137,-1
294 129 m 2,141,-1
 324 129 l 2,142,143
 330 129 330 129 334 133.5 c 128,-1,144
 338 138 338 138 338 144 c 128,-1,145
 338 150 338 150 334 154.5 c 128,-1,146
 330 159 330 159 324 159 c 2,147,-1
 294 159 l 2,148,149
 288 159 288 159 283.5 154.5 c 128,-1,150
 279 150 279 150 279 144 c 128,-1,151
 279 138 279 138 283.5 133.5 c 128,-1,152
 288 129 288 129 294 129 c 2,141,-1
EndSplineSet
EndChar

StartChar: thin-download
Encoding: 57634 57634 35
Width: 1000
Flags: W
LayerCount: 2
Fore
SplineSet
491 376 m 2,0,1
 495 372 495 372 500 372 c 128,-1,2
 505 372 505 372 509 376 c 2,3,-1
 598 449 l 2,4,5
 603 453 603 453 603.5 459 c 128,-1,6
 604 465 604 465 599.5 470 c 128,-1,7
 595 475 595 475 589.5 475.5 c 128,-1,8
 584 476 584 476 579 472 c 2,9,-1
 515 418 l 1,10,-1
 515 710 l 2,11,12
 515 717 515 717 510.5 721 c 128,-1,13
 506 725 506 725 500 725 c 128,-1,14
 494 725 494 725 489.5 721 c 128,-1,15
 485 717 485 717 485 710 c 2,16,-1
 485 418 l 1,17,-1
 421 472 l 2,18,19
 416 476 416 476 410.5 475.5 c 128,-1,20
 405 475 405 475 400.5 470 c 128,-1,21
 396 465 396 465 396.5 459 c 128,-1,22
 397 453 397 453 402 449 c 2,23,-1
 491 376 l 2,0,1
895 305 m 2,24,-1
 896 305 l 1,25,-1
 744 593 l 1,26,-1
 603 593 l 1,27,-1
 603 563 l 1,28,-1
 727 563 l 1,29,-1
 858 313 l 1,30,-1
 647 313 l 2,31,32
 635 313 635 313 626.5 304.5 c 128,-1,33
 618 296 618 296 618 284 c 2,34,-1
 618 218 l 2,35,36
 618 202 618 202 605.5 191.5 c 128,-1,37
 593 181 593 181 574 181 c 2,38,-1
 427 181 l 2,39,40
 408 181 408 181 395 191.5 c 128,-1,41
 382 202 382 202 382 218 c 2,42,-1
 382 284 l 2,43,44
 382 296 382 296 373.5 304.5 c 128,-1,45
 365 313 365 313 353 313 c 2,46,-1
 142 313 l 1,47,-1
 274 563 l 1,48,-1
 397 563 l 1,49,-1
 397 593 l 1,50,-1
 256 593 l 1,51,-1
 105 305 l 2,52,53
 103 302 103 302 103 299 c 2,54,-1
 103 49 l 2,55,56
 104 17 104 17 124.5 -3.5 c 128,-1,57
 145 -24 145 -24 176 -25 c 2,58,-1
 824 -25 l 2,59,60
 855 -24 855 -24 875.5 -3.5 c 128,-1,61
 896 17 896 17 897 49 c 2,62,-1
 897 299 l 2,63,64
 897 302 897 302 895 305 c 2,24,-1
868 49 m 2,65,66
 868 30 868 30 855.5 17 c 128,-1,67
 843 4 843 4 824 4 c 2,68,-1
 176 4 l 2,69,70
 158 4 158 4 145.5 17 c 128,-1,71
 133 30 133 30 132 49 c 2,72,-1
 132 284 l 1,73,-1
 353 284 l 1,74,-1
 353 218 l 2,75,76
 354 190 354 190 374.5 171 c 128,-1,77
 395 152 395 152 427 151 c 2,78,-1
 574 151 l 2,79,80
 605 152 605 152 625.5 171 c 128,-1,81
 646 190 646 190 647 218 c 2,82,-1
 647 284 l 1,83,-1
 868 284 l 1,84,-1
 868 49 l 2,65,66
EndSplineSet
EndChar

StartChar: thin-storage
Encoding: 57635 57635 36
Width: 1000
Flags: W
LayerCount: 2
Fore
SplineSet
895 372 m 1,0,-1
 895 372 l 1,1,-1
 744 659 l 1,2,-1
 256 659 l 1,3,-1
 105 372 l 2,4,5
 103 368 103 368 103 365 c 2,6,-1
 103 115 l 2,7,8
 104 83 104 83 124.5 62.5 c 128,-1,9
 145 42 145 42 176 41 c 2,10,-1
 824 41 l 2,11,12
 855 42 855 42 875.5 62.5 c 128,-1,13
 896 83 896 83 897 115 c 2,14,-1
 897 365 l 2,15,16
 897 368 897 368 895 372 c 1,0,-1
274 630 m 1,17,-1
 727 630 l 1,18,-1
 858 379 l 1,19,-1
 647 379 l 2,20,21
 635 379 635 379 626.5 370.5 c 128,-1,22
 618 362 618 362 618 350 c 2,23,-1
 618 284 l 2,24,25
 618 269 618 269 605.5 258 c 128,-1,26
 593 247 593 247 574 247 c 2,27,-1
 426 247 l 2,28,29
 408 247 408 247 395.5 258 c 128,-1,30
 383 269 383 269 382 284 c 2,31,-1
 382 350 l 2,32,33
 382 362 382 362 373.5 370.5 c 128,-1,34
 365 379 365 379 353 379 c 2,35,-1
 142 379 l 1,36,-1
 274 630 l 1,17,-1
868 115 m 2,37,38
 868 96 868 96 855.5 83.5 c 128,-1,39
 843 71 843 71 824 71 c 2,40,-1
 176 71 l 2,41,42
 158 71 158 71 145.5 83.5 c 128,-1,43
 133 96 133 96 132 115 c 2,44,-1
 132 350 l 1,45,-1
 353 350 l 1,46,-1
 353 284 l 2,47,48
 354 256 354 256 374.5 237.5 c 128,-1,49
 395 219 395 219 426 218 c 2,50,-1
 574 218 l 2,51,52
 605 219 605 219 625.5 237.5 c 128,-1,53
 646 256 646 256 647 284 c 2,54,-1
 647 350 l 1,55,-1
 868 350 l 1,56,-1
 868 115 l 2,37,38
EndSplineSet
EndChar

StartChar: thin-milk
Encoding: 57636 57636 37
Width: 1000
Flags: W
LayerCount: 2
Fore
SplineSet
891 495 m 2,0,-1
 735 636 l 1,1,-1
 735 681 l 2,2,3
 734 709 734 709 713.5 727.5 c 128,-1,4
 693 746 693 746 662 747 c 2,5,-1
 338 747 l 2,6,7
 307 746 307 746 286.5 727.5 c 128,-1,8
 266 709 266 709 265 681 c 2,9,-1
 265 636 l 1,10,-1
 108 493 l 2,11,12
 107 493 107 493 107 493 c 1,13,-1
 107 492 l 1,14,-1
 104 489 l 1,15,-1
 104 487 l 2,16,17
 103 486 103 486 103 483 c 2,18,19
 103 483 103 483 103 482 c 2,20,-1
 103 -3 l 2,21,22
 104 -21 104 -21 116.5 -33.5 c 128,-1,23
 129 -46 129 -46 147 -47 c 2,24,-1
 529 -47 l 2,25,26
 535 -47 535 -47 539 -46 c 0,27,28
 541 -47 541 -47 544 -47 c 2,29,-1
 853 -47 l 2,30,31
 872 -46 872 -46 884.5 -33.5 c 128,-1,32
 897 -21 897 -21 897 -3 c 2,33,-1
 897 482 l 2,34,35
 897 491 897 491 891 495 c 2,0,-1
721 610 m 1,36,-1
 844 497 l 1,37,-1
 597 497 l 1,38,-1
 721 610 l 1,36,-1
294 681 m 2,39,40
 295 696 295 696 307.5 707 c 128,-1,41
 320 718 320 718 338 718 c 2,42,-1
 662 718 l 2,43,44
 681 718 681 718 693.5 707 c 128,-1,45
 706 696 706 696 706 681 c 2,46,-1
 706 644 l 1,47,-1
 294 644 l 1,48,-1
 294 681 l 2,39,40
544 -3 m 2,49,50
 544 -9 544 -9 539.5 -13.5 c 128,-1,51
 535 -18 535 -18 529 -18 c 2,52,-1
 147 -18 l 2,53,54
 141 -18 141 -18 136.5 -13.5 c 128,-1,55
 132 -9 132 -9 132 -3 c 2,56,-1
 132 468 l 1,57,-1
 544 468 l 1,58,-1
 544 -3 l 2,49,50
156 497 m 1,59,-1
 285 615 l 1,60,-1
 683 615 l 1,61,-1
 553 497 l 1,62,-1
 156 497 l 1,59,-1
868 -3 m 2,63,64
 868 -9 868 -9 863.5 -13.5 c 128,-1,65
 859 -18 859 -18 853 -18 c 2,66,-1
 571 -18 l 1,67,68
 573 -10 573 -10 573 -3 c 2,69,-1
 573 468 l 1,70,-1
 868 468 l 1,71,-1
 868 -3 l 2,63,64
EndSplineSet
EndChar

StartChar: thin-external-right
Encoding: 57637 57637 38
Width: 1000
Flags: W
LayerCount: 2
Fore
SplineSet
119 445 m 256,0,1
 125 445 125 445 129.5 449 c 128,-1,2
 134 453 134 453 134 459 c 2,3,-1
 134 504 l 2,4,5
 134 510 134 510 129.5 514 c 128,-1,6
 125 518 125 518 119 518 c 128,-1,7
 113 518 113 518 108.5 514 c 128,-1,8
 104 510 104 510 104 504 c 2,9,-1
 104 459 l 2,10,11
 104 453 104 453 108.5 449 c 128,-1,12
 113 445 113 445 119 445 c 256,0,1
119 342 m 256,13,14
 125 342 125 342 129.5 346 c 128,-1,15
 134 350 134 350 134 356 c 2,16,-1
 134 401 l 2,17,18
 134 407 134 407 129.5 411 c 128,-1,19
 125 415 125 415 119 415 c 128,-1,20
 113 415 113 415 108.5 411 c 128,-1,21
 104 407 104 407 104 401 c 2,22,-1
 104 356 l 2,23,24
 104 350 104 350 108.5 346 c 128,-1,25
 113 342 113 342 119 342 c 256,13,14
119 239 m 256,26,27
 125 239 125 239 129.5 243 c 128,-1,28
 134 247 134 247 134 254 c 2,29,-1
 134 298 l 2,30,31
 134 304 134 304 129.5 308 c 128,-1,32
 125 312 125 312 119 312 c 128,-1,33
 113 312 113 312 108.5 308 c 128,-1,34
 104 304 104 304 104 298 c 2,35,-1
 104 254 l 2,36,37
 104 247 104 247 108.5 243 c 128,-1,38
 113 239 113 239 119 239 c 256,26,27
134 48 m 2,39,-1
 134 92 l 2,40,41
 134 98 134 98 129.5 102 c 128,-1,42
 125 106 125 106 119 106 c 128,-1,43
 113 106 113 106 108.5 102 c 128,-1,44
 104 98 104 98 104 92 c 2,45,-1
 104 48 l 2,46,47
 104 41 104 41 108.5 37 c 128,-1,48
 113 33 113 33 119 33 c 128,-1,49
 125 33 125 33 129.5 37 c 128,-1,50
 134 41 134 41 134 48 c 2,39,-1
119 136 m 256,51,52
 125 136 125 136 129.5 140 c 128,-1,53
 134 144 134 144 134 151 c 2,54,-1
 134 195 l 2,55,56
 134 201 134 201 129.5 205 c 128,-1,57
 125 209 125 209 119 209 c 128,-1,58
 113 209 113 209 108.5 205 c 128,-1,59
 104 201 104 201 104 195 c 2,60,-1
 104 151 l 2,61,62
 104 144 104 144 108.5 140 c 128,-1,63
 113 136 113 136 119 136 c 256,51,52
180 615 m 2,64,-1
 224 615 l 2,65,66
 230 615 230 615 234.5 619 c 128,-1,67
 239 623 239 623 239 629.5 c 128,-1,68
 239 636 239 636 234.5 640 c 128,-1,69
 230 644 230 644 224 644 c 2,70,-1
 180 644 l 2,71,72
 174 644 174 644 169.5 640 c 128,-1,73
 165 636 165 636 165 629.5 c 128,-1,74
 165 623 165 623 169.5 619 c 128,-1,75
 174 615 174 615 180 615 c 2,64,-1
119 548 m 256,76,77
 125 548 125 548 129.5 552 c 128,-1,78
 134 556 134 556 134 562 c 2,79,-1
 134 571 l 2,80,81
 134 584 134 584 141 596 c 0,82,83
 145 601 145 601 144 607 c 128,-1,84
 143 613 143 613 138 616.5 c 128,-1,85
 133 620 133 620 127 619 c 128,-1,86
 121 618 121 618 117 613 c 0,87,88
 105 594 105 594 104 571 c 2,89,-1
 104 562 l 2,90,91
 104 556 104 556 108.5 552 c 128,-1,92
 113 548 113 548 119 548 c 256,76,77
283 615 m 2,93,-1
 327 615 l 2,94,95
 333 615 333 615 337.5 619 c 128,-1,96
 342 623 342 623 342 629.5 c 128,-1,97
 342 636 342 636 337.5 640 c 128,-1,98
 333 644 333 644 327 644 c 2,99,-1
 283 644 l 2,100,101
 277 644 277 644 272.5 640 c 128,-1,102
 268 636 268 636 268 629.5 c 128,-1,103
 268 623 268 623 272.5 619 c 128,-1,104
 277 615 277 615 283 615 c 2,93,-1
386 615 m 2,105,-1
 430 615 l 2,106,107
 436 615 436 615 440.5 619 c 128,-1,108
 445 623 445 623 445 629.5 c 128,-1,109
 445 636 445 636 440.5 640 c 128,-1,110
 436 644 436 644 430 644 c 2,111,-1
 386 644 l 2,112,113
 380 644 380 644 375.5 640 c 128,-1,114
 371 636 371 636 371 629.5 c 128,-1,115
 371 623 371 623 375.5 619 c 128,-1,116
 380 615 380 615 386 615 c 2,105,-1
170 -17 m 0,117,118
 153 -14 153 -14 142 0 c 0,119,120
 138 5 138 5 132.5 6 c 128,-1,121
 127 7 127 7 122 3 c 0,122,123
 112 -6 112 -6 119 -18 c 0,124,125
 136 -41 136 -41 165 -46 c 1,126,-1
 167 -46 l 2,127,128
 178 -45 178 -45 182 -34 c 0,129,130
 183 -21 183 -21 170 -17 c 0,117,118
768 26 m 0,131,132
 762 27 762 27 757 24 c 128,-1,133
 752 21 752 21 750 16 c 0,134,135
 745 -1 745 -1 731 -11 c 0,136,137
 726 -14 726 -14 724.5 -20 c 128,-1,138
 723 -26 723 -26 727 -31.5 c 128,-1,139
 731 -37 731 -37 739 -38 c 0,140,141
 743 -38 743 -38 747 -36 c 0,142,143
 772 -19 772 -19 778 8 c 0,144,145
 779 14 779 14 776.5 19 c 128,-1,146
 774 24 774 24 768 26 c 0,131,132
766 232 m 256,147,148
 760 232 760 232 755.5 228 c 128,-1,149
 751 224 751 224 751 218 c 2,150,-1
 751 174 l 2,151,152
 751 167 751 167 755.5 163 c 128,-1,153
 760 159 760 159 766 159 c 128,-1,154
 772 159 772 159 776.5 163 c 128,-1,155
 781 167 781 167 781 174 c 2,156,-1
 781 218 l 2,157,158
 781 224 781 224 776.5 228 c 128,-1,159
 772 232 772 232 766 232 c 256,147,148
766 129 m 256,160,161
 760 129 760 129 755.5 125 c 128,-1,162
 751 121 751 121 751 115 c 2,163,-1
 751 71 l 2,164,165
 751 64 751 64 755.5 60 c 128,-1,166
 760 56 760 56 766 56 c 128,-1,167
 772 56 772 56 776.5 60 c 128,-1,168
 781 64 781 64 781 71 c 2,169,-1
 781 115 l 2,170,171
 781 121 781 121 776.5 125 c 128,-1,172
 772 129 772 129 766 129 c 256,160,161
766 335 m 256,173,174
 760 335 760 335 755.5 331 c 128,-1,175
 751 327 751 327 751 321 c 2,176,-1
 751 277 l 2,177,178
 751 270 751 270 755.5 266 c 128,-1,179
 760 262 760 262 766 262 c 128,-1,180
 772 262 772 262 776.5 266 c 128,-1,181
 781 270 781 270 781 277 c 2,182,-1
 781 321 l 2,183,184
 781 327 781 327 776.5 331 c 128,-1,185
 772 335 772 335 766 335 c 256,173,174
270 -18 m 2,186,-1
 226 -18 l 2,187,188
 220 -18 220 -18 215.5 -22 c 128,-1,189
 211 -26 211 -26 211 -32.5 c 128,-1,190
 211 -39 211 -39 215.5 -43 c 128,-1,191
 220 -47 220 -47 226 -47 c 2,192,-1
 270 -47 l 2,193,194
 276 -47 276 -47 280.5 -43 c 128,-1,195
 285 -39 285 -39 285 -32.5 c 128,-1,196
 285 -26 285 -26 280.5 -22 c 128,-1,197
 276 -18 276 -18 270 -18 c 2,186,-1
682 -18 m 2,198,-1
 638 -18 l 2,199,200
 632 -18 632 -18 627.5 -22 c 128,-1,201
 623 -26 623 -26 623 -32.5 c 128,-1,202
 623 -39 623 -39 627.5 -43 c 128,-1,203
 632 -47 632 -47 638 -47 c 2,204,-1
 682 -47 l 2,205,206
 688 -47 688 -47 692.5 -43 c 128,-1,207
 697 -39 697 -39 697 -32.5 c 128,-1,208
 697 -26 697 -26 692.5 -22 c 128,-1,209
 688 -18 688 -18 682 -18 c 2,198,-1
579 -18 m 2,210,-1
 535 -18 l 2,211,212
 529 -18 529 -18 524.5 -22 c 128,-1,213
 520 -26 520 -26 520 -32.5 c 128,-1,214
 520 -39 520 -39 524.5 -43 c 128,-1,215
 529 -47 529 -47 535 -47 c 2,216,-1
 579 -47 l 2,217,218
 585 -47 585 -47 589.5 -43 c 128,-1,219
 594 -39 594 -39 594 -32.5 c 128,-1,220
 594 -26 594 -26 589.5 -22 c 128,-1,221
 585 -18 585 -18 579 -18 c 2,210,-1
373 -18 m 2,222,-1
 329 -18 l 2,223,224
 323 -18 323 -18 318.5 -22 c 128,-1,225
 314 -26 314 -26 314 -32.5 c 128,-1,226
 314 -39 314 -39 318.5 -43 c 128,-1,227
 323 -47 323 -47 329 -47 c 2,228,-1
 373 -47 l 2,229,230
 379 -47 379 -47 383.5 -43 c 128,-1,231
 388 -39 388 -39 388 -32.5 c 128,-1,232
 388 -26 388 -26 383.5 -22 c 128,-1,233
 379 -18 379 -18 373 -18 c 2,222,-1
476 -18 m 2,234,-1
 432 -18 l 2,235,236
 426 -18 426 -18 421.5 -22 c 128,-1,237
 417 -26 417 -26 417 -32.5 c 128,-1,238
 417 -39 417 -39 421.5 -43 c 128,-1,239
 426 -47 426 -47 432 -47 c 2,240,-1
 476 -47 l 2,241,242
 482 -47 482 -47 486.5 -43 c 128,-1,243
 491 -39 491 -39 491 -32.5 c 128,-1,244
 491 -26 491 -26 486.5 -22 c 128,-1,245
 482 -18 482 -18 476 -18 c 2,234,-1
891 544 m 2,246,-1
 673 743 l 2,247,248
 666 749 666 749 657.5 745.5 c 128,-1,249
 649 742 649 742 648 732 c 2,250,-1
 648 612 l 1,251,252
 622 612 622 612 571.5 601 c 128,-1,253
 521 590 521 590 465 559 c 0,254,255
 405 528 405 528 354 452.5 c 128,-1,256
 303 377 303 377 300 239 c 0,257,258
 300 233 300 233 304.5 229 c 128,-1,259
 309 225 309 225 315 225 c 128,-1,260
 321 225 321 225 325.5 229 c 128,-1,261
 330 233 330 233 330 239 c 0,262,263
 327 295 327 295 399 367 c 128,-1,264
 471 439 471 439 648 453 c 1,265,-1
 648 335 l 2,266,267
 649 326 649 326 657.5 322.5 c 128,-1,268
 666 319 666 319 673 324 c 2,269,-1
 891 522 l 2,270,271
 896 527 896 527 896 533 c 128,-1,272
 896 539 896 539 891 544 c 2,246,-1
678 368 m 1,273,-1
 678 468 l 2,274,275
 678 474 678 474 674 478 c 128,-1,276
 670 482 670 482 663 482 c 1,277,278
 663 482 663 482 663 482 c 1,279,280
 538 480 538 480 459.5 442.5 c 128,-1,281
 381 405 381 405 343 353 c 1,282,283
 399 514 399 514 514 552 c 128,-1,284
 629 590 629 590 663 583 c 0,285,286
 669 583 669 583 673.5 587.5 c 128,-1,287
 678 592 678 592 678 598 c 2,288,-1
 678 699 l 1,289,-1
 859 533 l 1,290,-1
 678 368 l 1,273,-1
EndSplineSet
EndChar

StartChar: thin-email-open
Encoding: 57638 57638 39
Width: 1000
Flags: W
LayerCount: 2
Fore
SplineSet
815 424 m 2,0,-1
 706 350 l 1,1,-1
 706 500 l 2,2,3
 706 506 706 506 701.5 510.5 c 128,-1,4
 697 515 697 515 691 515 c 2,5,-1
 309 515 l 2,6,7
 303 515 303 515 298.5 510.5 c 128,-1,8
 294 506 294 506 294 500 c 2,9,-1
 294 350 l 1,10,-1
 185 424 l 2,11,12
 180 428 180 428 174 426.5 c 128,-1,13
 168 425 168 425 164.5 420 c 128,-1,14
 161 415 161 415 162 409 c 128,-1,15
 163 403 163 403 168 400 c 2,16,-1
 443 212 l 2,17,18
 455 204 455 204 470 200 c 128,-1,19
 485 196 485 196 500 196 c 128,-1,20
 515 196 515 196 530 200 c 128,-1,21
 545 204 545 204 557 212 c 2,22,-1
 832 400 l 2,23,24
 837 403 837 403 838 409 c 128,-1,25
 839 415 839 415 835.5 420 c 128,-1,26
 832 425 832 425 826 426.5 c 128,-1,27
 820 428 820 428 815 424 c 2,0,-1
540 237 m 2,28,29
 523 226 523 226 500 226 c 128,-1,30
 477 226 477 226 460 237 c 2,31,-1
 321 331 l 1,32,33
 324 334 324 334 324 339 c 2,34,-1
 324 486 l 1,35,-1
 677 486 l 1,36,-1
 677 339 l 2,37,38
 677 334 677 334 679 331 c 2,39,-1
 540 237 l 2,28,29
875 481 m 2,40,-1
 556 726 l 2,41,42
 533 744 533 744 500.5 744 c 128,-1,43
 468 744 468 744 444 726 c 2,44,-1
 125 481 l 2,45,46
 115 473 115 473 109 460 c 128,-1,47
 103 447 103 447 103 434 c 2,48,-1
 103 30 l 2,49,50
 104 -2 104 -2 124.5 -22.5 c 128,-1,51
 145 -43 145 -43 176 -44 c 2,52,-1
 824 -44 l 2,53,54
 855 -43 855 -43 875.5 -22.5 c 128,-1,55
 896 -2 896 -2 897 30 c 2,56,-1
 897 434 l 2,57,58
 897 447 897 447 891 460 c 128,-1,59
 885 473 885 473 875 481 c 2,40,-1
868 30 m 2,60,61
 868 11 868 11 855.5 -2 c 128,-1,62
 843 -15 843 -15 824 -15 c 2,63,-1
 176 -15 l 2,64,65
 158 -15 158 -15 145.5 -2 c 128,-1,66
 133 11 133 11 132 30 c 2,67,-1
 132 434 l 2,68,69
 132 440 132 440 135.5 447 c 128,-1,70
 139 454 139 454 143 457 c 2,71,-1
 462 703 l 2,72,73
 478 714 478 714 500 714 c 128,-1,74
 522 714 522 714 538 703 c 2,75,-1
 857 457 l 2,76,77
 861 454 861 454 864.5 447 c 128,-1,78
 868 440 868 440 868 434 c 2,79,-1
 868 30 l 2,60,61
603 427 m 2,80,-1
 397 427 l 2,81,82
 391 427 391 427 386.5 422.5 c 128,-1,83
 382 418 382 418 382 412 c 128,-1,84
 382 406 382 406 386.5 401.5 c 128,-1,85
 391 397 391 397 397 397 c 2,86,-1
 603 397 l 2,87,88
 609 397 609 397 613.5 401.5 c 128,-1,89
 618 406 618 406 618 412 c 128,-1,90
 618 418 618 418 613.5 422.5 c 128,-1,91
 609 427 609 427 603 427 c 2,80,-1
603 368 m 2,92,-1
 397 368 l 2,93,94
 391 368 391 368 386.5 363.5 c 128,-1,95
 382 359 382 359 382 353 c 128,-1,96
 382 347 382 347 386.5 343 c 128,-1,97
 391 339 391 339 397 339 c 2,98,-1
 603 339 l 2,99,100
 609 339 609 339 613.5 343 c 128,-1,101
 618 347 618 347 618 353 c 128,-1,102
 618 359 618 359 613.5 363.5 c 128,-1,103
 609 368 609 368 603 368 c 2,92,-1
EndSplineSet
EndChar

StartChar: thin-planet
Encoding: 57639 57639 40
Width: 1000
Flags: W
LayerCount: 2
Fore
SplineSet
500 747 m 1,0,1
 331 743 331 743 219 631 c 128,-1,2
 107 519 107 519 103 350 c 1,3,4
 107 181 107 181 219 69 c 128,-1,5
 331 -43 331 -43 500 -47 c 1,6,7
 669 -43 669 -43 781 69 c 128,-1,8
 893 181 893 181 897 350 c 1,9,10
 893 519 893 519 781 631 c 128,-1,11
 669 743 669 743 500 747 c 1,0,1
793 128 m 1,12,13
 783 136 783 136 757.5 150 c 128,-1,14
 732 164 732 164 692 178 c 1,15,16
 710 251 710 251 712 335 c 1,17,-1
 867 335 l 1,18,19
 865 277 865 277 845.5 224.5 c 128,-1,20
 826 172 826 172 793 128 c 1,12,13
133 335 m 1,21,-1
 288 335 l 1,22,23
 290 251 290 251 308 178 c 1,24,25
 268 164 268 164 242.5 150 c 128,-1,26
 217 136 217 136 207 128 c 1,27,28
 174 172 174 172 154.5 224.5 c 128,-1,29
 135 277 135 277 133 335 c 1,21,-1
207 571 m 1,30,31
 217 563 217 563 242 549 c 128,-1,32
 267 535 267 535 307 520 c 1,33,34
 290 449 290 449 288 365 c 1,35,-1
 133 365 l 1,36,37
 135 423 135 423 154.5 475 c 128,-1,38
 174 527 174 527 207 571 c 1,30,31
515 491 m 1,39,40
 604 493 604 493 664 512 c 1,41,42
 681 444 681 444 683 365 c 1,43,-1
 515 365 l 1,44,-1
 515 491 l 1,39,40
515 520 m 1,45,-1
 515 716 l 1,46,47
 560 708 560 708 596.5 661 c 128,-1,48
 633 614 633 614 656 540 c 1,49,50
 599 524 599 524 515 520 c 1,45,-1
485 716 m 1,51,-1
 485 520 l 1,52,53
 401 524 401 524 344 540 c 1,54,55
 367 614 367 614 403.5 661 c 128,-1,56
 440 708 440 708 485 716 c 1,51,-1
485 491 m 1,57,-1
 485 365 l 1,58,-1
 317 365 l 1,59,60
 319 444 319 444 336 512 c 1,61,62
 397 493 397 493 485 491 c 1,57,-1
317 335 m 1,63,-1
 485 335 l 1,64,-1
 485 208 l 1,65,66
 397 204 397 204 337 187 c 1,67,68
 319 256 319 256 317 335 c 1,63,-1
485 178 m 1,69,-1
 485 -16 l 1,70,71
 441 -8 441 -8 404.5 38.5 c 128,-1,72
 368 85 368 85 345 159 c 1,73,74
 402 175 402 175 485 178 c 1,69,-1
515 -16 m 1,75,-1
 515 178 l 1,76,77
 599 175 599 175 655 159 c 1,78,79
 632 85 632 85 595.5 38.5 c 128,-1,80
 559 -8 559 -8 515 -16 c 1,75,-1
515 208 m 1,81,-1
 515 335 l 1,82,-1
 683 335 l 1,83,84
 681 256 681 256 663 187 c 1,85,86
 603 204 603 204 515 208 c 1,81,-1
712 365 m 1,87,88
 710 449 710 449 693 520 c 1,89,90
 734 535 734 535 759 549 c 128,-1,91
 784 563 784 563 794 571 c 1,92,93
 827 527 827 527 846 475 c 128,-1,94
 865 423 865 423 867 365 c 1,95,-1
 712 365 l 1,87,88
775 594 m 1,96,97
 766 588 766 588 744 575 c 128,-1,98
 722 562 722 562 685 549 c 1,99,100
 669 599 669 599 647 639 c 128,-1,101
 625 679 625 679 597 705 c 1,102,103
 650 691 650 691 695 662.5 c 128,-1,104
 740 634 740 634 775 594 c 1,96,97
403 705 m 1,105,106
 375 679 375 679 353 639 c 128,-1,107
 331 599 331 599 315 549 c 1,108,109
 279 562 279 562 256.5 575 c 128,-1,110
 234 588 234 588 225 594 c 1,111,112
 260 634 260 634 305 662.5 c 128,-1,113
 350 691 350 691 403 705 c 1,105,106
226 105 m 1,114,115
 235 112 235 112 257.5 124.5 c 128,-1,116
 280 137 280 137 316 150 c 1,117,118
 331 100 331 100 353 60.5 c 128,-1,119
 375 21 375 21 403 -5 c 1,120,121
 351 9 351 9 306 37.5 c 128,-1,122
 261 66 261 66 226 105 c 1,114,115
597 -5 m 1,123,124
 653 49 653 49 684 150 c 1,125,126
 720 137 720 137 742.5 124.5 c 128,-1,127
 765 112 765 112 774 105 c 1,128,129
 739 66 739 66 694 37.5 c 128,-1,130
 649 9 649 9 597 -5 c 1,123,124
EndSplineSet
EndChar

StartChar: thin-pointer
Encoding: 57640 57640 41
Width: 1000
Flags: W
LayerCount: 2
Fore
SplineSet
791 438 m 0,0,1
 765 438 765 438 745 422 c 1,2,3
 740 448 740 448 720.5 464.5 c 128,-1,4
 701 481 701 481 673 482 c 0,5,6
 641 481 641 481 620 459 c 1,7,8
 610 476 610 476 593 486.5 c 128,-1,9
 576 497 576 497 555 497 c 0,10,11
 531 496 531 496 511 482 c 1,12,-1
 511 674 l 2,13,14
 510 705 510 705 489.5 725.5 c 128,-1,15
 469 746 469 746 437.5 746 c 128,-1,16
 406 746 406 746 385.5 725.5 c 128,-1,17
 365 705 365 705 364 674 c 2,18,-1
 364 266 l 1,19,-1
 256 365 l 2,20,21
 232 385 232 385 204 386 c 128,-1,22
 176 387 176 387 156 367 c 128,-1,23
 136 347 136 347 135.5 318 c 128,-1,24
 135 289 135 289 153 265 c 2,25,-1
 287 93 l 2,26,27
 303 73 303 73 325.5 47.5 c 128,-1,28
 348 22 348 22 366 4 c 2,29,-1
 371 -1 l 2,30,31
 392 -21 392 -21 423 -34 c 128,-1,32
 454 -47 454 -47 482 -47 c 2,33,-1
 555 -47 l 2,34,35
 569 -46 569 -46 569 -32.5 c 128,-1,36
 569 -19 569 -19 555 -18 c 2,37,-1
 482 -18 l 2,38,39
 459 -18 459 -18 433.5 -7 c 128,-1,40
 408 4 408 4 392 20 c 2,41,-1
 387 25 l 2,42,43
 369 42 369 42 347.5 66.5 c 128,-1,44
 326 91 326 91 310 111 c 2,45,-1
 177 283 l 2,46,47
 165 299 165 299 165 317 c 128,-1,48
 165 335 165 335 176.5 346.5 c 128,-1,49
 188 358 188 358 205 357 c 128,-1,50
 222 356 222 356 236 344 c 2,51,-1
 364 226 l 1,52,-1
 364 218 l 2,53,54
 364 212 364 212 368.5 207.5 c 128,-1,55
 373 203 373 203 379 203 c 128,-1,56
 385 203 385 203 389.5 207.5 c 128,-1,57
 394 212 394 212 394 218 c 2,58,-1
 394 674 l 2,59,60
 394 693 394 693 406.5 705.5 c 128,-1,61
 419 718 419 718 438 718 c 128,-1,62
 457 718 457 718 469.5 705.5 c 128,-1,63
 482 693 482 693 482 674 c 2,64,-1
 482 335 l 2,65,66
 482 329 482 329 486.5 325 c 128,-1,67
 491 321 491 321 497 321 c 0,68,69
 510 322 510 322 511 335 c 2,70,-1
 511 424 l 2,71,72
 512 443 512 443 524.5 455.5 c 128,-1,73
 537 468 537 468 555.5 468 c 128,-1,74
 574 468 574 468 587 455.5 c 128,-1,75
 600 443 600 443 600 424 c 2,76,-1
 600 321 l 2,77,78
 600 315 600 315 604 310.5 c 128,-1,79
 608 306 608 306 614 306 c 128,-1,80
 620 306 620 306 624.5 310.5 c 128,-1,81
 629 315 629 315 629 321 c 2,82,-1
 629 409 l 2,83,84
 630 428 630 428 642.5 440.5 c 128,-1,85
 655 453 655 453 673.5 453 c 128,-1,86
 692 453 692 453 704.5 440.5 c 128,-1,87
 717 428 717 428 717 409 c 2,88,-1
 717 306 l 2,89,90
 717 300 717 300 721.5 295.5 c 128,-1,91
 726 291 726 291 732 291 c 128,-1,92
 738 291 738 291 742.5 295.5 c 128,-1,93
 747 300 747 300 747 306 c 2,94,-1
 747 365 l 2,95,96
 748 384 748 384 760.5 396.5 c 128,-1,97
 773 409 773 409 791.5 409 c 128,-1,98
 810 409 810 409 822.5 396.5 c 128,-1,99
 835 384 835 384 835 365 c 2,100,-1
 835 71 l 2,101,102
 834 33 834 33 811.5 8 c 128,-1,103
 789 -17 789 -17 754 -18 c 2,104,-1
 658 -18 l 2,105,106
 645 -19 645 -19 644 -32 c 0,107,108
 645 -46 645 -46 658 -47 c 2,109,-1
 754 -47 l 2,110,111
 801 -46 801 -46 832 -12.5 c 128,-1,112
 863 21 863 21 864 71 c 2,113,-1
 864 365 l 2,114,115
 863 396 863 396 842.5 416.5 c 128,-1,116
 822 437 822 437 791 438 c 0,0,1
EndSplineSet
EndChar

StartChar: thin-email-search
Encoding: 57641 57641 42
Width: 1000
Flags: W
LayerCount: 2
Fore
SplineSet
695 448 m 1,0,1
 692 573 692 573 608.5 656 c 128,-1,2
 525 739 525 739 400 742 c 1,3,4
 275 739 275 739 192 656 c 128,-1,5
 109 573 109 573 106 448 c 1,6,7
 109 323 109 323 192 239.5 c 128,-1,8
 275 156 275 156 400 153 c 1,9,10
 525 156 525 156 608.5 239.5 c 128,-1,11
 692 323 692 323 695 448 c 1,0,1
400 183 m 1,12,13
 288 186 288 186 213.5 261 c 128,-1,14
 139 336 139 336 136 448 c 1,15,16
 139 560 139 560 213.5 634.5 c 128,-1,17
 288 709 288 709 400 712 c 1,18,19
 512 709 512 709 587 634.5 c 128,-1,20
 662 560 662 560 665 448 c 1,21,22
 662 336 662 336 587 261 c 128,-1,23
 512 186 512 186 400 183 c 1,12,13
348 647 m 0,24,25
 279 628 279 628 237.5 573.5 c 128,-1,26
 196 519 196 519 195 448 c 0,27,28
 195 392 195 392 222 345 c 0,29,30
 227 337 227 337 235 337 c 0,31,32
 239 337 239 337 242 339 c 0,33,34
 247 342 247 342 249 348 c 128,-1,35
 251 354 251 354 248 359 c 0,36,37
 224 401 224 401 224 448 c 0,38,39
 225 509 225 509 261 555.5 c 128,-1,40
 297 602 297 602 356 618 c 0,41,42
 361 620 361 620 364 625 c 128,-1,43
 367 630 367 630 365.5 636 c 128,-1,44
 364 642 364 642 359 645 c 128,-1,45
 354 648 354 648 348 647 c 0,24,25
878 68 m 2,46,-1
 709 237 l 2,47,48
 696 250 696 250 678 250 c 128,-1,49
 660 250 660 250 646 237 c 2,50,-1
 615 206 l 2,51,52
 602 193 602 193 602 175 c 128,-1,53
 602 157 602 157 615 143 c 2,54,-1
 784 -25 l 2,55,56
 792 -33 792 -33 803 -37.5 c 128,-1,57
 814 -42 814 -42 826 -42 c 128,-1,58
 838 -42 838 -42 848 -37 c 2,59,-1
 850 -36 l 1,60,-1
 888 2 l 1,61,-1
 889 4 l 2,62,63
 896 20 896 20 892.5 38 c 128,-1,64
 889 56 889 56 878 68 c 2,46,-1
863 18 m 1,65,-1
 834 -11 l 2,66,67
 827 -13 827 -13 818.5 -11.5 c 128,-1,68
 810 -10 810 -10 805 -5 c 2,69,-1
 636 164 l 2,70,71
 627 175 627 175 636 185 c 2,72,-1
 667 216 l 2,73,74
 672 221 672 221 677.5 221 c 128,-1,75
 683 221 683 221 688 216 c 2,76,-1
 857 47 l 2,77,78
 862 42 862 42 863.5 34 c 128,-1,79
 865 26 865 26 863 18 c 1,65,-1
EndSplineSet
EndChar

StartChar: thin-external-left
Encoding: 57642 57642 43
Width: 1000
Flags: W
LayerCount: 2
Fore
SplineSet
219 71 m 2,0,1
 219 64 219 64 223.5 60 c 128,-1,2
 228 56 228 56 234 56 c 128,-1,3
 240 56 240 56 244.5 60 c 128,-1,4
 249 64 249 64 249 71 c 2,5,-1
 249 115 l 2,6,7
 249 121 249 121 244.5 125 c 128,-1,8
 240 129 240 129 234 129 c 128,-1,9
 228 129 228 129 223.5 125 c 128,-1,10
 219 121 219 121 219 115 c 2,11,-1
 219 71 l 2,0,1
268 -11 m 0,12,13
 255 -2 255 -2 250 15 c 0,14,15
 248 21 248 21 243 24 c 128,-1,16
 238 27 238 27 232 25.5 c 128,-1,17
 226 24 226 24 223 19 c 128,-1,18
 220 14 220 14 221 8 c 0,19,20
 229 -20 229 -20 252 -36 c 0,21,22
 256 -38 256 -38 260 -38 c 0,23,24
 268 -38 268 -38 272 -32.5 c 128,-1,25
 276 -27 276 -27 274.5 -21 c 128,-1,26
 273 -15 273 -15 268 -11 c 0,12,13
464 -18 m 2,27,-1
 420 -18 l 2,28,29
 407 -19 407 -19 406 -32 c 0,30,31
 407 -46 407 -46 420 -47 c 2,32,-1
 464 -47 l 2,33,34
 478 -46 478 -46 478 -32.5 c 128,-1,35
 478 -19 478 -19 464 -18 c 2,27,-1
362 -18 m 2,36,-1
 317 -18 l 2,37,38
 304 -19 304 -19 303 -32 c 0,39,40
 304 -46 304 -46 317 -47 c 2,41,-1
 362 -47 l 2,42,43
 375 -46 375 -46 376 -32 c 0,44,45
 375 -19 375 -19 362 -18 c 2,36,-1
672 615 m 2,46,-1
 716 615 l 2,47,48
 730 616 730 616 730 629.5 c 128,-1,49
 730 643 730 643 716 644 c 2,50,-1
 672 644 l 2,51,52
 659 643 659 643 658 630 c 0,53,54
 659 616 659 616 672 615 c 2,46,-1
775 615 m 2,55,-1
 819 615 l 2,56,57
 833 616 833 616 833 629.5 c 128,-1,58
 833 643 833 643 819 644 c 2,59,-1
 775 644 l 2,60,61
 762 643 762 643 761 630 c 0,62,63
 762 616 762 616 775 615 c 2,55,-1
567 -18 m 2,64,-1
 523 -18 l 2,65,66
 510 -19 510 -19 509 -32 c 0,67,68
 510 -46 510 -46 523 -47 c 2,69,-1
 567 -47 l 2,70,71
 581 -46 581 -46 581 -32.5 c 128,-1,72
 581 -19 581 -19 567 -18 c 2,64,-1
234 262 m 256,73,74
 240 262 240 262 244.5 266 c 128,-1,75
 249 270 249 270 249 276 c 2,76,-1
 249 321 l 2,77,78
 249 327 249 327 244.5 331 c 128,-1,79
 240 335 240 335 234 335 c 128,-1,80
 228 335 228 335 223.5 331 c 128,-1,81
 219 327 219 327 219 321 c 2,82,-1
 219 276 l 2,83,84
 219 270 219 270 223.5 266 c 128,-1,85
 228 262 228 262 234 262 c 256,73,74
569 615 m 2,86,-1
 614 615 l 2,87,88
 627 616 627 616 628 630 c 0,89,90
 627 643 627 643 614 644 c 2,91,-1
 569 644 l 2,92,93
 556 643 556 643 555 630 c 0,94,95
 556 616 556 616 569 615 c 2,86,-1
219 174 m 2,96,97
 219 167 219 167 223.5 163 c 128,-1,98
 228 159 228 159 234 159 c 128,-1,99
 240 159 240 159 244.5 163 c 128,-1,100
 249 167 249 167 249 174 c 2,101,-1
 249 218 l 2,102,103
 249 224 249 224 244.5 228 c 128,-1,104
 240 232 240 232 234 232 c 128,-1,105
 228 232 228 232 223.5 228 c 128,-1,106
 219 224 219 224 219 218 c 2,107,-1
 219 174 l 2,96,97
881 415 m 0,108,109
 868 414 868 414 867 401 c 2,110,-1
 867 356 l 2,111,112
 868 343 868 343 881 342 c 0,113,114
 887 342 887 342 891.5 346 c 128,-1,115
 896 350 896 350 896 356 c 2,116,-1
 896 401 l 2,117,118
 896 407 896 407 891.5 411 c 128,-1,119
 887 415 887 415 881 415 c 0,108,109
881 312 m 0,120,121
 868 311 868 311 867 298 c 2,122,-1
 867 253 l 2,123,124
 868 240 868 240 881 239 c 0,125,126
 887 239 887 239 891.5 243 c 128,-1,127
 896 247 896 247 896 253 c 2,128,-1
 896 298 l 2,129,130
 896 304 896 304 891.5 308 c 128,-1,131
 887 312 887 312 881 312 c 0,120,121
670 -18 m 2,132,-1
 626 -18 l 2,133,134
 613 -19 613 -19 612 -32 c 0,135,136
 613 -46 613 -46 626 -47 c 2,137,-1
 670 -47 l 2,138,139
 684 -46 684 -46 684 -32.5 c 128,-1,140
 684 -19 684 -19 670 -18 c 2,132,-1
881 209 m 0,141,142
 868 208 868 208 867 195 c 2,143,-1
 867 151 l 2,144,145
 868 137 868 137 881 136 c 0,146,147
 887 136 887 136 891.5 140 c 128,-1,148
 896 144 896 144 896 151 c 2,149,-1
 896 195 l 2,150,151
 896 201 896 201 891.5 205 c 128,-1,152
 887 209 887 209 881 209 c 0,141,142
881 518 m 0,153,154
 868 517 868 517 867 504 c 2,155,-1
 867 459 l 2,156,157
 868 446 868 446 881 445 c 0,158,159
 887 445 887 445 891.5 449 c 128,-1,160
 896 453 896 453 896 459 c 2,161,-1
 896 504 l 2,162,163
 896 510 896 510 891.5 514 c 128,-1,164
 887 518 887 518 881 518 c 0,153,154
882 613 m 0,165,166
 878 618 878 618 872 619 c 128,-1,167
 866 620 866 620 861 616 c 128,-1,168
 856 612 856 612 855 606 c 128,-1,169
 854 600 854 600 858 595 c 0,170,171
 867 584 867 584 867 571 c 2,172,-1
 867 562 l 2,173,174
 868 549 868 549 881 548 c 0,175,176
 887 548 887 548 891.5 552 c 128,-1,177
 896 556 896 556 896 562 c 2,178,-1
 896 571 l 2,179,180
 896 594 896 594 882 613 c 0,165,166
773 -18 m 2,181,-1
 729 -18 l 2,182,183
 716 -19 716 -19 715 -32 c 0,184,185
 716 -46 716 -46 729 -47 c 2,186,-1
 773 -47 l 2,187,188
 779 -47 779 -47 783.5 -43 c 128,-1,189
 788 -39 788 -39 788 -32.5 c 128,-1,190
 788 -26 788 -26 783.5 -22 c 128,-1,191
 779 -18 779 -18 773 -18 c 2,181,-1
881 106 m 0,192,193
 868 105 868 105 867 92 c 2,194,-1
 867 48 l 2,195,196
 868 34 868 34 881 33 c 0,197,198
 887 33 887 33 891.5 37 c 128,-1,199
 896 41 896 41 896 48 c 2,200,-1
 896 92 l 2,201,202
 896 98 896 98 891.5 102 c 128,-1,203
 887 106 887 106 881 106 c 0,192,193
857 1 m 0,204,205
 846 -13 846 -13 829 -17 c 0,206,207
 823 -18 823 -18 820 -23 c 128,-1,208
 817 -28 817 -28 818 -34 c 0,209,210
 821 -45 821 -45 832 -46 c 2,211,-1
 835 -46 l 1,212,213
 863 -39 863 -39 880 -18 c 0,214,215
 884 -13 884 -13 883.5 -7 c 128,-1,216
 883 -1 883 -1 878 3 c 128,-1,217
 873 7 873 7 867 6.5 c 128,-1,218
 861 6 861 6 857 1 c 0,204,205
352 612 m 1,219,-1
 352 732 l 2,220,221
 351 742 351 742 342.5 745.5 c 128,-1,222
 334 749 334 749 327 743 c 2,223,-1
 109 544 l 2,224,225
 104 539 104 539 104 533 c 128,-1,226
 104 527 104 527 109 522 c 2,227,-1
 327 324 l 2,228,229
 335 319 335 319 343 322.5 c 128,-1,230
 351 326 351 326 352 335 c 2,231,-1
 352 453 l 1,232,233
 529 439 529 439 601 367 c 128,-1,234
 673 295 673 295 670 239 c 0,235,236
 670 233 670 233 674.5 229 c 128,-1,237
 679 225 679 225 685 225 c 128,-1,238
 691 225 691 225 695.5 229 c 128,-1,239
 700 233 700 233 700 239 c 0,240,241
 685 479 685 479 552 548 c 128,-1,242
 419 617 419 617 352 612 c 1,219,-1
337 482 m 1,243,244
 337 482 337 482 337 482 c 1,245,246
 331 482 331 482 326.5 478 c 128,-1,247
 322 474 322 474 322 468 c 2,248,-1
 322 368 l 1,249,-1
 141 533 l 1,250,-1
 322 699 l 1,251,-1
 322 598 l 2,252,253
 322 592 322 592 326.5 587.5 c 128,-1,254
 331 583 331 583 337 583 c 0,255,256
 371 590 371 590 486 552 c 128,-1,257
 601 514 601 514 657 353 c 1,258,259
 619 405 619 405 540.5 442.5 c 128,-1,260
 462 480 462 480 337 482 c 1,243,244
EndSplineSet
EndChar

StartChar: thin-shirt
Encoding: 57643 57643 44
Width: 1000
Flags: W
LayerCount: 2
Fore
SplineSet
809 622 m 2,0,-1
 721 622 l 1,1,-1
 721 710 l 2,2,3
 721 726 721 726 714 733 c 128,-1,4
 707 740 707 740 698 740 c 0,5,6
 696 740 696 740 693 739 c 1,7,8
 693 740 693 740 691 740 c 2,9,-1
 309 740 l 1,10,-1
 307 739 l 2,11,12
 305 740 305 740 302 740 c 0,13,14
 293 740 293 740 286 733 c 128,-1,15
 279 726 279 726 279 710 c 2,16,-1
 279 622 l 1,17,-1
 191 622 l 2,18,19
 160 621 160 621 139.5 600.5 c 128,-1,20
 119 580 119 580 118 549 c 2,21,-1
 118 34 l 2,22,23
 119 2 119 2 139.5 -18.5 c 128,-1,24
 160 -39 160 -39 191 -40 c 2,25,-1
 809 -40 l 2,26,27
 840 -39 840 -39 860.5 -18.5 c 128,-1,28
 881 2 881 2 882 34 c 2,29,-1
 882 549 l 2,30,31
 882 580 882 580 861.5 600.5 c 128,-1,32
 841 621 841 621 809 622 c 2,0,-1
309 702 m 1,33,-1
 469 531 l 2,34,35
 472 527 472 527 472 525 c 128,-1,36
 472 523 472 523 467 521 c 2,37,-1
 315 456 l 2,38,39
 312 455 312 455 311 455 c 2,40,-1
 310 456 l 2,41,42
 309 456 309 456 309 460 c 2,43,-1
 309 702 l 1,33,-1
485 -11 m 1,44,-1
 191 -11 l 2,45,46
 173 -11 173 -11 160.5 2 c 128,-1,47
 148 15 148 15 147 34 c 2,48,-1
 147 549 l 2,49,50
 148 568 148 568 160.5 580.5 c 128,-1,51
 173 593 173 593 191 593 c 2,52,-1
 279 593 l 1,53,-1
 279 460 l 2,54,55
 279 445 279 445 288 435.5 c 128,-1,56
 297 426 297 426 311 426 c 0,57,58
 319 426 319 426 327 429 c 2,59,-1
 479 494 l 2,60,61
 482 495 482 495 485 498 c 2,62,-1
 485 -11 l 1,44,-1
500 534 m 1,63,64
 498 543 498 543 491 551 c 2,65,-1
 342 710 l 1,66,-1
 658 710 l 1,67,-1
 509 551 l 2,68,69
 503 543 503 543 500 534 c 1,63,64
691 702 m 1,70,-1
 691 460 l 2,71,72
 691 456 691 456 690 456 c 2,73,-1
 689 455 l 2,74,75
 688 455 688 455 685 456 c 2,76,-1
 533 521 l 2,77,78
 529 523 529 523 528.5 525 c 128,-1,79
 528 527 528 527 531 531 c 2,80,-1
 691 702 l 1,70,-1
853 34 m 2,81,82
 853 15 853 15 840.5 2 c 128,-1,83
 828 -11 828 -11 809 -11 c 2,84,-1
 515 -11 l 1,85,-1
 515 498 l 2,86,87
 518 495 518 495 521 494 c 2,88,-1
 673 429 l 2,89,90
 681 426 681 426 689 426 c 0,91,92
 703 426 703 426 712 435.5 c 128,-1,93
 721 445 721 445 721 460 c 2,94,-1
 721 593 l 1,95,-1
 809 593 l 2,96,97
 828 593 828 593 840.5 580.5 c 128,-1,98
 853 568 853 568 853 549 c 2,99,-1
 853 34 l 2,81,82
750 328 m 2,100,-1
 632 328 l 2,101,102
 626 328 626 328 622 323.5 c 128,-1,103
 618 319 618 319 618 313 c 128,-1,104
 618 307 618 307 622 302.5 c 128,-1,105
 626 298 626 298 632 298 c 2,106,-1
 750 298 l 2,107,108
 756 298 756 298 760.5 302.5 c 128,-1,109
 765 307 765 307 765 313 c 128,-1,110
 765 319 765 319 760.5 323.5 c 128,-1,111
 756 328 756 328 750 328 c 2,100,-1
EndSplineSet
EndChar

StartChar: thin-document-edit
Encoding: 57644 57644 45
Width: 1000
Flags: W
LayerCount: 2
Fore
SplineSet
691 394 m 0,0,1
 678 393 678 393 677 379 c 2,2,-1
 677 -3 l 2,3,4
 677 -9 677 -9 672.5 -13.5 c 128,-1,5
 668 -18 668 -18 662 -18 c 2,6,-1
 147 -18 l 2,7,8
 141 -18 141 -18 136.5 -13.5 c 128,-1,9
 132 -9 132 -9 132 -3 c 2,10,-1
 132 527 l 1,11,-1
 279 527 l 2,12,13
 298 527 298 527 311 539.5 c 128,-1,14
 324 552 324 552 324 571 c 2,15,-1
 324 718 l 1,16,-1
 662 718 l 2,17,18
 668 718 668 718 672.5 713.5 c 128,-1,19
 677 709 677 709 677 703 c 2,20,-1
 677 674 l 2,21,22
 677 668 677 668 681 663.5 c 128,-1,23
 685 659 685 659 691 659 c 128,-1,24
 697 659 697 659 701.5 663.5 c 128,-1,25
 706 668 706 668 706 674 c 2,26,-1
 706 703 l 2,27,28
 706 722 706 722 693.5 734.5 c 128,-1,29
 681 747 681 747 662 747 c 2,30,-1
 324 747 l 2,31,32
 308 747 308 747 291 740 c 128,-1,33
 274 733 274 733 263 722 c 2,34,-1
 128 587 l 2,35,36
 117 576 117 576 110 559 c 128,-1,37
 103 542 103 542 103 527 c 2,38,-1
 103 -3 l 2,39,40
 104 -21 104 -21 116.5 -33.5 c 128,-1,41
 129 -46 129 -46 147 -47 c 2,42,-1
 662 -47 l 2,43,44
 681 -46 681 -46 693.5 -33.5 c 128,-1,45
 706 -21 706 -21 706 -3 c 2,46,-1
 706 379 l 2,47,48
 706 386 706 386 701.5 390 c 128,-1,49
 697 394 697 394 691 394 c 0,0,1
149 566 m 2,50,-1
 284 701 l 2,51,52
 288 705 288 705 294 709 c 1,53,-1
 294 571 l 2,54,55
 294 565 294 565 290 560.5 c 128,-1,56
 286 556 286 556 279 556 c 2,57,-1
 141 556 l 1,58,59
 145 563 145 563 149 566 c 2,50,-1
746 640 m 2,60,61
 736 649 736 649 725 640 c 2,62,-1
 402 331 l 2,63,64
 399 329 399 329 398 326 c 2,65,-1
 354 208 l 2,66,67
 351 199 351 199 358 192 c 0,68,69
 362 189 362 189 368 188 c 0,70,71
 371 188 371 188 374 190 c 2,72,-1
 492 249 l 2,73,74
 494 249 494 249 496 251 c 2,75,-1
 805 560 l 2,76,77
 813 571 813 571 805 581 c 2,78,-1
 746 640 l 2,60,61
477 274 m 1,79,-1
 395 233 l 1,80,-1
 424 312 l 1,81,-1
 735 609 l 1,82,-1
 773 571 l 1,83,-1
 477 274 l 1,79,-1
824 732 m 2,84,-1
 818 732 l 1,85,-1
 759 674 l 1,86,-1
 838 594 l 1,87,-1
 897 653 l 1,88,-1
 897 659 l 2,89,90
 895 702 895 702 870 717.5 c 128,-1,91
 845 733 845 733 824 732 c 2,84,-1
838 636 m 1,92,-1
 800 674 l 1,93,-1
 829 703 l 1,94,95
 839 702 839 702 852 694 c 128,-1,96
 865 686 865 686 868 665 c 1,97,-1
 838 636 l 1,92,-1
EndSplineSet
EndChar

StartChar: thin-document-delete
Encoding: 57645 57645 46
Width: 1000
Flags: W
LayerCount: 2
Fore
SplineSet
721 188 m 0,0,1
 715 188 715 188 710.5 184 c 128,-1,2
 706 180 706 180 706 174 c 2,3,-1
 706 -3 l 2,4,5
 706 -9 706 -9 701.5 -13.5 c 128,-1,6
 697 -18 697 -18 691 -18 c 2,7,-1
 191 -18 l 2,8,9
 185 -18 185 -18 180.5 -13.5 c 128,-1,10
 176 -9 176 -9 176 -3 c 2,11,-1
 176 527 l 1,12,-1
 324 527 l 2,13,14
 343 527 343 527 355.5 539.5 c 128,-1,15
 368 552 368 552 368 571 c 2,16,-1
 368 718 l 1,17,-1
 691 718 l 2,18,19
 697 718 697 718 701.5 713.5 c 128,-1,20
 706 709 706 709 706 703 c 2,21,-1
 706 468 l 2,22,23
 706 462 706 462 710.5 457.5 c 128,-1,24
 715 453 715 453 721 453 c 128,-1,25
 727 453 727 453 731 457.5 c 128,-1,26
 735 462 735 462 735 468 c 2,27,-1
 735 703 l 2,28,29
 735 722 735 722 722.5 734.5 c 128,-1,30
 710 747 710 747 691 747 c 2,31,-1
 368 747 l 2,32,33
 352 747 352 747 335 740 c 128,-1,34
 318 733 318 733 307 722 c 2,35,-1
 172 587 l 2,36,37
 161 576 161 576 154 559 c 128,-1,38
 147 542 147 542 147 527 c 2,39,-1
 147 -3 l 2,40,41
 148 -21 148 -21 160.5 -33.5 c 128,-1,42
 173 -46 173 -46 191 -47 c 2,43,-1
 691 -47 l 2,44,45
 710 -46 710 -46 722.5 -33.5 c 128,-1,46
 735 -21 735 -21 735 -3 c 2,47,-1
 735 174 l 2,48,49
 734 187 734 187 721 188 c 0,0,1
193 566 m 2,50,-1
 328 701 l 2,51,52
 332 705 332 705 338 709 c 1,53,-1
 338 571 l 2,54,55
 338 565 338 565 334 560.5 c 128,-1,56
 330 556 330 556 324 556 c 2,57,-1
 185 556 l 1,58,59
 189 563 189 563 193 566 c 2,50,-1
741 321 m 1,60,-1
 849 428 l 2,61,62
 858 439 858 439 849 449 c 0,63,64
 839 457 839 457 828 449 c 2,65,-1
 721 341 l 1,66,-1
 613 449 l 2,67,68
 609 453 609 453 603 453 c 128,-1,69
 597 453 597 453 593 449 c 0,70,71
 584 439 584 439 593 428 c 2,72,-1
 700 321 l 1,73,-1
 593 213 l 2,74,75
 589 209 589 209 589 203 c 128,-1,76
 589 197 589 197 593 192.5 c 128,-1,77
 597 188 597 188 603.5 188 c 128,-1,78
 610 188 610 188 613 193 c 2,79,-1
 721 300 l 1,80,-1
 828 193 l 2,81,82
 833 188 833 188 838.5 188 c 128,-1,83
 844 188 844 188 849 192.5 c 128,-1,84
 854 197 854 197 854 203 c 128,-1,85
 854 209 854 209 849 213 c 2,86,-1
 741 321 l 1,60,-1
EndSplineSet
EndChar

StartChar: thin-money
Encoding: 57646 57646 47
Width: 1000
Flags: W
LayerCount: 2
Fore
SplineSet
897 652 m 1,0,1
 893 693 893 693 823 713 c 128,-1,2
 753 733 753 733 661.5 733 c 128,-1,3
 570 733 570 733 500 713 c 128,-1,4
 430 693 430 693 426 652 c 1,5,-1
 427 648 l 1,6,-1
 426 645 l 1,7,-1
 426 390 l 1,8,9
 384 395 384 395 338 395 c 0,10,11
 259 395 259 395 194 379.5 c 128,-1,12
 129 364 129 364 108 333 c 0,13,14
 103 328 103 328 103 322 c 2,15,-1
 103 49 l 1,16,17
 107 9 107 9 178 -12 c 128,-1,18
 249 -33 249 -33 338.5 -33 c 128,-1,19
 428 -33 428 -33 499 -14 c 128,-1,20
 570 5 570 5 574 46 c 1,21,-1
 574 322 l 2,22,23
 574 328 574 328 568 333 c 0,24,25
 557 351 557 351 527.5 364 c 128,-1,26
 498 377 498 377 456 385 c 1,27,-1
 456 435 l 1,28,29
 489 415 489 415 544 405 c 128,-1,30
 599 395 599 395 661.5 395 c 128,-1,31
 724 395 724 395 779.5 405 c 128,-1,32
 835 415 835 415 868 435 c 1,33,-1
 868 388 l 2,34,35
 868 373 868 373 815 355.5 c 128,-1,36
 762 338 762 338 662 336 c 0,37,38
 634 336 634 336 607 338 c 0,39,40
 601 339 601 339 596.5 335 c 128,-1,41
 592 331 592 331 591.5 325 c 128,-1,42
 591 319 591 319 595 314.5 c 128,-1,43
 599 310 599 310 605 309 c 0,44,45
 633 307 633 307 662 307 c 0,46,47
 724 307 724 307 779.5 317 c 128,-1,48
 835 327 835 327 868 347 c 1,49,-1
 868 299 l 2,50,51
 868 285 868 285 815 267.5 c 128,-1,52
 762 250 762 250 662 248 c 0,53,54
 635 248 635 248 610 250 c 0,55,56
 603 251 603 251 599 246.5 c 128,-1,57
 595 242 595 242 594 236 c 128,-1,58
 593 230 593 230 597.5 225.5 c 128,-1,59
 602 221 602 221 608 221 c 0,60,61
 634 219 634 219 662 219 c 0,62,63
 724 219 724 219 779.5 229 c 128,-1,64
 835 239 835 239 868 258 c 1,65,-1
 868 208 l 2,66,67
 868 193 868 193 815.5 176 c 128,-1,68
 763 159 763 159 662 158 c 0,69,70
 635 158 635 158 610 160 c 0,71,72
 604 161 604 161 599.5 156.5 c 128,-1,73
 595 152 595 152 594.5 146 c 128,-1,74
 594 140 594 140 598 135.5 c 128,-1,75
 602 131 602 131 608 131 c 0,76,77
 635 129 635 129 662 129 c 0,78,79
 751 129 751 129 822 148 c 128,-1,80
 893 167 893 167 897 208 c 1,81,-1
 897 652 l 1,0,1
544 46 m 2,82,83
 544 31 544 31 491.5 14 c 128,-1,84
 439 -3 439 -3 338 -4 c 0,85,86
 241 -2 241 -2 187 16 c 128,-1,87
 133 34 133 34 132 49 c 2,88,-1
 132 96 l 1,89,90
 166 77 166 77 221 67 c 128,-1,91
 276 57 276 57 338.5 57 c 128,-1,92
 401 57 401 57 456 67 c 128,-1,93
 511 77 511 77 544 96 c 1,94,-1
 544 46 l 2,82,83
544 138 m 2,95,96
 544 123 544 123 491 105.5 c 128,-1,97
 438 88 438 88 338 86 c 0,98,99
 238 88 238 88 185 105.5 c 128,-1,100
 132 123 132 123 132 138 c 2,101,-1
 132 185 l 1,102,103
 166 165 166 165 221 155 c 128,-1,104
 276 145 276 145 338.5 145 c 128,-1,105
 401 145 401 145 456 155 c 128,-1,106
 511 165 511 165 544 185 c 1,107,-1
 544 138 l 2,95,96
544 226 m 2,108,109
 544 211 544 211 491 193.5 c 128,-1,110
 438 176 438 176 338 174 c 0,111,112
 238 176 238 176 185 193.5 c 128,-1,113
 132 211 132 211 132 226 c 2,114,-1
 132 273 l 1,115,116
 166 253 166 253 221 243 c 128,-1,117
 276 233 276 233 338.5 233 c 128,-1,118
 401 233 401 233 456 243 c 128,-1,119
 511 253 511 253 544 273 c 1,120,-1
 544 226 l 2,108,109
544 314 m 0,121,122
 544 300 544 300 491 282.5 c 128,-1,123
 438 265 438 265 338 263 c 0,124,125
 238 265 238 265 185 282.5 c 128,-1,126
 132 300 132 300 132 314.5 c 128,-1,127
 132 329 132 329 185 346.5 c 128,-1,128
 238 364 238 364 338 366 c 0,129,130
 438 364 438 364 491 346.5 c 128,-1,131
 544 329 544 329 544 314 c 0,121,122
868 476 m 2,132,133
 868 462 868 462 815 444.5 c 128,-1,134
 762 427 762 427 662 425 c 0,135,136
 562 427 562 427 509 444.5 c 128,-1,137
 456 462 456 462 456 476 c 2,138,-1
 456 523 l 1,139,140
 489 503 489 503 544 493 c 128,-1,141
 599 483 599 483 661.5 483 c 128,-1,142
 724 483 724 483 779.5 493 c 128,-1,143
 835 503 835 503 868 523 c 1,144,-1
 868 476 l 2,132,133
868 564 m 2,145,146
 868 550 868 550 815 532.5 c 128,-1,147
 762 515 762 515 662 513 c 0,148,149
 562 515 562 515 509 532.5 c 128,-1,150
 456 550 456 550 456 564 c 2,151,-1
 456 611 l 1,152,153
 489 592 489 592 544 582 c 128,-1,154
 599 572 599 572 661.5 572 c 128,-1,155
 724 572 724 572 779.5 582 c 128,-1,156
 835 592 835 592 868 611 c 1,157,-1
 868 564 l 2,145,146
662 601 m 0,158,159
 562 603 562 603 509 620.5 c 128,-1,160
 456 638 456 638 456 652.5 c 128,-1,161
 456 667 456 667 509 684.5 c 128,-1,162
 562 702 562 702 662 704 c 0,163,164
 762 702 762 702 815 684.5 c 128,-1,165
 868 667 868 667 868 652.5 c 128,-1,166
 868 638 868 638 815 620.5 c 128,-1,167
 762 603 762 603 662 601 c 0,158,159
EndSplineSet
EndChar

StartChar: thin-eye
Encoding: 57647 57647 48
Width: 1000
Flags: W
LayerCount: 2
Fore
SplineSet
896 363 m 0,0,1
 896 367 896 367 875 401 c 128,-1,2
 854 435 854 435 809 479 c 0,3,4
 767 520 767 520 690.5 555.5 c 128,-1,5
 614 591 614 591 500 593 c 1,6,7
 302 579 302 579 204 480 c 128,-1,8
 106 381 106 381 105 365 c 0,9,10
 101 357 101 357 105 351 c 0,11,12
 106 334 106 334 204 228 c 128,-1,13
 302 122 302 122 500 107 c 1,14,15
 717 122 717 122 807.5 228.5 c 128,-1,16
 898 335 898 335 896 352 c 0,17,18
 899 358 899 358 896 363 c 0,0,1
346 533 m 0,19,20
 347 534 347 534 347 534 c 1,21,22
 413 562 413 562 500 562 c 128,-1,23
 587 562 587 562 649 540 c 1,24,-1
 651 537 l 1,25,26
 691 485 691 485 691 419 c 0,27,28
 689 338 689 338 635 284 c 128,-1,29
 581 230 581 230 500 228 c 0,30,31
 419 230 419 230 365 284 c 128,-1,32
 311 338 311 338 309 419 c 0,33,34
 309 450 309 450 318.5 479 c 128,-1,35
 328 508 328 508 346 533 c 0,19,20
500 137 m 1,36,37
 334 147 334 147 243 232.5 c 128,-1,38
 152 318 152 318 135 357 c 1,39,40
 146 377 146 377 187 423.5 c 128,-1,41
 228 470 228 470 300 512 c 1,42,43
 279 469 279 469 279 419 c 0,44,45
 281 326 281 326 343.5 263.5 c 128,-1,46
 406 201 406 201 500 199 c 0,47,48
 594 201 594 201 656.5 263.5 c 128,-1,49
 719 326 719 326 721 419 c 0,50,51
 721 474 721 474 696 521 c 1,52,53
 777 478 777 478 817.5 428 c 128,-1,54
 858 378 858 378 866 357 c 1,55,56
 856 320 856 320 770.5 233.5 c 128,-1,57
 685 147 685 147 500 137 c 1,36,37
500 313 m 0,58,59
 544 314 544 314 573 343 c 128,-1,60
 602 372 602 372 602 416 c 128,-1,61
 602 460 602 460 573 489 c 128,-1,62
 544 518 544 518 500 519 c 0,63,64
 460 519 460 519 430 491 c 0,65,66
 425 488 425 488 425.5 481.5 c 128,-1,67
 426 475 426 475 429 470 c 2,68,-1
 482 417 l 2,69,70
 493 408 493 408 503 417 c 0,71,72
 508 421 508 421 508 427 c 128,-1,73
 508 433 508 433 503 437 c 2,74,-1
 462 479 l 1,75,76
 479 490 479 490 500 490 c 0,77,78
 532 489 532 489 552.5 468.5 c 128,-1,79
 573 448 573 448 573 416.5 c 128,-1,80
 573 385 573 385 552.5 364.5 c 128,-1,81
 532 344 532 344 500.5 344 c 128,-1,82
 469 344 469 344 448.5 364.5 c 128,-1,83
 428 385 428 385 427 416 c 0,84,85
 427 422 427 422 422.5 426.5 c 128,-1,86
 418 431 418 431 412 431 c 128,-1,87
 406 431 406 431 401.5 426.5 c 128,-1,88
 397 422 397 422 397 416 c 0,89,90
 398 372 398 372 427 343 c 128,-1,91
 456 314 456 314 500 313 c 0,58,59
EndSplineSet
EndChar

StartChar: thin-settings
Encoding: 57648 57648 49
Width: 1000
Flags: W
LayerCount: 2
Fore
SplineSet
294 262 m 256,0,1
 288 262 288 262 283.5 257.5 c 128,-1,2
 279 253 279 253 279 247 c 2,3,-1
 279 85 l 2,4,5
 279 79 279 79 283.5 75 c 128,-1,6
 288 71 288 71 294 71 c 128,-1,7
 300 71 300 71 304.5 75 c 128,-1,8
 309 79 309 79 309 85 c 2,9,-1
 309 247 l 2,10,11
 309 253 309 253 304.5 257.5 c 128,-1,12
 300 262 300 262 294 262 c 256,0,1
294 438 m 256,13,14
 300 438 300 438 304.5 442.5 c 128,-1,15
 309 447 309 447 309 453 c 2,16,-1
 309 615 l 2,17,18
 309 621 309 621 304.5 625.5 c 128,-1,19
 300 630 300 630 294 630 c 128,-1,20
 288 630 288 630 283.5 625.5 c 128,-1,21
 279 621 279 621 279 615 c 2,22,-1
 279 453 l 2,23,24
 279 447 279 447 283.5 442.5 c 128,-1,25
 288 438 288 438 294 438 c 256,13,14
500 129 m 256,26,27
 494 129 494 129 489.5 125 c 128,-1,28
 485 121 485 121 485 115 c 2,29,-1
 485 85 l 2,30,31
 485 79 485 79 489.5 75 c 128,-1,32
 494 71 494 71 500 71 c 128,-1,33
 506 71 506 71 510.5 75 c 128,-1,34
 515 79 515 79 515 85 c 2,35,-1
 515 115 l 2,36,37
 515 121 515 121 510.5 125 c 128,-1,38
 506 129 506 129 500 129 c 256,26,27
500 306 m 256,39,40
 506 306 506 306 510.5 310.5 c 128,-1,41
 515 315 515 315 515 321 c 2,42,-1
 515 615 l 2,43,44
 515 621 515 621 510.5 625.5 c 128,-1,45
 506 630 506 630 500 630 c 128,-1,46
 494 630 494 630 489.5 625.5 c 128,-1,47
 485 621 485 621 485 615 c 2,48,-1
 485 321 l 2,49,50
 485 315 485 315 489.5 310.5 c 128,-1,51
 494 306 494 306 500 306 c 256,39,40
706 365 m 256,52,53
 700 365 700 365 695.5 360.5 c 128,-1,54
 691 356 691 356 691 350 c 2,55,-1
 691 85 l 2,56,57
 691 79 691 79 695.5 75 c 128,-1,58
 700 71 700 71 706 71 c 128,-1,59
 712 71 712 71 716.5 75 c 128,-1,60
 721 79 721 79 721 85 c 2,61,-1
 721 350 l 2,62,63
 721 356 721 356 716.5 360.5 c 128,-1,64
 712 365 712 365 706 365 c 256,52,53
706 541 m 256,65,66
 712 541 712 541 716.5 545.5 c 128,-1,67
 721 550 721 550 721 556 c 2,68,-1
 721 615 l 2,69,70
 721 621 721 621 716.5 625.5 c 128,-1,71
 712 630 712 630 706 630 c 128,-1,72
 700 630 700 630 695.5 625.5 c 128,-1,73
 691 621 691 621 691 615 c 2,74,-1
 691 556 l 2,75,76
 691 550 691 550 695.5 545.5 c 128,-1,77
 700 541 700 541 706 541 c 256,65,66
294 424 m 0,78,79
 263 423 263 423 242.5 402.5 c 128,-1,80
 222 382 222 382 222 350.5 c 128,-1,81
 222 319 222 319 242.5 298.5 c 128,-1,82
 263 278 263 278 294.5 278 c 128,-1,83
 326 278 326 278 346.5 298.5 c 128,-1,84
 367 319 367 319 367 350.5 c 128,-1,85
 367 382 367 382 346.5 402.5 c 128,-1,86
 326 423 326 423 294 424 c 0,78,79
294 306 m 0,87,88
 276 307 276 307 263.5 319.5 c 128,-1,89
 251 332 251 332 251 350.5 c 128,-1,90
 251 369 251 369 263.5 381.5 c 128,-1,91
 276 394 276 394 294.5 394 c 128,-1,92
 313 394 313 394 325.5 381.5 c 128,-1,93
 338 369 338 369 338 350.5 c 128,-1,94
 338 332 338 332 325.5 319.5 c 128,-1,95
 313 307 313 307 294 306 c 0,87,88
500 291 m 0,96,97
 469 290 469 290 448.5 269.5 c 128,-1,98
 428 249 428 249 428 217.5 c 128,-1,99
 428 186 428 186 448.5 165.5 c 128,-1,100
 469 145 469 145 500.5 145 c 128,-1,101
 532 145 532 145 552.5 165.5 c 128,-1,102
 573 186 573 186 573 217.5 c 128,-1,103
 573 249 573 249 552.5 269.5 c 128,-1,104
 532 290 532 290 500 291 c 0,96,97
500 174 m 0,105,106
 482 174 482 174 469.5 186.5 c 128,-1,107
 457 199 457 199 457 218 c 128,-1,108
 457 237 457 237 469.5 249.5 c 128,-1,109
 482 262 482 262 500.5 262 c 128,-1,110
 519 262 519 262 531.5 249.5 c 128,-1,111
 544 237 544 237 544 218 c 128,-1,112
 544 199 544 199 531.5 186.5 c 128,-1,113
 519 174 519 174 500 174 c 0,105,106
706 527 m 0,114,115
 674 526 674 526 653.5 505.5 c 128,-1,116
 633 485 633 485 633 453 c 128,-1,117
 633 421 633 421 653.5 400.5 c 128,-1,118
 674 380 674 380 706 380 c 128,-1,119
 738 380 738 380 758.5 400.5 c 128,-1,120
 779 421 779 421 779 453 c 128,-1,121
 779 485 779 485 758.5 505.5 c 128,-1,122
 738 526 738 526 706 527 c 0,114,115
706 409 m 0,123,124
 688 410 688 410 675.5 422.5 c 128,-1,125
 663 435 663 435 663 453.5 c 128,-1,126
 663 472 663 472 675.5 484.5 c 128,-1,127
 688 497 688 497 706.5 497 c 128,-1,128
 725 497 725 497 737.5 484.5 c 128,-1,129
 750 472 750 472 750 453.5 c 128,-1,130
 750 435 750 435 737.5 422.5 c 128,-1,131
 725 410 725 410 706 409 c 0,123,124
824 747 m 2,132,-1
 176 747 l 2,133,134
 145 746 145 746 124.5 725.5 c 128,-1,135
 104 705 104 705 103 674 c 2,136,-1
 103 26 l 2,137,138
 104 -5 104 -5 124.5 -25.5 c 128,-1,139
 145 -46 145 -46 176 -47 c 2,140,-1
 824 -47 l 2,141,142
 855 -46 855 -46 875.5 -25.5 c 128,-1,143
 896 -5 896 -5 897 26 c 2,144,-1
 897 674 l 2,145,146
 896 705 896 705 875.5 725.5 c 128,-1,147
 855 746 855 746 824 747 c 2,132,-1
868 26 m 2,148,149
 868 8 868 8 855.5 -4.5 c 128,-1,150
 843 -17 843 -17 824 -18 c 2,151,-1
 176 -18 l 2,152,153
 158 -17 158 -17 145.5 -4.5 c 128,-1,154
 133 8 133 8 132 26 c 2,155,-1
 132 674 l 2,156,157
 133 693 133 693 145.5 705.5 c 128,-1,158
 158 718 158 718 176 718 c 2,159,-1
 824 718 l 2,160,161
 843 718 843 718 855.5 705.5 c 128,-1,162
 868 693 868 693 868 674 c 2,163,-1
 868 26 l 2,148,149
EndSplineSet
EndChar

StartChar: thin-arrow-bottom-right
Encoding: 57649 57649 50
Width: 1000
Flags: W
LayerCount: 2
Fore
SplineSet
118 336 m 1,0,1
 131 336 131 336 132 348 c 2,2,-1
 132 350 l 2,3,4
 132 370 132 370 134 388 c 0,5,6
 135 394 135 394 131 399 c 128,-1,7
 127 404 127 404 121 405 c 0,8,9
 108 405 108 405 105 392 c 0,10,11
 103 372 103 372 103 351 c 2,12,-1
 103 348 l 2,13,14
 105 336 105 336 118 336 c 1,15,16
 118 336 118 336 118 336 c 1,0,1
128 439 m 0,17,18
 129 439 129 439 132 438 c 0,19,20
 142 439 142 439 146 449 c 0,21,22
 152 470 152 470 160 489 c 0,23,24
 164 502 164 502 152 509 c 0,25,26
 146 511 146 511 140 508.5 c 128,-1,27
 134 506 134 506 132 500 c 2,28,-1
 117 457 l 2,29,30
 116 451 116 451 119 446 c 128,-1,31
 122 441 122 441 128 439 c 0,17,18
148 243 m 0,32,33
 142 263 142 263 138 284 c 0,34,35
 137 290 137 290 132 293.5 c 128,-1,36
 127 297 127 297 121 296 c 0,37,38
 108 292 108 292 109 279 c 0,39,40
 114 257 114 257 120 234 c 0,41,42
 124 225 124 225 134 224 c 2,43,-1
 138 224 l 2,44,45
 144 226 144 226 147 231.5 c 128,-1,46
 150 237 150 237 148 243 c 0,32,33
171 185 m 0,47,48
 169 190 169 190 163.5 192 c 128,-1,49
 158 194 158 194 152 191.5 c 128,-1,50
 146 189 146 189 144 183 c 128,-1,51
 142 177 142 177 145 172 c 0,52,53
 156 151 156 151 168 132 c 0,54,55
 173 126 173 126 179 126 c 128,-1,56
 185 126 185 126 188 128 c 0,57,58
 193 132 193 132 194.5 137.5 c 128,-1,59
 196 143 196 143 193 148 c 0,60,61
 181 167 181 167 171 185 c 0,47,48
168 540 m 0,62,63
 172 538 172 538 175 538 c 0,64,65
 183 538 183 538 188 545 c 0,66,67
 199 563 199 563 212 579 c 0,68,69
 216 584 216 584 215.5 590 c 128,-1,70
 215 596 215 596 210 600 c 128,-1,71
 205 604 205 604 199 603.5 c 128,-1,72
 193 603 193 603 189 598 c 0,73,74
 175 580 175 580 163 560 c 0,75,76
 160 555 160 555 161.5 549 c 128,-1,77
 163 543 163 543 168 540 c 0,62,63
439 713 m 0,78,79
 441 713 441 713 441 713 c 1,80,81
 462 717 462 717 484 718 c 0,82,83
 490 718 490 718 494 722.5 c 128,-1,84
 498 727 498 727 497.5 733 c 128,-1,85
 497 739 497 739 492.5 743 c 128,-1,86
 488 747 488 747 482 747 c 0,87,88
 460 746 460 746 437 742 c 0,89,90
 431 741 431 741 427.5 736.5 c 128,-1,91
 424 732 424 732 425 726 c 0,92,93
 428 714 428 714 439 713 c 0,78,79
827 519 m 0,94,95
 831 511 831 511 840 511 c 0,96,97
 843 511 843 511 847.5 513.5 c 128,-1,98
 852 516 852 516 854 522 c 128,-1,99
 856 528 856 528 853 533 c 0,100,101
 843 553 843 553 829 572 c 0,102,103
 826 577 826 577 820 578.5 c 128,-1,104
 814 580 814 580 809 576.5 c 128,-1,105
 804 573 804 573 803 567 c 128,-1,106
 802 561 802 561 805 556 c 0,107,108
 817 538 817 538 827 519 c 0,94,95
336 681 m 0,109,110
 339 681 339 681 342 682 c 0,111,112
 362 692 362 692 381 698 c 0,113,114
 394 704 394 704 390 717 c 0,115,116
 388 723 388 723 383 725.5 c 128,-1,117
 378 728 378 728 372 726 c 0,118,119
 350 718 350 718 329 709 c 0,120,121
 318 702 318 702 322 689 c 0,122,123
 327 681 327 681 336 681 c 0,109,110
851 462 m 0,124,125
 857 442 857 442 861 421 c 0,126,127
 862 416 862 416 866 412.5 c 128,-1,128
 870 409 870 409 875 409 c 2,129,-1
 878 409 l 1,130,131
 891 413 891 413 890 426 c 0,132,133
 885 449 885 449 879 471 c 0,134,135
 873 484 873 484 860 480 c 0,136,137
 854 478 854 478 851.5 473 c 128,-1,138
 849 468 849 468 851 462 c 0,124,125
546 715 m 0,139,140
 567 712 567 712 587 708 c 0,141,142
 590 707 590 707 591 707 c 0,143,144
 603 708 603 708 605 718 c 0,145,146
 606 724 606 724 603 729 c 128,-1,147
 600 734 600 734 594 736 c 0,148,149
 573 742 573 742 549 744 c 0,150,151
 536 745 536 745 533 732 c 0,152,153
 532 726 532 726 536 721 c 128,-1,154
 540 716 540 716 546 715 c 0,139,140
231 100 m 0,155,156
 221 109 221 109 210 100 c 0,157,158
 206 96 206 96 205.5 90 c 128,-1,159
 205 84 205 84 209 80 c 0,160,161
 225 63 225 63 243 48 c 0,162,163
 247 45 247 45 252.5 44.5 c 128,-1,164
 258 44 258 44 262.5 49.5 c 128,-1,165
 267 55 267 55 267 60.5 c 128,-1,166
 267 66 267 66 262 70 c 0,167,168
 246 84 246 84 231 100 c 0,155,156
871 257 m 0,169,170
 865 258 865 258 860 255.5 c 128,-1,171
 855 253 855 253 853 247 c 0,172,173
 847 227 847 227 839 207 c 0,174,175
 837 202 837 202 839 196.5 c 128,-1,176
 841 191 841 191 847 188 c 0,177,178
 850 187 850 187 852 187 c 0,179,180
 862 187 862 187 866 196 c 0,181,182
 875 217 875 217 881 239 c 0,183,184
 883 245 883 245 880 250 c 128,-1,185
 877 255 877 255 871 257 c 0,169,170
742 73 m 0,186,187
 726 59 726 59 708 47 c 0,188,189
 703 43 703 43 702 37.5 c 128,-1,190
 701 32 701 32 704 27 c 0,191,192
 709 20 709 20 717 20 c 0,193,194
 720 20 720 20 725 23 c 0,195,196
 744 36 744 36 761 51 c 0,197,198
 766 55 766 55 766.5 61 c 128,-1,199
 767 67 767 67 762.5 71.5 c 128,-1,200
 758 76 758 76 752.5 76.5 c 128,-1,201
 747 77 747 77 742 73 c 0,186,187
787 624 m 0,202,203
 772 641 772 641 754 656 c 0,204,205
 749 660 749 660 743 659.5 c 128,-1,206
 737 659 737 659 733 654 c 128,-1,207
 729 649 729 649 729.5 643 c 128,-1,208
 730 637 730 637 735 633 c 0,209,210
 751 619 751 619 766 604 c 0,211,212
 771 600 771 600 776.5 600 c 128,-1,213
 782 600 782 600 787 604 c 128,-1,214
 792 608 792 608 792 614 c 128,-1,215
 792 620 792 620 787 624 c 0,202,203
292 671 m 0,216,217
 288 676 288 676 282 677.5 c 128,-1,218
 276 679 276 679 271 675 c 0,219,220
 253 662 253 662 235 646 c 0,221,222
 231 642 231 642 230.5 636.5 c 128,-1,223
 230 631 230 631 234.5 626 c 128,-1,224
 239 621 239 621 245 621 c 128,-1,225
 251 621 251 621 255 624 c 0,226,227
 272 639 272 639 288 651 c 0,228,229
 293 655 293 655 294 660.5 c 128,-1,230
 295 666 295 666 292 671 c 0,216,217
897 360 m 2,231,232
 897 366 897 366 892.5 370.5 c 128,-1,233
 888 375 888 375 882 374.5 c 128,-1,234
 876 374 876 374 872 369.5 c 128,-1,235
 868 365 868 365 868 359 c 2,236,-1
 868 350 l 2,237,238
 868 329 868 329 865 308 c 0,239,240
 864 302 864 302 868 297.5 c 128,-1,241
 872 293 872 293 878 292 c 2,242,-1
 880 292 l 2,243,244
 885 292 885 292 889.5 295.5 c 128,-1,245
 894 299 894 299 895 305 c 0,246,247
 897 328 897 328 897 350 c 2,248,-1
 897 360 l 2,231,232
699 694 m 0,249,250
 679 706 679 706 658 715 c 0,251,252
 653 717 653 717 647.5 715 c 128,-1,253
 642 713 642 713 639 707.5 c 128,-1,254
 636 702 636 702 638.5 696.5 c 128,-1,255
 641 691 641 691 646 688 c 0,256,257
 666 679 666 679 684 669 c 0,258,259
 687 667 687 667 692 667 c 0,260,261
 700 667 700 667 703.5 673 c 128,-1,262
 707 679 707 679 705.5 685 c 128,-1,263
 704 691 704 691 699 694 c 0,249,250
830 157 m 0,264,265
 825 160 825 160 819 158.5 c 128,-1,266
 813 157 813 157 810 152 c 0,267,268
 798 134 798 134 785 118 c 0,269,270
 781 113 781 113 781.5 107 c 128,-1,271
 782 101 782 101 787 97.5 c 128,-1,272
 792 94 792 94 796 94 c 0,273,274
 804 94 804 94 808 99 c 0,275,276
 822 117 822 117 835 136 c 0,277,278
 838 141 838 141 836.5 147 c 128,-1,279
 835 153 835 153 830 157 c 0,264,265
350 15 m 0,280,281
 330 23 330 23 312 34 c 0,282,283
 307 37 307 37 301 35.5 c 128,-1,284
 295 34 295 34 292 29 c 128,-1,285
 289 24 289 24 290.5 18 c 128,-1,286
 292 12 292 12 297 9 c 0,287,288
 317 -3 317 -3 338 -12 c 0,289,290
 341 -14 341 -14 344 -14 c 0,291,292
 353 -14 353 -14 357 -5 c 0,293,294
 360 0 360 0 357.5 6 c 128,-1,295
 355 12 355 12 350 15 c 0,280,281
554 -14 m 0,296,297
 533 -17 533 -17 512 -17 c 0,298,299
 506 -18 506 -18 502 -22.5 c 128,-1,300
 498 -27 498 -27 498 -33 c 128,-1,301
 498 -39 498 -39 502.5 -43 c 128,-1,302
 507 -47 507 -47 513 -47 c 1,303,304
 513 -47 513 -47 513 -47 c 1,305,306
 536 -46 536 -46 559 -43 c 0,307,308
 565 -42 565 -42 568.5 -37 c 128,-1,309
 572 -32 572 -32 571 -26 c 128,-1,310
 570 -20 570 -20 565.5 -16.5 c 128,-1,311
 561 -13 561 -13 554 -14 c 0,296,297
450 -14 m 0,312,313
 429 -11 429 -11 408 -6 c 0,314,315
 403 -5 403 -5 398 -8 c 128,-1,316
 393 -11 393 -11 391.5 -17 c 128,-1,317
 390 -23 390 -23 392.5 -28 c 128,-1,318
 395 -33 395 -33 401 -35 c 0,319,320
 424 -40 424 -40 446 -43 c 1,321,-1
 448 -44 l 2,322,323
 453 -44 453 -44 457.5 -40 c 128,-1,324
 462 -36 462 -36 463 -30.5 c 128,-1,325
 464 -25 464 -25 460 -20 c 128,-1,326
 456 -15 456 -15 450 -14 c 0,312,313
654 16 m 0,327,328
 635 7 635 7 615 1 c 0,329,330
 603 -5 603 -5 605 -18 c 0,331,332
 609 -27 609 -27 619 -28 c 0,333,334
 622 -28 622 -28 624 -27 c 0,335,336
 646 -21 646 -21 667 -10 c 0,337,338
 672 -7 672 -7 674 -1.5 c 128,-1,339
 676 4 676 4 674 9 c 0,340,341
 667 22 667 22 654 16 c 0,327,328
662 468 m 256,342,343
 656 468 656 468 651.5 463.5 c 128,-1,344
 647 459 647 459 647 453 c 2,345,-1
 647 231 l 1,346,-1
 357 522 l 2,347,348
 347 531 347 531 337 521.5 c 128,-1,349
 327 512 327 512 336 501 c 2,350,-1
 634 203 l 1,351,-1
 397 203 l 2,352,353
 391 203 391 203 386.5 199 c 128,-1,354
 382 195 382 195 382 188.5 c 128,-1,355
 382 182 382 182 386.5 178 c 128,-1,356
 391 174 391 174 397 174 c 2,357,-1
 662 174 l 2,358,359
 668 174 668 174 672.5 178 c 128,-1,360
 677 182 677 182 677 188 c 2,361,-1
 677 453 l 2,362,363
 677 459 677 459 672.5 463.5 c 128,-1,364
 668 468 668 468 662 468 c 256,342,343
EndSplineSet
EndChar

